<?xml version="1.0" standalone="no"?>
<!DOCTYPE svg PUBLIC "-//W3C//DTD SVG 20010904//EN"
 "http://www.w3.org/TR/2001/REC-SVG-20010904/DTD/svg10.dtd">
<svg version="1.0" xmlns="http://www.w3.org/2000/svg"
 width="548.000000pt" height="342.000000pt" viewBox="0 0 548.000000 342.000000"
 preserveAspectRatio="xMidYMid meet">
<metadata>
Created by potrace 1.13, written by Peter Selinger 2001-2015
</metadata>
<g transform="translate(0.000000,342.000000) scale(0.100000,-0.100000)"
fill="#000000" stroke="none">
<path d="M2101 3268 c0 -16 2 -18 6 -8 3 8 11 18 17 22 7 5 4 8 -6 8 -12 0
-18 -7 -17 -22z"/>
<path d="M2193 3263 c9 -2 25 -2 35 0 9 3 1 5 -18 5 -19 0 -27 -2 -17 -5z"/>
<path d="M2124 3243 c0 -10 -5 -17 -12 -15 -8 1 -11 -2 -7 -7 9 -16 35 -1 35
20 0 10 -4 19 -9 19 -5 0 -8 -8 -7 -17z"/>
<path d="M2258 3253 c6 -2 18 -2 25 0 6 3 1 5 -13 5 -14 0 -19 -2 -12 -5z"/>
<path d="M2000 3240 c-11 -8 -7 -9 15 -4 37 8 45 14 19 14 -10 0 -26 -5 -34
-10z"/>
<path d="M2325 3239 c17 -7 32 -15 35 -19 3 -4 19 -10 35 -13 l30 -7 -24 17
c-13 10 -29 18 -35 19 -6 1 -24 5 -41 8 l-30 6 30 -11z"/>
<path d="M1921 3205 c-25 -14 -52 -32 -60 -40 -15 -14 -13 -15 17 -4 17 6 32
15 32 20 0 5 17 17 38 28 20 11 33 20 27 20 -5 0 -30 -11 -54 -24z"/>
<path d="M2515 3035 c-33 -32 -33 -91 0 -179 25 -66 25 -68 25 -416 l0 -349
-57 -4 -58 -3 58 -2 57 -2 0 -300 0 -300 -96 0 -95 0 25 23 c25 22 67 105 47
92 -6 -3 -11 -13 -11 -21 0 -7 -16 -32 -36 -54 l-36 -40 -89 0 c-87 0 -89 0
-95 26 -4 15 -27 51 -52 82 l-44 55 4 198 c2 109 6 200 9 204 4 3 84 12 180
19 96 7 143 14 104 14 -78 0 -390 -25 -335 -27 l35 -1 -3 -204 -3 -205 -53 25
c-29 13 -68 26 -87 29 -22 4 -15 -1 22 -13 30 -10 70 -27 87 -38 28 -16 32
-24 32 -60 0 -23 3 -56 6 -73 6 -30 5 -31 -28 -31 -24 0 -49 10 -79 33 -54 42
-89 60 -97 53 -3 -3 0 -6 5 -6 35 0 309 -233 297 -252 -3 -5 -29 13 -57 39
-94 88 -195 164 -243 182 -43 17 -45 19 -29 34 15 16 14 17 -17 16 -18 -1 -25
-3 -15 -6 26 -7 14 -28 -14 -26 -13 1 -70 5 -127 9 -66 5 -106 12 -113 21 -9
11 0 13 52 15 l64 2 -57 3 c-32 2 -67 -1 -79 -7 l-21 -12 23 -24 c18 -19 33
-24 71 -24 36 0 48 -4 48 -15 0 -10 -11 -15 -32 -16 -25 0 -18 -4 27 -14 212
-46 389 -186 481 -382 46 -97 64 -179 64 -294 0 -148 -45 -296 -122 -403 -51
-72 -120 -138 -131 -127 -7 7 9 31 49 73 33 35 76 95 96 134 195 370 20 815
-372 949 -76 26 -98 29 -210 28 -71 0 -136 -5 -150 -11 -21 -10 -18 -10 20 -4
25 4 92 7 150 6 86 -1 120 -6 185 -28 170 -58 302 -171 382 -329 123 -245 64
-583 -136 -771 -30 -28 -31 -29 -50 -12 -11 10 -26 16 -33 13 -9 -4 -8 -6 3
-6 9 -1 22 -8 29 -16 11 -13 10 -18 -6 -30 -35 -27 -126 -78 -173 -96 -25 -10
-39 -18 -31 -19 21 0 132 53 185 90 49 34 55 36 55 16 0 -7 -28 -32 -62 -55
-35 -22 -59 -41 -55 -41 4 0 34 17 66 38 l58 39 27 -24 c15 -12 37 -23 49 -22
17 0 13 3 -12 12 -59 21 -58 35 7 105 122 131 181 273 190 455 l5 107 73 0 73
0 4 -52 3 -53 2 53 2 53 73 -3 72 -3 6 -50 c4 -31 6 5 7 92 3 193 21 197 25 6
l3 -148 2 153 c1 96 -2 152 -8 152 -24 0 -4 24 82 100 51 45 99 91 107 103 8
12 18 53 22 92 5 58 6 47 8 -67 l1 -138 190 0 c105 0 190 3 190 8 0 4 -83 6
-184 4 l-184 -3 -1 131 -1 131 197 -2 198 -1 -1 26 c-3 85 -7 119 -11 103 -4
-16 -19 -18 -199 -15 -125 2 -194 -1 -194 -7 0 -6 40 -9 105 -7 90 3 105 1
105 -12 0 -18 -16 -21 -23 -6 -3 6 -4 5 -3 -2 5 -23 36 -22 36 1 0 20 6 21 85
21 l85 0 0 -46 0 -45 -204 3 -205 3 -7 -83 -6 -83 -77 -69 c-42 -39 -79 -70
-83 -70 -5 0 -8 15 -8 34 0 24 5 36 18 39 16 4 16 5 0 6 -10 0 -18 5 -18 11 0
6 9 6 26 -1 36 -13 57 -5 93 37 24 26 31 44 31 75 0 24 4 38 10 34 17 -11 11
10 -10 33 -12 12 -16 22 -10 22 5 0 10 7 10 15 0 9 9 15 25 15 14 0 25 4 25 9
0 4 -11 6 -25 3 -24 -4 -25 -3 -25 57 0 58 1 61 25 61 l25 0 0 110 c0 103 1
110 20 110 22 0 33 29 29 76 -1 16 -1 61 1 99 l4 70 6 -70 6 -70 2 73 2 72
-31 0 c-35 0 -34 -22 -3 198 8 63 13 116 11 118 -5 6 -20 -89 -43 -283 -17
-138 -17 -143 1 -163 23 -25 17 -32 -23 -24 l-32 7 0 449 0 450 24 -6 c20 -5
23 -3 19 14 -4 13 0 20 10 20 11 0 15 -14 16 -62 1 -75 11 -92 11 -19 0 43 3
51 17 49 10 -2 19 4 21 15 2 10 -3 17 -12 17 -19 0 -22 50 -4 68 22 22 67 15
79 -12 14 -30 -2 -208 -21 -231 -21 -26 -67 -19 -84 13 -17 31 -20 25 -6 -12
7 -20 16 -26 40 -26 16 0 30 -4 30 -9 0 -5 -9 -53 -20 -106 -11 -53 -20 -107
-19 -119 0 -11 12 35 25 102 20 97 30 129 48 145 28 26 48 105 33 129 -7 10
-7 27 -1 49 8 30 14 34 47 37 l38 3 -5 -38 c-4 -21 -3 -32 0 -25 4 9 82 12
340 12 l334 0 0 -338 0 -337 -61 -45 c-34 -25 -81 -67 -104 -95 -57 -66 -154
-217 -206 -321 l-43 -84 -202 0 c-202 0 -203 0 -207 23 -4 22 -4 22 -6 0 0
-12 -9 -24 -18 -26 -10 -3 1 -5 24 -6 23 0 45 -6 49 -13 5 -7 2 -8 -7 -3 -12
7 -12 6 0 -6 10 -11 15 -11 18 -1 3 7 23 12 53 12 29 0 50 -5 54 -12 3 -10 9
-8 19 5 12 14 32 17 124 17 l111 0 -6 -47 c-2 -27 -9 -54 -15 -60 -7 -10 -4
-13 11 -13 12 0 23 9 27 20 5 16 45 30 45 16 0 -2 -13 -32 -29 -67 -16 -35
-31 -72 -35 -81 -6 -19 -56 -26 -56 -8 0 6 7 27 15 47 18 42 18 43 5 43 -6 0
-9 -3 -8 -7 1 -5 -10 -45 -25 -89 -14 -45 -31 -120 -38 -168 -10 -73 -15 -86
-31 -86 -13 0 -18 -7 -18 -25 0 -18 5 -25 20 -25 17 0 20 -7 20 -45 0 -38 -3
-45 -20 -45 -15 0 -20 -7 -20 -25 0 -18 5 -25 20 -25 18 0 20 -7 20 -55 0 -47
-3 -55 -19 -55 -10 0 -21 -7 -25 -15 -6 -17 9 -21 19 -5 10 17 25 11 25 -10 0
-20 -7 -20 -319 -20 -208 0 -321 4 -324 10 -3 6 -4 5 -3 -2 2 -10 85 -14 387
-16 l385 -2 12 -33 c25 -68 103 -186 173 -261 80 -86 82 -96 18 -128 -19 -10
-27 -18 -17 -18 10 0 32 13 50 29 l33 29 80 -53 c73 -49 218 -116 248 -115 6
1 -24 15 -68 32 -135 53 -259 135 -248 163 8 21 20 19 61 -14 42 -34 155 -96
192 -106 14 -4 -14 13 -61 37 -47 24 -105 59 -129 78 -39 31 -41 34 -24 47 16
12 15 13 -12 7 -27 -5 -34 0 -79 53 -108 125 -169 237 -204 373 -11 41 -20 66
-20 54 -1 -11 6 -45 15 -75 41 -140 109 -260 207 -365 39 -42 55 -67 51 -78
-3 -9 -10 -16 -14 -16 -13 0 -118 118 -160 180 -74 109 -130 254 -149 385 -6
42 -9 49 -10 25 0 -19 6 -62 14 -95 19 -78 19 -75 -11 -75 -34 0 -63 36 -64
78 0 25 -5 35 -20 39 -11 3 -20 11 -20 18 0 7 9 15 20 18 16 4 20 14 20 52 0
38 -4 48 -20 52 -25 7 -26 29 -2 35 15 4 21 22 30 88 18 125 31 160 59 160 27
0 27 -5 8 -85 -8 -33 -14 -76 -14 -95 1 -23 4 -14 11 28 41 287 229 547 493
679 126 64 216 85 379 91 81 2 142 8 136 12 -7 5 -10 15 -7 23 4 12 -18 15
-131 21 -169 8 -341 -7 -419 -35 -78 -29 -203 -155 -301 -303 -89 -135 -95
-117 -9 26 117 194 212 296 310 329 29 10 43 18 31 19 -38 0 -119 -50 -181
-112 -100 -102 -216 -291 -245 -398 l-12 -45 -4 33 c-6 59 115 286 222 417
100 121 174 169 289 185 l62 9 -63 -4 c-92 -5 -161 -42 -249 -133 -40 -41 -73
-69 -73 -63 0 20 153 167 200 192 43 23 54 24 250 25 165 1 183 0 90 -6 l-115
-6 140 -1 c77 0 131 2 119 4 -18 3 -22 15 -32 111 -15 140 -33 264 -39 258 -2
-2 2 -53 11 -113 8 -59 18 -136 22 -170 l7 -63 -192 0 -191 0 0 259 c0 143 3
266 6 275 3 9 11 13 18 9 6 -3 6 -1 -1 8 -7 7 -13 35 -13 61 l0 48 129 0 129
0 25 -107 c14 -60 30 -128 36 -153 l10 -45 -5 48 c-3 27 -19 102 -35 168 -16
66 -29 124 -29 130 0 5 16 9 36 9 27 0 37 -5 41 -20 4 -16 9 -18 24 -9 10 5
19 16 19 23 0 9 20 15 64 18 35 3 69 9 75 12 6 4 11 24 11 46 0 32 -4 39 -25
44 -36 9 -39 6 -36 -46 2 -47 2 -48 -27 -48 -26 0 -29 3 -25 23 3 12 14 31 25
43 22 25 15 33 -48 60 -32 14 -70 17 -227 15 -143 -1 -187 2 -181 11 5 8 2 9
-12 2 -10 -5 -116 -9 -234 -10 -176 0 -192 1 -90 6 l125 6 -121 2 c-93 2 -125
-1 -140 -13 -17 -13 26 -15 371 -17 215 -1 409 -2 432 -2 24 0 39 -4 36 -9 -4
-6 3 -8 16 -4 13 3 30 3 39 -1 10 -4 -14 -9 -52 -12 -68 -5 -69 -6 -89 -42
l-19 -38 -486 0 -487 0 -20 38 c-17 31 -26 38 -60 42 -36 5 -33 6 30 13 39 4
108 8 155 8 l85 2 -75 8 c-41 5 -102 6 -135 3 -33 -4 -78 -8 -99 -10 -76 -7
-83 -17 -103 -141 -3 -18 -9 -30 -14 -28 -4 3 -20 3 -34 -1 -21 -5 -24 -9 -13
-16 10 -8 10 -9 -2 -6 -8 2 -25 24 -37 49 -26 52 -29 48 -8 -11 13 -36 15
-145 15 -731 l0 -689 -70 0 -69 0 -3 693 c-3 630 -2 693 13 707 27 25 39 56
39 105 0 52 10 52 41 1 10 -17 19 -26 19 -20 0 28 -87 124 -113 124 -4 0 -19
-11 -32 -25z m59 -7 c33 -47 12 -168 -29 -168 -35 0 -58 106 -34 153 22 42 41
46 63 15z m274 -25 c-13 -3 -16 -12 -12 -36 3 -26 2 -28 -5 -12 l-10 20 -1
-20 c-2 -16 -3 -17 -7 -3 -6 24 15 58 35 57 16 -1 16 -2 0 -6z m127 -43 c8
-16 15 -31 15 -35 0 -9 -89 -5 -95 5 -3 6 -15 10 -26 10 -14 0 -19 7 -19 25 0
24 3 25 55 25 50 0 56 -2 70 -30z m1156 13 c0 -16 2 -15 10 2 6 15 7 11 3 -15
-4 -19 -8 -36 -9 -38 -1 -2 -35 -2 -74 0 l-71 3 20 33 c18 29 24 32 70 32 41
0 50 -3 51 -17z m103 11 c10 -4 16 -18 16 -40 0 -27 -4 -34 -20 -34 -17 0 -20
7 -20 40 0 43 0 43 24 34z m-108 -81 c-4 -4 -32 -8 -64 -9 -31 -1 -64 -5 -72
-8 -8 -3 -168 -7 -355 -9 l-340 -2 343 -3 c294 -2 342 -4 342 -17 0 -13 -64
-15 -495 -15 -432 0 -494 2 -489 15 5 12 27 15 98 17 l91 2 -90 3 c-49 2 -97
6 -105 10 -8 3 -32 5 -52 4 -22 -2 -38 2 -38 8 0 8 183 11 617 11 339 0 613
-3 609 -7z m-26 -33 c0 -5 -4 -10 -9 -10 -6 0 -13 5 -16 10 -3 6 1 10 9 10 9
0 16 -4 16 -10z m-390 -374 c0 -325 -1 -334 -20 -339 -20 -5 -20 0 -20 334 0
332 0 339 20 339 20 0 20 -7 20 -334z m-813 232 c-3 -8 -6 -5 -6 6 -1 11 2 17
5 13 3 -3 4 -12 1 -19z m-107 -728 c0 -45 -4 -60 -14 -60 -26 0 -35 64 -16
101 19 35 30 20 30 -41z m1362 -14 c5 -8 -26 -13 -100 -18 -158 -9 -326 -68
-461 -160 -50 -35 -160 -141 -207 -200 -21 -28 -33 -35 -43 -29 -11 7 -3 26
42 93 115 172 214 269 307 301 l45 15 3 -34 c2 -19 7 -34 11 -34 4 0 5 16 3
35 -2 19 -3 36 -1 36 2 1 51 5 109 8 129 9 282 2 292 -13z m58 -2 c0 -10 -7
-14 -22 -12 -32 5 -35 28 -4 28 17 0 26 -5 26 -16z m-798 -122 c-22 -32 -64
-102 -92 -155 -60 -113 -77 -130 -24 -25 46 91 144 251 151 244 3 -2 -13 -31
-35 -64z m-680 18 c-2 -17 -10 -30 -18 -30 -9 0 -14 11 -14 30 0 22 5 30 18
30 15 0 18 -6 14 -30z m35 -27 c-3 -10 -5 -2 -5 17 0 19 2 27 5 18 2 -10 2
-26 0 -35z m-20 5 c-3 -7 -5 -2 -5 12 0 14 2 19 5 13 2 -7 2 -19 0 -25z m40 0
c-3 -7 -5 -2 -5 12 0 14 2 19 5 13 2 -7 2 -19 0 -25z m-54 -25 c-7 -2 -19 -2
-25 0 -7 3 -2 5 12 5 14 0 19 -2 13 -5z m7 -118 c0 -98 -1 -105 -20 -105 -19
0 -20 7 -20 105 0 98 1 105 20 105 19 0 20 -7 20 -105z m-620 -165 c9 -14 21
-35 24 -47 7 -21 4 -23 -33 -23 l-41 0 0 49 c0 27 -3 58 -7 68 -6 16 -4 16 16
-2 13 -11 31 -31 41 -45z m1230 16 c0 -18 -15 -36 -31 -36 -22 0 -24 11 -7 28
11 11 38 17 38 8z m-1727 -23 c-13 -2 -35 -2 -50 0 -16 2 -5 4 22 4 28 0 40
-2 28 -4z m148 -10 c28 -5 30 -7 14 -14 -15 -6 -12 -8 15 -8 28 -1 32 2 20 10
-12 9 -12 10 3 5 10 -3 24 -6 30 -6 7 0 6 -5 -3 -11 -12 -9 -11 -10 8 -6 51
12 349 -259 319 -290 -3 -2 -8 4 -11 14 -5 17 -12 19 -59 12 -28 -4 -56 -3
-61 2 -6 5 13 9 47 9 53 0 71 10 47 25 -5 3 -10 1 -10 -4 0 -7 -22 -11 -53
-11 -41 0 -55 4 -65 20 -12 19 -10 20 45 20 31 0 53 3 50 7 -4 4 -32 5 -62 4
-52 -2 -58 0 -113 43 -32 26 -90 62 -128 81 l-69 35 85 0 c82 0 87 -2 128 -34
23 -19 59 -50 79 -70 21 -20 41 -36 46 -36 15 0 -9 23 -92 90 l-79 64 -106 -3
c-91 -2 -106 0 -106 13 0 9 -8 16 -20 16 -20 0 -26 11 -13 23 8 9 71 9 114 0z
m-94 -39 c-3 -3 -12 -4 -19 -1 -8 3 -5 6 6 6 11 1 17 -2 13 -5z m473 -45 c0
-11 -4 -17 -10 -14 -6 4 -10 -7 -10 -27 1 -31 1 -32 15 -14 8 11 15 32 15 48
l0 28 71 0 71 0 -26 -31 c-26 -30 -35 -79 -16 -79 10 0 14 20 12 52 -1 9 11
26 27 37 25 18 44 21 130 21 108 0 113 -3 86 -50 -8 -14 -14 -37 -15 -52 l0
-28 -171 0 -170 0 -72 61 c-40 34 -74 63 -76 65 -2 2 28 4 67 4 66 0 72 -2 72
-21z m392 -21 c-7 -7 -12 -29 -12 -50 0 -21 -4 -38 -10 -38 -5 0 -10 11 -10
25 0 30 20 75 34 75 6 0 5 -5 -2 -12z m55 6 c-3 -3 -12 -4 -19 -1 -8 3 -5 6 6
6 11 1 17 -2 13 -5z m40 0 c-3 -3 -12 -4 -19 -1 -8 3 -5 6 6 6 11 1 17 -2 13
-5z m-33 -101 c-4 -49 -8 -90 -10 -92 -1 -2 -14 8 -28 22 -23 23 -26 35 -26
92 l0 65 36 0 35 0 -7 -87z m86 31 c0 -51 -3 -59 -35 -91 -20 -20 -38 -33 -42
-30 -3 3 -2 45 2 92 l7 85 34 0 34 0 0 -56z m-160 -44 c0 -6 -65 -10 -174 -10
-106 0 -177 4 -181 10 -4 7 57 10 174 10 114 0 181 -4 181 -10z m-304 -138
c18 -58 23 -87 15 -90 -16 -5 -14 -22 4 -22 8 0 17 -12 21 -27 9 -44 12 -50
13 -26 1 11 -8 49 -18 83 -12 39 -17 71 -12 88 10 37 3 62 -18 62 -10 0 -23
11 -29 25 l-12 25 151 0 150 0 -1 -172 -2 -173 -66 1 -67 2 65 -7 c62 -6 65
-7 68 -33 l3 -28 -70 0 c-39 0 -80 6 -91 12 -15 10 -22 10 -32 0 -6 -6 -34
-12 -60 -12 -38 0 -48 4 -50 18 -3 36 -5 47 -10 62 -3 8 -14 38 -23 65 -10 28
-33 79 -51 115 -19 35 -34 68 -34 72 0 4 20 8 45 8 l44 0 26 -81 c20 -63 24
-92 19 -130 -5 -40 -4 -49 8 -49 9 0 21 -7 28 -15 7 -8 21 -15 31 -15 14 0 19
7 18 28 -2 23 -2 24 -6 5 -2 -13 -11 -23 -19 -23 -17 0 -30 29 -37 85 -2 22
-8 49 -12 60 -5 16 -5 17 4 5 6 -8 11 -10 11 -4 0 18 -49 156 -64 180 -8 12
-12 25 -8 29 13 13 43 -39 68 -123z m304 80 c0 -19 -5 -29 -15 -29 -10 0 -15
10 -15 29 0 18 5 28 15 28 10 0 15 -10 15 -28z m-293 -64 c-3 -8 -6 -5 -6 6
-1 11 2 17 5 13 3 -3 4 -12 1 -19z m293 -28 c0 -21 -7 -51 -15 -66 -14 -28
-15 -27 -15 43 0 60 3 71 15 67 10 -4 15 -20 15 -44z m-203 -276 c-3 -3 -12
-4 -19 -1 -8 3 -5 6 6 6 11 1 17 -2 13 -5z m843 -90 c0 -10 12 -14 42 -14 23
0 38 -3 35 -7 -4 -3 -2 -12 4 -20 9 -11 2 -13 -42 -13 l-54 0 -3 41 c-2 26 1
38 8 34 5 -3 10 -13 10 -21z"/>
<path d="M3228 2873 c12 -2 32 -2 45 0 12 2 2 4 -23 4 -25 0 -35 -2 -22 -4z"/>
<path d="M1698 1523 c12 -2 32 -2 45 0 12 2 2 4 -23 4 -25 0 -35 -2 -22 -4z"/>
<path d="M2318 1213 c12 -2 30 -2 40 0 9 3 -1 5 -23 4 -22 0 -30 -2 -17 -4z"/>
<path d="M2329 1151 c-35 -36 -37 -70 -5 -107 47 -56 146 -20 146 52 0 34 -51
84 -85 84 -16 0 -38 -12 -56 -29z m106 -6 c28 -27 30 -42 14 -79 -34 -73 -139
-43 -139 40 0 24 47 64 75 64 14 0 37 -11 50 -25z"/>
<path d="M3178 773 c6 -2 18 -2 25 0 6 3 1 5 -13 5 -14 0 -19 -2 -12 -5z"/>
<path d="M3778 3053 c29 -2 74 -2 100 0 26 2 2 3 -53 3 -55 0 -76 -1 -47 -3z"/>
<path d="M3128 3043 c17 -2 47 -2 65 0 17 2 3 4 -33 4 -36 0 -50 -2 -32 -4z"/>
<path d="M4390 2944 c-23 -14 -21 -15 32 -9 50 6 62 3 110 -24 30 -17 60 -31
67 -31 23 0 -116 67 -150 72 -22 4 -44 1 -59 -8z"/>
<path d="M2636 2917 c3 -10 9 -15 12 -12 3 3 0 11 -7 18 -10 9 -11 8 -5 -6z"/>
<path d="M4640 2901 c0 -11 4 -22 9 -25 5 -4 7 3 4 14 -3 12 0 20 7 20 8 0 11
-10 8 -29 -2 -17 -1 -28 4 -25 4 3 8 18 8 35 0 22 -5 29 -20 29 -13 0 -20 -7
-20 -19z"/>
<path d="M2652 2880 c0 -8 4 -26 8 -40 6 -20 8 -21 8 -5 0 11 -3 29 -8 40 -5
12 -8 14 -8 5z"/>
<path d="M2641 2834 c0 -11 3 -14 6 -6 3 7 2 16 -1 19 -3 4 -6 -2 -5 -13z"/>
<path d="M4060 2821 c0 -5 6 -11 13 -14 8 -3 24 -51 38 -117 13 -61 25 -106
27 -100 2 6 -8 62 -23 125 -18 80 -31 115 -41 115 -8 0 -14 -4 -14 -9z"/>
<path d="M2675 2145 c0 -369 1 -518 2 -332 2 186 2 488 0 670 -1 183 -2 31 -2
-338z"/>
<path d="M2565 2140 c0 -366 1 -515 2 -332 2 182 2 482 0 665 -1 182 -2 33 -2
-333z"/>
<path d="M2936 2653 c-19 -81 -38 -168 -40 -193 l-6 -45 11 45 c5 25 26 110
45 189 19 79 33 146 30 148 -2 2 -20 -62 -40 -144z"/>
<path d="M2655 2180 c0 -338 1 -477 2 -307 2 169 2 445 0 615 -1 169 -2 30 -2
-308z"/>
<path d="M3100 2735 c30 -30 57 -55 59 -55 3 0 -19 25 -49 55 -30 30 -57 55
-59 55 -3 0 19 -25 49 -55z"/>
<path d="M3115 2750 c10 -11 20 -20 23 -20 3 0 -3 9 -13 20 -10 11 -20 20 -23
20 -3 0 3 -9 13 -20z"/>
<path d="M3090 2717 c0 -2 15 -16 33 -33 l32 -29 -29 33 c-28 30 -36 37 -36
29z"/>
<path d="M3770 2687 c0 -2 15 -16 33 -33 l32 -29 -29 33 c-28 30 -36 37 -36
29z"/>
<path d="M3815 2670 c10 -11 20 -20 23 -20 3 0 -3 9 -13 20 -10 11 -20 20 -23
20 -3 0 3 -9 13 -20z"/>
<path d="M3865 2590 c10 -11 20 -20 23 -20 3 0 -3 9 -13 20 -10 11 -20 20 -23
20 -3 0 3 -9 13 -20z"/>
<path d="M4140 2562 c0 -7 9 -67 20 -135 10 -67 22 -159 26 -204 4 -46 10 -83
14 -83 3 0 1 51 -6 113 -20 169 -54 367 -54 309z"/>
<path d="M3915 2470 c10 -11 20 -20 23 -20 3 0 -3 9 -13 20 -10 11 -20 20 -23
20 -3 0 3 -9 13 -20z"/>
<path d="M3280 2455 c13 -14 26 -25 28 -25 3 0 -5 11 -18 25 -13 14 -26 25
-28 25 -3 0 5 -11 18 -25z"/>
<path d="M3990 2425 c19 -19 36 -35 39 -35 3 0 -10 16 -29 35 -19 19 -36 35
-39 35 -3 0 10 -16 29 -35z"/>
<path d="M3335 2370 c44 -44 82 -80 85 -80 2 0 -31 36 -75 80 -44 44 -82 80
-85 80 -2 0 31 -36 75 -80z"/>
<path d="M3340 2395 c13 -14 26 -25 28 -25 3 0 -5 11 -18 25 -13 14 -26 25
-28 25 -3 0 5 -11 18 -25z"/>
<path d="M4015 2370 c27 -27 51 -50 54 -50 3 0 -17 23 -44 50 -27 28 -51 50
-54 50 -3 0 17 -22 44 -50z"/>
<path d="M2875 2355 c-3 -31 -5 -59 -2 -61 3 -3 8 20 12 51 3 31 5 59 2 61 -3
3 -8 -20 -12 -51z"/>
<path d="M4000 2355 c13 -14 26 -25 28 -25 3 0 -5 11 -18 25 -13 14 -26 25
-28 25 -3 0 5 -11 18 -25z"/>
<path d="M3340 2337 c0 -1 35 -36 78 -77 l77 -75 -75 78 c-69 71 -80 82 -80
74z"/>
<path d="M4150 2290 c0 -5 5 -10 10 -10 6 0 10 5 10 10 0 6 -4 10 -10 10 -5 0
-10 -4 -10 -10z"/>
<path d="M2863 2245 c0 -22 2 -30 4 -17 2 12 2 30 0 40 -3 9 -5 -1 -4 -23z"/>
<path d="M3470 2175 c35 -36 67 -65 69 -65 3 0 -24 29 -59 65 -35 36 -67 65
-69 65 -3 0 24 -29 59 -65z"/>
<path d="M4293 2228 c-6 -7 -13 -30 -17 -50 -5 -30 -12 -37 -34 -41 -15 -2 5
-4 43 -5 47 0 64 2 50 8 -19 8 -19 9 3 9 16 1 22 7 22 24 0 12 3 32 6 45 6 20
3 22 -29 22 -19 0 -39 -6 -44 -12z m37 -34 c0 -23 -4 -34 -12 -32 -33 11 -36
68 -3 68 11 0 15 -10 15 -36z m23 4 c-8 -46 -13 -48 -13 -5 0 21 4 37 10 37 5
0 7 -14 3 -32z m-46 -54 c-3 -3 -12 -4 -19 -1 -8 3 -5 6 6 6 11 1 17 -2 13 -5z"/>
<path d="M2841 2075 c-7 -71 -11 -157 -9 -190 4 -58 4 -57 6 17 1 43 7 122 13
177 6 56 9 106 6 113 -2 7 -9 -45 -16 -117z"/>
<path d="M3500 2177 c0 -2 15 -16 33 -33 l32 -29 -29 33 c-28 30 -36 37 -36
29z"/>
<path d="M2970 2085 c35 -36 67 -65 69 -65 3 0 -24 29 -59 65 -35 36 -67 65
-69 65 -3 0 24 -29 59 -65z"/>
<path d="M3485 2130 c10 -11 20 -20 23 -20 3 0 -3 9 -13 20 -10 11 -20 20 -23
20 -3 0 3 -9 13 -20z"/>
<path d="M2950 2137 c0 -2 15 -16 33 -33 l32 -29 -29 33 c-28 30 -36 37 -36
29z"/>
<path d="M4385 2120 c24 -6 18 -8 -32 -9 -64 -1 -73 -7 -109 -67 -11 -18 -13
-18 -56 4 -42 20 -57 22 -204 20 l-159 -2 171 -5 c145 -5 175 -9 191 -23 11
-10 27 -18 37 -18 13 0 16 -5 11 -20 -4 -11 -2 -20 4 -20 6 0 11 -6 11 -13 0
-8 24 -18 62 -26 270 -56 534 -283 632 -543 55 -146 72 -353 42 -510 -57 -296
-271 -552 -552 -662 -49 -20 -83 -35 -76 -36 27 0 183 70 243 110 95 65 194
164 260 263 32 49 59 93 59 98 0 5 14 9 30 9 20 0 30 -5 30 -15 0 -8 8 -15 18
-14 10 0 12 3 5 6 -32 12 -7 23 56 23 49 0 72 -4 81 -15 7 -8 24 -14 39 -14
24 2 24 2 3 6 -13 3 -26 11 -29 19 -4 10 -25 14 -87 14 -71 0 -84 3 -100 22
-15 18 -16 20 -2 15 9 -4 16 -2 16 3 0 6 -4 10 -10 10 -5 0 -10 8 -10 17 0 14
3 13 16 -5 9 -13 13 -30 10 -38 -4 -9 -2 -12 5 -8 6 3 9 18 6 31 -5 25 -4 26
54 20 34 -3 57 -1 53 4 -3 5 -30 9 -60 9 -41 0 -54 4 -54 15 0 10 10 15 30 15
45 0 36 49 -9 53 -19 1 -21 6 -16 27 13 55 17 289 6 355 -9 51 -9 70 0 81 16
20 36 17 42 -6 3 -11 12 -20 21 -20 26 0 20 -38 -6 -42 -13 -2 15 -3 62 -3 80
1 85 2 88 23 4 28 17 28 36 1 18 -26 36 -17 36 20 0 47 -55 78 -129 73 -42 -3
-43 -4 -37 -32 6 -34 0 -40 -37 -33 -19 4 -27 11 -27 25 0 18 -5 19 -34 14
l-33 -6 -28 75 c-32 87 -103 202 -182 293 -30 34 -49 62 -41 62 7 0 33 9 57
21 l45 20 -45 45 c-54 55 -154 117 -263 160 -77 32 -81 35 -89 70 -10 49 -24
64 -56 63 -25 -1 -25 -2 4 -9z m16 -42 c1 -22 1 -22 8 2 l7 25 7 -25 c4 -14 7
-32 7 -40 0 -13 -1 -13 -10 0 -6 10 -10 11 -10 3 0 -9 -22 -13 -75 -13 -41 0
-75 4 -75 9 0 4 9 20 21 35 17 22 28 26 70 26 44 0 49 -2 50 -22z m117 -88
c93 -36 182 -90 248 -149 62 -55 38 -49 -102 25 -107 57 -279 119 -363 130
-83 11 -58 24 44 24 82 0 106 -4 173 -30z m-152 -20 c140 -35 335 -125 355
-162 7 -14 17 -18 32 -14 12 3 28 1 36 -3 9 -6 -1 -13 -34 -24 l-47 -17 -42
34 c-67 53 -153 103 -222 127 -43 15 -63 27 -60 36 6 14 -10 18 -18 4 -9 -13
-106 10 -106 25 0 18 12 18 106 -6z m892 -657 c6 -9 12 -28 11 -42 l0 -26 -16
23 c-20 29 -41 28 -55 -4 -9 -19 -17 -24 -32 -20 -12 3 -33 6 -48 6 -16 0 -28
5 -28 10 0 6 6 10 13 10 7 0 24 15 37 33 13 17 17 26 8 20 -8 -7 -18 -10 -21
-6 -17 17 -2 22 56 17 43 -3 66 -9 75 -21z m-220 -501 c2 -8 -8 -12 -29 -12
-31 0 -32 1 -13 15 21 16 36 15 42 -3z"/>
<path d="M3015 2010 c38 -38 72 -70 74 -70 3 0 -26 32 -64 70 -38 39 -72 70
-74 70 -3 0 26 -31 64 -70z"/>
<path d="M3748 2053 c12 -2 32 -2 45 0 12 2 2 4 -23 4 -25 0 -35 -2 -22 -4z"/>
<path d="M1903 2043 c15 -2 39 -2 55 0 15 2 2 4 -28 4 -30 0 -43 -2 -27 -4z"/>
<path d="M1808 2033 c12 -2 32 -2 45 0 12 2 2 4 -23 4 -25 0 -35 -2 -22 -4z"/>
<path d="M1708 2023 c12 -2 32 -2 45 0 12 2 2 4 -23 4 -25 0 -35 -2 -22 -4z"/>
<path d="M1500 2000 c-63 -9 -101 -18 -85 -18 17 0 84 8 150 18 66 9 104 18
85 18 -19 0 -87 -8 -150 -18z"/>
<path d="M2193 1955 c0 -27 2 -38 4 -22 2 15 2 37 0 50 -2 12 -4 0 -4 -28z"/>
<path d="M1329 1976 c-2 -2 -24 -7 -49 -10 -132 -18 -433 -77 -426 -83 2 -3
73 9 158 26 146 28 247 45 258 44 3 -1 30 5 60 12 33 8 44 14 29 14 -14 1 -28
-1 -30 -3z"/>
<path d="M3085 1910 c38 -38 72 -70 74 -70 3 0 -26 32 -64 70 -38 39 -72 70
-74 70 -3 0 26 -31 64 -70z"/>
<path d="M3980 1910 c-19 -3 21 -4 90 -2 260 10 458 -66 636 -243 100 -99 166
-209 215 -355 10 -30 18 -48 18 -39 1 9 -7 40 -18 70 -97 284 -345 504 -633
563 -78 16 -242 19 -308 6z"/>
<path d="M3826 1870 c-262 -98 -450 -295 -536 -565 -18 -57 -23 -97 -25 -220
l-3 -150 7 150 c7 123 13 164 35 228 52 154 120 262 234 369 89 84 187 142
310 184 53 19 88 34 77 33 -11 0 -55 -13 -99 -29z"/>
<path d="M1316 1838 c-8 -69 -6 -205 4 -243 5 -18 8 36 9 133 0 89 -1 162 -3
162 -2 0 -6 -24 -10 -52z"/>
<path d="M3100 1865 c13 -14 26 -25 28 -25 3 0 -5 11 -18 25 -13 14 -26 25
-28 25 -3 0 5 -11 18 -25z"/>
<path d="M725 1857 c-44 -11 -75 -22 -70 -23 6 -2 51 7 100 20 50 13 81 24 70
24 -11 0 -56 -9 -100 -21z"/>
<path d="M1260 1725 c0 -85 3 -155 8 -155 4 0 7 70 7 155 0 85 -3 155 -7 155
-5 0 -8 -70 -8 -155z"/>
<path d="M1214 1720 c0 -85 2 -120 3 -77 2 42 2 112 0 155 -1 42 -3 7 -3 -78z"/>
<path d="M2211 1844 c0 -11 3 -14 6 -6 3 7 2 16 -1 19 -3 4 -6 -2 -5 -13z"/>
<path d="M605 1825 c-5 -2 -36 -11 -69 -21 l-58 -16 -40 -87 c-22 -47 -49
-111 -60 -141 -12 -30 -25 -60 -30 -67 -5 -6 -8 -49 -7 -95 2 -84 14 -123 56
-177 79 -101 116 -141 133 -141 10 0 22 -5 25 -10 5 -7 -31 -10 -109 -8 -84 1
-117 6 -120 15 -3 7 -12 13 -20 13 -12 0 -15 -16 -14 -90 2 -78 4 -90 19 -90
9 0 20 7 23 16 5 14 4 15 -9 4 -12 -10 -15 -10 -15 4 0 9 7 16 15 16 16 0 65
-91 65 -121 0 -14 14 -16 98 -16 l97 1 -86 3 -85 4 -31 69 c-24 54 -36 70 -52
70 -14 0 -21 6 -21 20 0 19 7 20 251 20 235 0 251 -1 244 -17 -3 -10 -18 -48
-32 -85 l-26 -67 -66 -4 -66 -3 68 -2 c65 -2 68 -1 79 26 16 37 18 38 28 22 7
-11 10 -7 10 15 0 50 39 175 78 250 25 48 62 96 122 155 112 112 220 169 385
204 18 3 17 4 -3 5 -73 4 -252 -76 -336 -150 -19 -16 -36 -29 -39 -29 -4 0 -8
35 -10 78 l-3 77 0 -88 1 -87 -56 0 c-91 0 -94 5 -140 225 -29 139 -45 195
-60 210 -16 17 -36 21 -119 23 -121 5 -133 21 -37 51 34 10 55 19 47 19 -8 0
-19 -1 -25 -3z m-103 -57 c-6 -6 -15 -8 -19 -4 -4 4 -1 11 7 16 19 12 27 3 12
-12z m212 -32 c18 -8 36 -23 39 -35 5 -21 3 -21 -154 -21 -87 0 -159 2 -159 5
0 4 7 19 15 35 l16 30 105 0 c67 0 117 -5 138 -14z m52 -103 c4 -21 8 -46 10
-55 3 -17 -12 -18 -189 -18 -128 0 -187 4 -177 10 11 7 12 10 2 10 -15 0 -9
31 14 68 14 21 19 22 174 22 l159 0 7 -37z m17 -90 c2 -5 7 -25 11 -45 l7 -38
-221 0 c-240 0 -230 -3 -209 59 l11 31 198 0 c110 0 201 -3 203 -7z m-255
-105 c5 -7 16 -32 22 -55 20 -66 8 -73 -109 -72 -109 2 -83 16 32 18 75 1 81
9 53 76 l-15 34 -83 4 -83 3 86 2 c59 1 90 -2 97 -10z m291 -58 c10 -50 17
-62 41 -75 16 -8 50 -15 75 -15 l47 0 -40 -45 c-22 -25 -56 -77 -76 -115 -31
-58 -41 -70 -62 -70 l-24 0 0 129 0 129 -105 -2 c-101 -1 -105 0 -105 20 0 12
-7 40 -15 63 l-14 41 133 0 133 0 12 -60z m-309 26 c23 -61 23 -61 -70 -61
-75 0 -85 2 -84 18 1 9 2 28 3 42 1 24 3 25 71 25 65 0 71 -2 80 -24z m260
-142 l0 -34 -184 0 -184 0 -21 33 -20 32 92 5 c51 3 143 4 205 2 l112 -3 0
-35z m0 -126 l0 -78 -92 0 c-66 1 -99 5 -112 15 -11 8 -28 15 -37 15 -14 0
-109 104 -109 120 0 3 79 5 175 5 l175 0 0 -77z m-185 -89 c136 0 242 -4 235
-9 -7 -4 -9 -13 -6 -19 5 -8 -63 -11 -248 -11 l-256 0 0 31 c0 25 3 29 13 21
8 -7 100 -12 262 -13z"/>
<path d="M3140 1827 c0 -2 15 -16 33 -33 l32 -29 -29 33 c-28 30 -36 37 -36
29z"/>
<path d="M3185 1810 c10 -11 20 -20 23 -20 3 0 -3 9 -13 20 -10 11 -20 20 -23
20 -3 0 3 -9 13 -20z"/>
<path d="M3240 1725 c13 -14 26 -25 28 -25 3 0 -5 11 -18 25 -13 14 -26 25
-28 25 -3 0 5 -11 18 -25z"/>
<path d="M1827 1719 c-7 -27 1 -49 18 -49 23 0 28 20 10 40 -13 14 -13 19 -3
23 9 4 8 6 -3 6 -9 1 -19 -8 -22 -20z m30 -35 c-9 -9 -28 6 -21 18 4 6 10 6
17 -1 6 -6 8 -13 4 -17z"/>
<path d="M2388 1655 c2 -19 7 -35 11 -35 4 0 5 16 3 35 -2 19 -7 35 -11 35 -4
0 -5 -16 -3 -35z"/>
<path d="M2424 1676 c-9 -23 0 -51 17 -54 19 -4 32 23 24 49 -7 22 -33 25 -41
5z m31 -21 c0 -10 -6 -20 -12 -22 -8 -3 -13 5 -13 22 0 17 5 25 13 23 6 -3 12
-13 12 -23z"/>
<path d="M2303 1575 c0 -44 2 -61 4 -37 2 23 2 59 0 80 -2 20 -4 1 -4 -43z"/>
<path d="M974 1500 c0 -63 1 -89 3 -57 2 31 2 83 0 115 -2 31 -3 5 -3 -58z"/>
<path d="M1693 1583 c15 -2 39 -2 55 0 15 2 2 4 -28 4 -30 0 -43 -2 -27 -4z"/>
<path d="M3985 1541 c-216 -62 -365 -256 -365 -476 0 -129 47 -243 142 -341
65 -68 171 -128 243 -138 38 -6 38 -5 -8 8 -131 38 -257 137 -311 244 -99 196
-66 415 88 567 187 187 469 193 668 15 72 -64 133 -181 147 -280 7 -56 9 -59
10 -22 0 23 -8 71 -20 105 -82 247 -348 389 -594 318z"/>
<path d="M4088 1513 c12 -2 32 -2 45 0 12 2 2 4 -23 4 -25 0 -35 -2 -22 -4z"/>
<path d="M1448 1503 c23 -2 61 -2 85 0 23 2 4 4 -43 4 -47 0 -66 -2 -42 -4z"/>
<path d="M3963 1491 c-67 -24 -126 -66 -186 -130 -90 -96 -132 -237 -108 -367
6 -38 17 -76 22 -84 9 -12 10 -11 5 4 -4 11 -12 50 -18 87 -23 135 23 271 126
374 65 64 130 101 211 121 28 7 39 13 25 13 -14 0 -48 -8 -77 -18z"/>
<path d="M4215 1497 c118 -31 219 -107 279 -210 80 -136 73 -335 -15 -463 -68
-99 -180 -174 -289 -194 l-55 -9 53 4 c149 12 305 147 353 307 32 103 24 230
-19 322 -59 127 -196 236 -312 251 l-45 5 50 -13z"/>
<path d="M1235 1417 c-146 -64 -265 -172 -332 -303 -43 -83 -74 -178 -72 -224
0 -14 7 5 14 41 43 215 197 396 413 485 31 13 50 23 42 23 -8 0 -38 -10 -65
-22z"/>
<path d="M3012 1395 c0 -16 2 -22 5 -12 2 9 2 23 0 30 -3 6 -5 -1 -5 -18z"/>
<path d="M4210 1334 c0 -8 5 -12 10 -9 6 4 8 11 5 16 -9 14 -15 11 -15 -7z"/>
<path d="M3920 1290 c0 -5 5 -10 10 -10 6 0 10 5 10 10 0 6 -4 10 -10 10 -5 0
-10 -4 -10 -10z"/>
<path d="M185 1276 c-46 -20 -54 -36 -59 -117 l-5 -74 9 63 c5 34 12 72 15 83
8 23 61 49 97 48 16 0 10 -5 -18 -13 -55 -17 -64 -24 -57 -42 4 -11 13 -14 32
-9 36 9 73 34 66 45 -13 21 16 8 62 -28 54 -43 114 -123 97 -129 -18 -6 -50
-32 -39 -32 6 -1 21 8 34 18 l24 18 -21 36 c-27 42 -98 109 -140 131 -37 19
-57 20 -97 2z m75 -22 c0 -5 -63 -34 -75 -34 -15 0 -2 22 18 30 25 10 57 13
57 4z"/>
<path d="M3120 1265 c-8 -9 -8 -15 -2 -15 6 0 13 -12 15 -27 3 -20 4 -15 6 15
1 46 -1 49 -19 27z"/>
<path d="M4942 1225 c0 -16 2 -22 5 -12 2 9 2 23 0 30 -3 6 -5 -1 -5 -18z"/>
<path d="M2921 1214 c0 -11 3 -14 6 -6 3 7 2 16 -1 19 -3 4 -6 -2 -5 -13z"/>
<path d="M4096 1223 c-11 -11 -6 -23 9 -23 8 0 15 4 15 9 0 13 -16 22 -24 14z"/>
<path d="M225 1199 c-10 -15 3 -25 16 -12 7 7 7 13 1 17 -6 3 -14 1 -17 -5z"/>
<path d="M4180 1190 c0 -5 7 -10 15 -10 8 0 15 5 15 10 0 6 -7 10 -15 10 -8 0
-15 -4 -15 -10z"/>
<path d="M4010 1179 c0 -6 7 -8 17 -5 13 5 10 0 -7 -19 -18 -19 -25 -39 -26
-71 -1 -30 -8 -49 -19 -58 -14 -10 -15 -15 -5 -21 7 -4 16 -2 21 6 5 8 9 9 9
3 0 -18 41 -55 52 -48 6 4 8 3 5 -3 -4 -6 0 -14 9 -17 41 -16 132 4 118 26 -4
7 -3 8 4 4 15 -9 44 37 36 60 -5 18 -5 18 6 2 12 -19 40 -25 40 -8 0 6 -7 10
-15 10 -9 0 -15 10 -15 26 0 57 -52 126 -82 108 -6 -4 -8 -3 -5 3 4 7 -11 11
-43 11 -30 0 -47 -4 -44 -10 4 -6 -3 -5 -14 1 -26 14 -42 14 -42 0z m94 -21
c5 -10 7 -10 12 0 9 19 24 14 24 -9 0 -16 5 -20 26 -17 19 2 31 -4 41 -19 14
-21 14 -23 0 -23 -8 0 -17 -6 -20 -12 -2 -8 -10 -1 -17 15 -7 15 -17 27 -22
27 -5 0 -6 -5 -2 -12 4 -7 3 -8 -5 -4 -6 4 -9 12 -5 17 4 7 -7 9 -27 7 -25 -2
-33 -8 -36 -27 -3 -20 -1 -22 11 -12 8 7 25 11 38 9 19 -2 23 -9 22 -35 -1
-21 2 -31 9 -26 6 4 7 1 3 -8 -4 -8 1 -4 11 9 17 21 21 22 32 8 11 -13 11 -16
-3 -16 -9 0 -16 -4 -16 -10 0 -5 5 -10 11 -10 5 0 7 -5 4 -10 -5 -8 -11 -7
-20 0 -20 16 -38 2 -33 -25 4 -18 1 -21 -14 -17 -23 6 -23 17 1 41 22 22 18
31 -14 31 -18 0 -20 -5 -17 -34 2 -20 -1 -37 -9 -41 -9 -6 -10 -1 -5 19 5 20
2 28 -11 33 -9 4 -19 1 -21 -5 -2 -7 -8 -10 -12 -7 -5 3 -7 12 -3 20 3 10 -1
15 -13 15 -18 1 -18 1 0 15 19 14 16 45 -4 45 -14 0 -12 11 5 34 11 15 17 16
28 7 11 -9 17 -8 27 3 6 9 9 20 5 26 -3 5 -2 10 4 10 5 0 12 -6 15 -12z"/>
<path d="M4057 1103 c-11 -10 -8 -65 3 -58 5 3 7 0 4 -8 -3 -8 2 -17 10 -20
17 -7 15 18 -4 53 -6 11 -8 25 -5 30 7 11 2 13 -8 3z"/>
<path d="M4952 1080 c-1 -63 -4 -133 -7 -155 l-5 -40 10 40 c6 22 9 91 7 155
l-3 115 -2 -115z"/>
<path d="M2642 1003 l-2 -183 243 2 242 3 -237 2 -238 3 -3 178 -2 177 -3
-182z"/>
<path d="M220 1160 c0 -5 7 -10 16 -10 8 0 12 5 9 10 -3 6 -10 10 -16 10 -5 0
-9 -4 -9 -10z"/>
<path d="M1532 1155 c129 -27 222 -96 275 -203 24 -50 28 -69 28 -147 0 -77
-4 -98 -27 -147 -51 -110 -151 -188 -265 -208 -38 -6 -41 -8 -16 -9 98 -3 237
98 289 211 25 55 29 75 29 153 0 82 -3 97 -33 157 -18 36 -51 82 -73 103 -54
49 -150 92 -219 99 l-55 5 67 -14z"/>
<path d="M1365 1142 c-102 -44 -154 -91 -201 -184 -22 -42 -28 -71 -32 -138
-2 -47 0 -95 5 -107 5 -14 8 15 8 80 0 90 3 109 27 159 47 100 144 176 252
198 35 7 36 8 11 8 -16 1 -48 -7 -70 -16z"/>
<path d="M1395 1127 c-22 -8 -54 -21 -70 -29 -45 -24 -123 -112 -147 -165 -23
-53 -34 -144 -22 -191 7 -25 9 -12 9 55 0 76 4 96 28 144 112 229 424 253 564
45 32 -47 44 -81 58 -160 3 -21 8 -36 11 -34 9 10 -19 125 -41 168 -31 60 -99
124 -160 151 -61 27 -173 35 -230 16z"/>
<path d="M4240 1120 c0 -5 5 -10 10 -10 6 0 10 5 10 10 0 6 -4 10 -10 10 -5 0
-10 -4 -10 -10z"/>
<path d="M3960 1105 c0 -8 5 -15 10 -15 6 0 10 7 10 15 0 8 -4 15 -10 15 -5 0
-10 -7 -10 -15z"/>
<path d="M4390 1109 c0 -5 5 -7 10 -4 6 3 10 8 10 11 0 2 -4 4 -10 4 -5 0 -10
-5 -10 -11z"/>
<path d="M3203 1065 c0 -22 2 -30 4 -17 2 12 2 30 0 40 -3 9 -5 -1 -4 -23z"/>
<path d="M1362 1059 c-186 -93 -217 -333 -61 -473 49 -44 126 -76 183 -76 91
0 197 59 246 137 122 192 -13 443 -239 443 -56 0 -79 -6 -129 -31z m238 0 c49
-22 112 -77 104 -91 -3 -4 -1 -8 5 -8 16 0 52 -76 45 -94 -3 -9 -10 -16 -15
-16 -11 0 -12 17 -1 23 4 2 2 3 -5 1 -10 -2 -26 33 -27 61 -1 11 -57 65 -68
65 -4 0 -5 7 -2 15 4 10 0 15 -12 13 -33 -3 -84 14 -84 28 0 8 -4 14 -10 14
-5 0 -10 -4 -10 -10 0 -5 -16 -10 -35 -10 -21 0 -35 5 -35 13 0 8 -4 7 -10 -3
-5 -8 -10 -10 -10 -4 0 20 13 24 69 24 34 0 73 -8 101 -21z m-180 -2 c0 -19
-48 -39 -73 -31 -19 6 -18 8 14 25 41 22 59 24 59 6z m141 -27 c48 -13 118
-75 140 -124 24 -54 24 -148 0 -201 -31 -69 -116 -135 -173 -135 -18 0 -20 -2
-8 -9 8 -6 17 -8 21 -5 4 2 10 -2 12 -8 4 -9 6 -8 6 3 2 29 81 48 81 19 0 -12
-78 -40 -95 -34 -8 4 -15 1 -15 -6 0 -9 -16 -11 -58 -8 -64 6 -144 42 -180 81
-21 22 -21 25 -6 31 21 8 54 -20 54 -46 0 -10 5 -18 10 -18 6 0 10 4 10 9 0 5
18 2 40 -6 22 -9 40 -22 40 -30 0 -8 5 -11 10 -8 22 14 8 32 -35 43 -97 26
-177 152 -161 254 24 150 161 238 307 198z m-231 -22 c0 6 5 12 11 12 6 0 -2
-15 -18 -34 -15 -19 -35 -34 -43 -33 -10 1 -14 -5 -12 -19 3 -24 -21 -86 -34
-84 -5 1 -10 -3 -12 -9 -2 -6 2 -11 8 -11 7 0 10 -13 9 -33 -2 -18 0 -38 5
-45 10 -16 -2 -15 -20 2 -33 34 -3 165 53 227 27 30 38 37 44 27 7 -10 9 -10
9 0z m440 -205 c0 -28 -3 -34 -16 -29 -9 3 -18 6 -20 6 -10 0 -3 59 9 63 20 7
27 -2 27 -40z m-14 -75 c-4 -18 -22 -56 -41 -84 -25 -39 -40 -51 -58 -51 l-25
0 30 33 c17 18 34 31 39 29 4 -3 10 -1 13 4 4 5 2 12 -3 16 -17 10 24 85 47
85 3 0 2 -15 -2 -32z m-489 -28 c8 -22 8 -32 -1 -39 -9 -8 -17 -1 -29 25 -21
43 -21 44 1 44 10 0 22 -12 29 -30z m23 -50 c0 -5 -4 -10 -10 -10 -5 0 -10 5
-10 10 0 6 5 10 10 10 6 0 10 -4 10 -10z"/>
<path d="M1494 985 c4 -10 -1 -15 -15 -15 -29 0 -84 -25 -108 -49 -16 -16 -21
-17 -21 -6 0 17 -16 20 -25 5 -3 -6 0 -13 9 -16 12 -5 13 -10 1 -37 -7 -18
-19 -32 -26 -32 -7 0 -14 -6 -16 -12 -3 -7 2 -13 10 -13 17 0 33 -63 17 -68
-13 -5 -13 -32 0 -32 6 0 10 8 10 18 0 11 6 7 19 -14 11 -18 25 -35 31 -39 9
-6 9 -10 -1 -16 -7 -4 -10 -11 -6 -16 5 -4 12 -1 16 6 7 10 13 10 29 2 11 -6
29 -11 39 -11 10 1 1 7 -20 14 -50 18 -62 30 -88 82 -64 134 78 273 211 206
50 -25 80 -74 80 -134 0 -75 -43 -139 -106 -158 -25 -7 -26 -8 -6 -9 12 -1 22
-5 22 -11 0 -5 7 -10 16 -10 10 0 14 5 10 15 -3 10 7 29 29 50 37 37 50 80 43
145 -2 28 0 40 9 40 7 0 13 5 13 11 0 6 -8 9 -17 7 -11 -3 -27 6 -41 24 -13
15 -19 28 -13 28 6 0 11 7 11 15 0 17 -12 19 -26 5 -15 -15 -74 7 -67 26 3 9
-1 14 -12 14 -11 0 -15 -5 -11 -15z"/>
<path d="M1400 975 c0 -9 5 -15 11 -13 6 2 11 8 11 13 0 5 -5 11 -11 13 -6 2
-11 -4 -11 -13z"/>
<path d="M1660 785 c0 -9 5 -15 11 -13 6 2 11 8 11 13 0 5 -5 11 -11 13 -6 2
-11 -4 -11 -13z"/>
<path d="M1557 714 c-8 -8 1 -24 14 -24 5 0 9 7 9 15 0 15 -12 20 -23 9z"/>
<path d="M1630 695 c0 -8 5 -15 10 -15 6 0 10 7 10 15 0 8 -4 15 -10 15 -5 0
-10 -7 -10 -15z"/>
<path d="M1460 615 c0 -8 5 -15 10 -15 6 0 10 7 10 15 0 8 -4 15 -10 15 -5 0
-10 -7 -10 -15z"/>
<path d="M111 1054 c0 -11 3 -14 6 -6 3 7 2 16 -1 19 -3 4 -6 -2 -5 -13z"/>
<path d="M2688 1063 c17 -2 47 -2 65 0 17 2 3 4 -33 4 -36 0 -50 -2 -32 -4z"/>
<path d="M2763 1043 c26 -2 67 -2 90 0 23 2 2 3 -48 3 -49 0 -68 -1 -42 -3z"/>
<path d="M4592 1018 c-3 -49 -34 -148 -65 -200 -57 -97 -181 -189 -300 -223
-45 -13 -47 -15 -13 -11 54 7 172 66 225 112 87 76 168 243 158 326 l-4 33 -1
-37z"/>
<path d="M2868 1023 c23 -2 59 -2 80 0 20 2 1 4 -43 4 -44 0 -61 -2 -37 -4z"/>
<path d="M3820 1020 c0 -5 5 -10 10 -10 6 0 10 5 10 10 0 6 -4 10 -10 10 -5 0
-10 -4 -10 -10z"/>
<path d="M2948 1003 c23 -2 59 -2 80 0 20 2 1 4 -43 4 -44 0 -61 -2 -37 -4z"/>
<path d="M4196 963 c-11 -11 -6 -23 9 -23 8 0 15 4 15 9 0 13 -16 22 -24 14z"/>
<path d="M181 938 c1 -17 2 -19 6 -5 5 21 53 24 53 3 0 -8 -5 -17 -10 -19 -6
-3 -5 -4 2 -3 7 1 14 12 16 24 3 19 -1 22 -32 22 -31 0 -36 -3 -35 -22z"/>
<path d="M4025 949 c-10 -15 3 -25 16 -12 7 7 7 13 1 17 -6 3 -14 1 -17 -5z"/>
<path d="M121 934 c-2 -32 24 -90 32 -71 3 9 0 21 -8 27 -8 6 -16 24 -18 38
-3 21 -4 22 -6 6z"/>
<path d="M4110 920 c0 -5 5 -10 10 -10 6 0 10 5 10 10 0 6 -4 10 -10 10 -5 0
-10 -4 -10 -10z"/>
<path d="M3700 884 c0 -21 59 -101 108 -147 50 -46 160 -107 192 -107 8 0 -11
11 -43 24 -100 42 -162 92 -219 180 -21 33 -38 55 -38 50z"/>
<path d="M4921 832 c-22 -83 -96 -225 -158 -303 -108 -135 -269 -241 -433
-285 -37 -10 -126 -20 -205 -24 l-140 -7 113 -1 c346 -5 621 165 780 484 39
77 70 170 60 179 -2 2 -10 -17 -17 -43z"/>
<path d="M160 862 c0 -13 126 -54 152 -49 19 4 18 5 -7 6 -16 1 -54 12 -83 26
-60 28 -62 28 -62 17z"/>
<path d="M783 805 c0 -27 2 -38 4 -22 2 15 2 37 0 50 -2 12 -4 0 -4 -28z"/>
<path d="M823 805 c0 -27 2 -38 4 -22 2 15 2 37 0 50 -2 12 -4 0 -4 -28z"/>
<path d="M4285 840 c3 -5 8 -10 11 -10 2 0 4 5 4 10 0 6 -5 10 -11 10 -5 0 -7
-4 -4 -10z"/>
<path d="M348 803 c6 -2 18 -2 25 0 6 3 1 5 -13 5 -14 0 -19 -2 -12 -5z"/>
<path d="M4000 800 c0 -5 5 -10 10 -10 6 0 10 5 10 10 0 6 -4 10 -10 10 -5 0
-10 -4 -10 -10z"/>
<path d="M2625 790 l-40 -8 47 1 c26 1 50 -2 54 -6 14 -14 26 -7 14 8 -13 16
-14 16 -75 5z"/>
<path d="M5127 794 c-15 -15 -6 -30 18 -32 26 -2 34 13 13 21 -7 3 6 6 30 6
l42 1 0 -37 c1 -50 23 -81 45 -63 8 7 15 19 15 26 0 8 7 14 15 14 21 0 19 -53
-2 -73 -10 -8 -36 -17 -58 -20 l-40 -4 43 -1 c53 -2 82 23 82 71 0 19 -3 36
-6 40 -11 11 -36 -6 -45 -31 -13 -34 -31 -16 -38 40 l-6 43 -50 3 c-28 2 -54
0 -58 -4z"/>
<path d="M2858 773 c6 -2 18 -2 25 0 6 3 1 5 -13 5 -14 0 -19 -2 -12 -5z"/>
<path d="M3013 773 c15 -2 37 -2 50 0 12 2 0 4 -28 4 -27 0 -38 -2 -22 -4z"/>
<path d="M1811 754 c-4 -70 -71 -178 -137 -223 -19 -14 -59 -33 -87 -42 -29
-10 -43 -18 -31 -19 38 0 142 60 183 107 43 48 85 143 78 177 -4 21 -4 21 -6
0z"/>
<path d="M2331 754 c0 -11 3 -14 6 -6 3 7 2 16 -1 19 -3 4 -6 -2 -5 -13z"/>
<path d="M4145 747 c-22 -17 -12 -37 20 -37 26 0 39 22 22 39 -14 14 -19 14
-42 -2z m35 -7 c0 -5 -7 -10 -16 -10 -8 0 -12 5 -9 10 3 6 10 10 16 10 5 0 9
-4 9 -10z"/>
<path d="M5126 751 c-3 -5 1 -11 9 -15 8 -3 15 -1 15 4 0 13 -18 22 -24 11z"/>
<path d="M791 720 c-2 -66 49 -215 102 -299 90 -142 276 -277 422 -305 17 -4
0 5 -37 18 -106 39 -184 85 -256 151 -117 109 -188 238 -217 395 -9 49 -13 63
-14 40z"/>
<path d="M831 715 c-3 -105 81 -278 188 -386 66 -66 188 -149 217 -149 5 0
-24 19 -65 41 -112 62 -207 162 -265 280 -31 61 -52 121 -61 169 -7 41 -14 61
-14 45z"/>
<path d="M5195 730 c3 -5 8 -10 11 -10 2 0 4 5 4 10 0 6 -5 10 -11 10 -5 0 -7
-4 -4 -10z"/>
<path d="M2340 714 c0 -10 5 -26 10 -34 8 -11 9 -7 4 15 -8 37 -14 45 -14 19z"/>
<path d="M1176 680 c17 -65 102 -157 176 -190 27 -12 77 -23 115 -25 l68 -4
-70 10 c-126 17 -219 83 -274 192 -12 23 -19 31 -15 17z"/>
<path d="M1151 675 c-1 -5 12 -33 29 -61 52 -91 153 -160 248 -169 l47 -5 -55
13 c-30 7 -72 21 -93 31 -53 26 -121 94 -151 152 -14 27 -25 45 -25 39z"/>
<path d="M2381 654 c-14 -32 -14 -31 9 -37 17 -4 20 0 20 23 0 38 -14 45 -29
14z m19 -9 c0 -8 -4 -15 -10 -15 -5 0 -7 7 -4 15 4 8 8 15 10 15 2 0 4 -7 4
-15z"/>
<path d="M4033 623 c9 -2 25 -2 35 0 9 3 1 5 -18 5 -19 0 -27 -2 -17 -5z"/>
<path d="M4078 573 c17 -2 47 -2 65 0 17 2 3 4 -33 4 -36 0 -50 -2 -32 -4z"/>
<path d="M3415 299 c3 -24 1 -30 -10 -25 -8 3 -15 1 -15 -5 0 -6 8 -9 18 -7
11 2 18 14 19 36 1 17 -3 32 -7 32 -5 0 -7 -14 -5 -31z"/>
<path d="M3895 235 c22 -8 51 -13 65 -13 14 0 0 6 -30 13 -69 18 -88 17 -35 0z"/>
<path d="M2046 232 c-3 -5 1 -9 9 -9 8 0 15 4 15 9 0 4 -4 8 -9 8 -6 0 -12 -4
-15 -8z"/>
<path d="M2058 198 c18 -18 14 -31 -8 -25 -11 3 -18 1 -14 -4 7 -12 31 -12 38
0 8 13 -4 41 -17 41 -7 0 -7 -4 1 -12z"/>
<path d="M3925 176 c28 -8 70 -14 95 -14 45 1 45 1 -10 8 -30 4 -73 10 -95 13
-35 5 -33 4 10 -7z"/>
<path d="M4294 184 c-7 -3 -41 -9 -75 -13 -56 -7 -58 -9 -19 -9 25 0 68 6 95
13 28 7 41 13 30 13 -11 0 -25 -2 -31 -4z"/>
<path d="M622 113 c0 -38 3 -54 5 -37 3 22 11 34 26 39 l22 8 -22 4 c-34 7
-30 41 5 46 25 4 25 4 -5 6 l-33 1 2 -67z"/>
<path d="M703 115 c0 -38 2 -53 4 -32 2 20 2 52 0 70 -2 17 -4 1 -4 -38z"/>
<path d="M741 161 c-28 -51 0 -112 49 -108 26 2 30 6 30 30 0 27 -24 47 -38
32 -4 -4 -1 -10 6 -12 16 -6 15 -30 -2 -36 -22 -8 -36 14 -36 55 0 46 25 62
47 32 14 -19 15 -19 11 1 -5 28 -53 33 -67 6z"/>
<path d="M938 173 c16 -6 16 -95 0 -111 -9 -9 -5 -12 17 -11 17 0 24 3 18 6
-9 3 -13 26 -13 64 0 50 -3 59 -17 58 -11 0 -13 -3 -5 -6z"/>
<path d="M1260 170 c8 -5 22 -9 30 -9 10 0 8 3 -5 9 -27 12 -43 12 -25 0z"/>
<path d="M1750 155 c-14 -8 -20 -14 -15 -14 6 0 21 6 35 14 14 8 21 14 15 14
-5 0 -21 -6 -35 -14z"/>
<path d="M1325 150 c19 -8 83 -14 74 -6 -2 2 -24 6 -49 9 -30 4 -38 3 -25 -3z"/>
<path d="M1600 150 c-34 -7 -34 -7 -5 -8 17 0 39 3 50 8 24 10 4 10 -45 0z"/>
<path d="M1448 133 c23 -2 59 -2 80 0 20 2 1 4 -43 4 -44 0 -61 -2 -37 -4z"/>
<path d="M1645 120 c-13 -5 -14 -9 -5 -9 8 0 24 4 35 9 13 5 14 9 5 9 -8 0
-24 -4 -35 -9z"/>
<path d="M1363 103 c9 -2 25 -2 35 0 9 3 1 5 -18 5 -19 0 -27 -2 -17 -5z"/>
<path d="M1573 103 c9 -2 25 -2 35 0 9 3 1 5 -18 5 -19 0 -27 -2 -17 -5z"/>
<path d="M1458 93 c17 -2 47 -2 65 0 17 2 3 4 -33 4 -36 0 -50 -2 -32 -4z"/>
<path d="M840 60 c0 -5 5 -10 10 -10 6 0 10 5 10 10 0 6 -4 10 -10 10 -5 0
-10 -4 -10 -10z"/>
</g>
</svg>
