<?xml version="1.0" standalone="no"?>
<!DOCTYPE svg PUBLIC "-//W3C//DTD SVG 20010904//EN"
 "http://www.w3.org/TR/2001/REC-SVG-20010904/DTD/svg10.dtd">
<svg version="1.0" xmlns="http://www.w3.org/2000/svg"
 width="295.000000pt" height="137.000000pt" viewBox="0 0 295.000000 137.000000"
 preserveAspectRatio="xMidYMid meet">
<metadata>
Created by potrace 1.10, written by Peter Selinger 2001-2011
</metadata>
<g transform="translate(0.000000,137.000000) scale(0.100000,-0.100000)"
fill="#000000" stroke="none">
<path d="M2410 1142 c-58 -75 -106 -139 -107 -142 -2 -3 11 -13 28 -23 18 -10
29 -20 26 -23 -3 -4 -18 3 -33 15 -26 20 -44 20 -44 0 0 -6 5 -7 10 -4 6 4 22
0 35 -9 l25 -16 -48 -63 c-26 -34 -49 -64 -52 -67 -3 -3 -21 -25 -40 -50 -18
-25 -37 -49 -41 -53 -7 -9 -261 176 -268 194 -2 6 8 23 21 37 18 20 112 142
154 201 2 1 19 -10 40 -25 20 -16 31 -30 25 -32 -6 -2 -11 -8 -11 -14 0 -6 6
-6 15 2 12 10 25 4 73 -34 55 -44 80 -57 68 -37 -4 5 -1 11 5 13 6 2 -17 23
-50 47 -59 43 -60 44 -44 68 9 13 13 26 10 29 -3 3 -11 -5 -18 -18 -6 -12 -13
-25 -15 -27 -2 -2 -23 13 -48 33 -24 20 -53 36 -64 36 -11 0 -32 10 -47 21
-15 13 -30 18 -33 12 -34 -49 -205 -263 -211 -263 -20 0 -18 16 6 48 l26 35
-23 19 c-22 18 -23 18 -47 -14 -13 -18 -30 -33 -37 -33 -23 0 -46 -26 -46 -51
0 -24 42 -60 58 -50 4 2 28 -12 52 -33 41 -35 44 -42 43 -82 -1 -24 -2 -52 -4
-61 -3 -19 -15 -24 -21 -8 -2 5 -20 5 -48 -2 -25 -6 -101 -10 -169 -9 -71 2
-126 -1 -130 -7 -3 -5 -20 -13 -37 -16 -27 -6 -32 -4 -30 11 1 16 -11 18 -131
21 l-131 3 -11 31 c-6 17 -14 29 -17 25 -3 -3 -1 -14 5 -25 6 -12 11 -23 11
-26 0 -3 -85 -6 -189 -6 l-190 0 -4 43 -4 42 -1 -42 -2 -43 -70 0 c-40 0 -70
-4 -70 -10 0 -6 -30 -10 -69 -10 l-69 0 -10 33 c-6 17 -13 81 -16 142 -3 60
-11 114 -16 119 -6 6 -10 29 -10 53 0 38 -3 43 -22 43 -21 0 -21 1 7 30 16 17
24 30 17 30 -6 0 -21 -13 -34 -30 -13 -18 -31 -30 -45 -30 -22 0 -23 -3 -23
-87 0 -49 -9 -131 -20 -183 -12 -56 -20 -135 -20 -192 0 -100 -10 -125 -35
-92 -8 11 -15 14 -15 8 0 -6 6 -17 14 -23 8 -7 17 -43 21 -87 6 -63 4 -84 -11
-116 -17 -37 -17 -41 0 -87 15 -43 15 -52 2 -91 -15 -43 -12 -70 6 -70 6 0 5
6 -2 15 -14 17 -20 14 81 40 47 12 92 34 153 76 l88 59 133 0 c73 0 140 3 148
6 12 4 17 -3 20 -28 l4 -33 1 33 2 32 154 0 153 0 11 -32 12 -33 -5 33 -4 32
57 1 c31 0 89 4 127 8 64 8 73 6 100 -14 52 -38 88 -52 153 -59 84 -9 94 -14
87 -40 -6 -19 -5 -19 14 4 11 13 17 28 15 32 -3 4 -1 8 5 8 18 0 21 -18 4 -24
-14 -6 -14 -8 3 -20 17 -13 22 -11 47 20 l29 34 26 -18 c16 -12 53 -21 93 -25
36 -3 91 -16 123 -27 59 -23 86 -17 86 17 0 10 7 12 20 9 11 -3 29 -9 40 -12
11 -3 20 -1 20 5 0 5 -15 11 -32 13 -23 2 -32 7 -29 18 2 8 10 40 18 70 10 36
13 77 10 117 -7 73 3 86 68 86 32 0 53 -7 79 -27 20 -15 36 -33 36 -40 0 -19
26 -38 55 -42 28 -3 76 51 53 58 -9 3 -4 17 16 42 27 36 27 38 10 51 -26 20
-29 19 -58 -17 -14 -18 -28 -29 -32 -26 -3 4 39 66 95 138 55 72 101 135 101
141 0 6 -11 20 -25 31 -14 11 -25 25 -25 33 0 7 -52 52 -116 99 l-115 87 28
37 c15 20 50 67 78 103 l51 66 24 -26 c58 -63 121 -155 155 -226 21 -42 39
-74 42 -72 14 15 -118 232 -184 302 l-29 30 24 33 c14 17 20 32 16 31 -5 0
-56 -62 -114 -137z m-392 42 c12 -8 32 -17 44 -19 27 -6 98 -54 98 -68 0 -9
-18 3 -58 41 -7 6 -17 12 -20 12 -4 0 -50 -54 -101 -120 -52 -66 -97 -120
-102 -120 -23 0 -11 23 52 105 94 121 111 145 105 145 -2 0 -44 -51 -92 -112
-96 -124 -113 -147 -100 -136 11 9 38 -11 31 -23 -3 -4 -13 -5 -22 -2 -12 5
-14 3 -8 -8 4 -8 6 -12 2 -9 -3 3 -6 10 -7 15 -1 6 -6 15 -12 22 -6 8 -6 16 1
25 61 74 189 248 182 248 -5 0 -11 -3 -14 -7 -2 -5 -2 -1 0 7 5 18 4 17 -76
-83 -34 -43 -59 -83 -55 -89 4 -6 3 -8 -3 -5 -13 8 -49 -42 -45 -62 2 -7 -1
-10 -6 -7 -11 6 -10 -19 0 -30 4 -3 4 -11 2 -18 -3 -7 4 -17 14 -22 50 -24
361 -269 352 -278 -9 -9 -111 63 -330 232 -52 41 -102 77 -110 82 -12 7 -12
10 0 25 12 14 12 18 0 25 -15 9 -56 -18 -45 -28 3 -3 11 3 19 13 8 12 15 14
20 7 3 -6 -3 -16 -14 -22 -16 -8 -25 -7 -42 5 -14 9 -17 15 -8 15 11 0 11 3 2
12 -15 15 3 49 22 42 8 -3 24 7 37 25 13 17 27 30 33 28 13 -4 16 -36 4 -44
-7 -4 -8 -1 -4 8 4 8 1 5 -8 -5 -8 -10 -13 -23 -9 -29 4 -6 1 -7 -6 -3 -18 12
-61 15 -61 5 0 -5 5 -9 11 -9 5 0 7 -6 4 -12 -3 -7 0 -5 7 4 11 15 14 15 39
-3 18 -13 26 -27 25 -42 -2 -17 3 -22 21 -23 l24 -2 -22 19 c-12 10 -17 19
-11 19 7 0 12 4 12 10 0 11 192 260 200 260 3 0 16 -7 28 -16z m-84 -99 c-31
-41 -58 -75 -61 -75 -7 0 7 20 60 88 68 87 69 78 1 -13z m342 -72 c-6 -6 -106
69 -106 79 0 5 25 -10 55 -33 31 -23 54 -44 51 -46z m-1974 27 c-2 -22 -8 -40
-13 -40 -5 0 -9 18 -9 40 0 26 5 40 13 40 9 0 11 -12 9 -40z m30 5 c-2 -20 0
-35 6 -35 6 0 13 17 15 38 l4 37 1 -42 c2 -40 0 -43 -23 -43 -22 0 -25 4 -25
33 0 32 6 47 20 47 3 0 4 -16 2 -35z m1509 -78 l-24 -22 19 27 c10 14 21 24
23 22 3 -3 -6 -15 -18 -27z m-1490 -9 c0 -27 2 -29 8 -13 5 11 6 26 4 33 -3 6
0 12 6 12 6 0 11 -16 11 -35 0 -31 -3 -35 -25 -35 -21 0 -25 5 -27 33 l-1 32
-4 -32 c-3 -25 -9 -33 -24 -33 -15 0 -19 7 -19 35 0 33 2 35 35 35 33 0 35 -2
36 -32z m2099 -69 c73 -56 99 -79 86 -79 -2 0 -11 6 -18 13 -7 7 -46 36 -85
66 -40 29 -73 55 -73 57 0 10 16 0 90 -57z m23 -45 c61 -47 113 -88 114 -92 2
-4 -44 -68 -101 -142 -91 -117 -102 -136 -88 -146 13 -10 20 -6 42 22 26 35
42 39 46 11 1 -9 -1 -15 -6 -12 -8 5 -24 -23 -22 -36 1 -4 -7 -5 -17 -2 -14 3
-18 -1 -17 -18 0 -12 7 -24 15 -27 10 -3 12 0 8 12 -4 10 -3 15 3 11 16 -10
12 -24 -14 -40 -20 -14 -28 -14 -45 -3 -12 7 -21 16 -21 21 0 4 10 1 23 -8 13
-8 26 -12 30 -9 11 11 -3 24 -18 17 -20 -7 -19 14 1 25 14 8 10 13 -20 31 -20
13 -36 26 -36 29 1 16 29 43 34 33 4 -5 -1 -14 -10 -19 -9 -5 -12 -12 -7 -15
5 -3 14 3 21 13 7 12 8 21 2 25 -8 5 57 98 163 233 5 6 7 12 4 12 -3 0 -45
-51 -93 -112 -48 -62 -89 -115 -91 -117 -2 -3 -8 0 -14 6 -9 9 -1 24 27 60 22
26 41 50 44 53 23 23 100 130 93 130 -5 0 -46 -49 -91 -110 -78 -104 -102
-124 -117 -100 -4 6 33 62 81 126 48 63 85 116 83 118 -2 2 -42 -48 -89 -110
-47 -62 -90 -113 -96 -114 -6 0 -17 7 -24 15 -10 12 -2 28 46 90 73 95 116
155 111 155 -3 0 -44 -51 -93 -114 l-88 -114 -37 30 -38 30 67 87 c92 119 117
151 120 151 1 0 53 -38 115 -86z m-2143 -11 c0 -43 3 -88 6 -100 6 -22 3 -23
-43 -23 -57 0 -55 -10 -27 128 14 65 18 72 40 72 23 0 24 -2 24 -77z m35 -97
c8 -17 8 -18 18 0 10 17 11 17 18 -1 4 -11 8 -35 8 -54 1 -29 -2 -33 -19 -28
-11 3 -20 1 -20 -3 0 -5 33 -10 72 -12 65 -3 74 -5 85 -27 6 -14 9 -30 5 -35
-4 -6 -8 1 -10 16 -2 17 -11 30 -23 33 -11 4 -22 5 -24 3 -1 -1 -5 -29 -7 -61
-5 -56 -3 -59 29 -87 21 -19 44 -30 61 -29 l27 2 -25 5 -25 5 25 8 c23 8 22 8
-5 5 -17 -3 -37 -1 -45 5 -11 6 -1 9 31 9 l46 0 1 -36 c2 -42 12 -61 12 -22 0
35 14 38 90 19 48 -11 120 -15 272 -16 113 0 204 -3 201 -7 -2 -5 38 -8 89 -8
l94 0 39 40 c21 22 37 41 34 44 -2 2 -24 7 -48 10 -24 3 -47 9 -50 12 -3 3 17
3 44 0 28 -4 62 -6 78 -6 37 0 44 -22 22 -70 -13 -29 -16 -51 -11 -85 5 -32 3
-51 -6 -62 -11 -14 -11 -15 2 -11 11 4 15 20 15 64 0 32 6 76 13 97 8 21 11
48 8 61 -5 19 2 26 40 44 54 26 62 27 86 5 15 -13 18 -32 18 -104 0 -48 3 -94
6 -103 3 -9 39 -41 80 -71 41 -31 74 -58 74 -60 0 -11 -44 -55 -54 -55 -6 0
-3 7 6 14 16 12 16 14 -7 26 -20 11 -22 16 -14 32 6 11 8 22 5 25 -2 3 -12
-12 -21 -33 -11 -28 -18 -35 -27 -26 -6 6 -25 9 -42 7 -29 -4 -29 -4 -6 5 18
7 9 8 -35 4 -46 -4 -57 -3 -45 6 12 9 10 11 -11 6 -18 -4 -33 0 -46 12 -10 9
-12 13 -3 7 13 -9 13 -8 2 7 -8 9 -19 15 -26 12 -7 -3 -19 2 -26 11 -10 12
-37 15 -144 15 -88 0 -126 -3 -116 -10 13 -8 12 -10 -4 -10 -11 0 -30 10 -43
22 -21 20 -34 13 -13 -7 6 -7 -27 -10 -88 -9 -53 1 -147 -1 -209 -5 -61 -3
-109 -3 -106 1 7 13 -174 9 -204 -4 -15 -7 -46 -27 -68 -44 -22 -17 -62 -43
-90 -57 -27 -14 -46 -26 -42 -27 14 0 91 42 127 70 66 51 93 60 182 58 l83 -2
-90 -5 c-92 -6 -115 -14 -175 -62 -58 -46 -145 -82 -183 -74 -24 5 -28 4 -17
-4 12 -9 11 -11 -7 -11 -20 0 -21 3 -11 30 8 24 6 42 -6 79 -14 45 -14 53 0
86 10 24 15 65 14 114 0 42 2 120 6 174 l6 97 61 0 c65 0 80 -5 90 -30 3 -8 5
1 5 20 0 19 -2 30 -4 24 -8 -19 -42 -4 -48 19 -3 12 -5 58 -4 102 l1 80 7 -80
c4 -44 11 -88 15 -99z m25 102 c0 -40 -4 -79 -9 -86 -4 -7 -7 21 -6 65 2 76 2
76 -5 18 l-7 -60 -1 68 c-2 54 1 67 13 67 12 0 15 -15 15 -72z m1635 -50 c81
-60 132 -105 126 -111 -5 -5 -59 29 -132 85 -68 52 -131 97 -139 102 -28 14
45 -45 187 -151 78 -59 141 -109 139 -111 -3 -2 -83 56 -180 129 -159 118
-174 133 -159 145 10 7 19 14 21 14 1 0 63 -46 137 -102z m-165 -17 c0 -31
-24 -70 -37 -58 -4 5 -8 32 -8 61 0 53 0 53 23 38 14 -9 22 -24 22 -41z m275
-237 c-16 -17 -36 -29 -44 -26 -10 4 -5 13 18 34 17 15 27 28 23 28 -5 0 -21
-11 -35 -24 l-26 -24 -98 75 c-54 41 -106 81 -117 88 -17 13 -17 15 -2 36 9
13 16 33 16 46 0 19 22 6 148 -90 l148 -112 -31 -31z m-1485 166 c0 -6 -12 -8
-27 -5 l-28 5 28 -11 c25 -10 27 -15 27 -65 l0 -54 -42 1 -43 2 40 7 40 7 -39
2 c-41 1 -43 12 -3 17 12 1 25 3 30 3 13 2 7 38 -8 51 -13 11 -18 10 -29 -6
-8 -10 -12 -24 -9 -31 3 -7 0 -13 -6 -13 -6 0 -11 11 -11 25 0 14 6 25 13 25
8 0 9 3 1 8 -6 4 -11 15 -11 25 0 13 9 17 39 17 21 0 38 -5 38 -10z m46 -27
c-2 -21 -12 -54 -20 -73 l-15 -35 0 50 c-1 36 2 46 9 35 8 -13 10 -12 10 3 0
9 -4 17 -10 17 -5 0 -10 9 -10 20 0 14 7 20 21 20 18 0 20 -4 15 -37z m402
-31 c2 -42 -1 -62 -7 -57 -6 3 -9 0 -6 -7 4 -10 -10 -12 -62 -8 l-68 4 60 7
60 7 -65 -2 c-36 -1 -74 -6 -84 -11 -14 -6 -17 -5 -12 3 5 9 -12 13 -61 14
-37 1 0 5 82 8 l150 6 -188 0 c-119 -1 -186 -5 -185 -11 3 -11 12 -11 47 0 15
5 21 4 17 -3 -4 -6 7 -12 26 -15 18 -2 -1 -5 -42 -8 -45 -2 2 -5 114 -9 139
-4 190 -8 194 -17 2 -9 -7 -13 -30 -12 l-33 1 30 8 c17 4 -55 8 -169 9 -181 1
-197 2 -185 17 7 9 14 23 15 32 10 67 -5 62 207 64 154 2 171 3 87 7 l-105 5
105 6 c84 5 66 6 -85 6 -134 0 -165 -2 -105 -6 l85 -6 -87 -2 c-82 -2 -88 -1
-88 18 0 19 6 20 193 17 l192 -2 3 -63z m132 58 c0 -6 -27 -10 -60 -10 -33 0
-60 4 -60 10 0 6 27 10 60 10 33 0 60 -4 60 -10z m120 0 c0 -5 -25 -10 -55
-10 -30 0 -55 5 -55 10 0 6 25 10 55 10 30 0 55 -4 55 -10z m487 -12 c15 -17
14 -18 -10 -18 -14 0 -29 -4 -32 -10 -3 -5 -15 -10 -27 -10 -17 0 -18 2 -8 15
7 8 20 15 29 16 10 0 6 4 -9 10 -16 7 -32 7 -47 0 -13 -6 -31 -7 -40 -4 -15 6
-14 8 7 14 46 13 120 6 137 -13z m-376 -5 c1 -17 2 -17 6 0 2 9 13 17 24 17
18 0 18 -2 4 -24 -19 -29 -11 -70 17 -90 18 -13 17 -15 -21 -34 -37 -20 -49
-21 -151 -13 -130 9 -156 21 -46 21 67 0 77 2 74 17 -2 14 -14 16 -70 14 l-68
-2 0 35 0 36 60 0 c57 0 60 -1 60 -25 0 -22 -4 -24 -52 -28 l-53 -4 55 0 c67
-1 130 -12 130 -24 0 -5 17 -9 38 -8 20 0 30 3 22 6 -8 3 -18 11 -22 17 -5 8
-8 7 -8 -1 0 -7 -4 -13 -10 -13 -6 0 -10 27 -10 60 0 33 4 60 10 60 6 0 11 -8
11 -17z m247 -16 c54 -28 66 -58 21 -52 -16 2 -27 0 -24 -5 3 -5 12 -7 19 -4
8 3 16 1 19 -3 9 -14 -36 -13 -53 1 -18 15 -63 19 -54 5 3 -5 14 -7 24 -4 10
3 22 0 26 -6 5 -9 2 -10 -9 -6 -19 7 -23 -8 -6 -19 6 -3 15 -1 19 6 5 8 10 9
14 1 4 -7 15 -7 31 -1 44 17 37 -8 -24 -88 -64 -82 -69 -92 -47 -92 24 0 38
-26 21 -40 -30 -25 -42 -5 -44 71 -1 71 -1 72 18 55 16 -15 19 -15 24 -2 4 9
1 18 -5 22 -7 4 -8 3 -4 -4 4 -7 3 -12 -1 -12 -15 0 -33 23 -33 42 0 10 -9 27
-21 39 -18 18 -19 25 -10 45 12 26 -3 74 -23 74 -6 0 -5 -5 2 -12 20 -20 14
-65 -10 -82 -27 -19 -38 -19 -59 -3 -30 23 -32 55 -6 81 22 22 32 24 87 21 40
-3 79 -13 108 -28z m-1149 -57 c-1 -67 -4 -78 -15 -69 -17 14 -19 33 -2 23 16
-10 1 57 -17 75 -9 10 -30 14 -54 12 -32 -2 -39 1 -44 18 -5 20 -1 21 64 21
l70 0 -2 -80z m1201 66 c-6 -8 -18 -12 -27 -9 -12 5 -12 7 -1 14 7 5 19 9 27
9 11 0 11 -3 1 -14z m-540 -31 l0 -35 -55 0 -55 0 0 35 0 35 55 0 55 0 0 -35z
m103 28 c-18 -2 -48 -2 -65 0 -18 2 -4 4 32 4 36 0 50 -2 33 -4z m90 0 c-15
-3 -23 -12 -23 -24 0 -22 -15 -25 -24 -4 -6 17 20 35 49 33 17 -1 17 -1 -2 -5z
m795 -22 c20 -18 29 -31 23 -35 -13 -9 -83 43 -75 55 8 14 16 11 52 -20z
m-207 -88 l125 -94 -7 -63 c-9 -75 -27 -129 -63 -191 -22 -37 -31 -45 -48 -39
-11 3 -40 9 -65 12 l-45 7 76 99 c42 54 76 102 76 107 0 24 -24 48 -129 127
-134 102 -153 114 -132 89 9 -11 10 -17 2 -17 -6 0 -11 -4 -11 -9 0 -5 8 -7
18 -4 10 2 24 -3 32 -12 12 -15 11 -16 -13 -10 -17 5 -27 3 -27 -4 0 -6 6 -8
14 -5 8 3 17 0 21 -7 6 -9 1 -10 -19 -7 -14 3 -26 1 -26 -3 0 -18 49 -9 60 11
10 18 16 15 96 -46 67 -53 82 -69 73 -80 -6 -7 -9 -19 -6 -26 3 -8 8 -4 14 11
6 14 12 20 16 14 9 -15 -2 -43 -17 -43 -7 0 -17 5 -23 11 -8 8 -11 5 -12 -12
-1 -54 -6 -66 -47 -116 -23 -29 -44 -58 -47 -65 -7 -20 -43 5 -39 27 2 10 -1
14 -7 10 -6 -3 -11 -1 -11 5 0 6 -5 8 -12 4 -9 -6 -9 -9 0 -12 7 -2 12 -9 12
-15 0 -6 -11 0 -25 13 -25 23 -25 43 -1 34 7 -3 16 2 20 12 5 14 4 15 -9 4
-12 -10 -15 -10 -15 1 0 8 -4 7 -13 -5 -15 -21 -49 -12 -40 11 4 11 2 14 -5 9
-7 -4 -26 3 -43 14 -30 22 -30 22 -10 37 26 18 26 28 1 53 -18 18 -19 23 -8
39 7 10 16 19 21 20 4 0 6 2 5 4 -4 5 53 80 66 89 8 5 7 14 -2 28 -8 14 -9 20
-1 20 8 0 8 4 1 13 -12 14 12 34 58 47 31 9 21 15 171 -97z m-571 77 c0 -11
-7 -20 -15 -20 -8 0 -15 9 -15 20 0 11 7 20 15 20 8 0 15 -9 15 -20z m-807
-16 c-4 -11 -8 -12 -20 -3 -11 10 -11 14 -1 20 17 10 28 2 21 -17z m-112 -38
c10 -36 37 -66 61 -66 10 0 18 -4 18 -10 0 -12 -75 -13 -98 -1 -13 7 -16 20
-14 61 4 55 21 63 33 16z m1763 15 c10 -10 13 -22 8 -25 -12 -7 -54 23 -47 35
9 14 20 11 39 -10z m-847 3 c-3 -3 -12 -4 -19 -1 -8 3 -5 6 6 6 11 1 17 -2 13
-5z m-257 -14 l-55 -7 50 -3 50 -3 -50 -7 -50 -7 50 -3 50 -3 -44 -4 c-56 -5
-71 1 -64 26 5 18 12 21 62 19 l56 -1 -55 -7z m1080 -20 c0 -15 -5 -12 -26 11
-19 22 -19 22 4 10 12 -6 22 -16 22 -21z m-16 -8 c2 -4 2 -13 -2 -19 -5 -8
-14 -5 -30 8 -28 22 -21 45 8 29 10 -6 21 -14 24 -18z m-956 11 c-10 -2 -28
-2 -40 0 -13 2 -5 4 17 4 22 1 32 -1 23 -4z m70 0 c-10 -2 -26 -2 -35 0 -10 3
-2 5 17 5 19 0 27 -2 18 -5z m972 -8 c18 -22 6 -29 -22 -14 -21 11 -22 11 -9
-4 16 -20 2 -23 -19 -4 -8 6 -7 3 3 -9 20 -24 12 -38 -14 -23 -27 14 -24 31 9
51 35 21 37 21 52 3z m-1677 -12 c-13 -2 -35 -2 -50 0 -16 2 -5 4 22 4 28 0
40 -2 28 -4z m472 -13 c18 -8 17 -9 -7 -9 -16 -1 -28 4 -28 9 0 12 8 12 35 0z
m1084 1 c11 -7 10 -11 -5 -20 -17 -11 -17 -11 4 -6 14 4 33 0 48 -10 20 -13
28 -14 40 -4 12 10 18 9 31 -4 20 -20 11 -33 -14 -22 -10 4 -25 9 -33 10 -8 2
-31 6 -50 9 -19 4 -27 3 -18 -1 15 -7 13 -10 -13 -22 -39 -17 -64 0 -33 24 10
8 15 15 10 15 -5 0 -17 -7 -27 -16 -10 -9 -19 -11 -23 -6 -3 6 8 22 25 36 34
29 38 30 58 17z m161 -16 c0 -9 -6 -12 -17 -8 -11 5 -14 3 -8 -6 6 -10 3 -11
-14 -2 -24 13 -29 26 -7 18 8 -3 17 1 20 9 7 18 26 9 26 -11z m-1687 8 c-7 -2
-21 -2 -30 0 -10 3 -4 5 12 5 17 0 24 -2 18 -5z m65 0 c-10 -2 -26 -2 -35 0
-10 3 -2 5 17 5 19 0 27 -2 18 -5z m65 0 c-7 -2 -21 -2 -30 0 -10 3 -4 5 12 5
17 0 24 -2 18 -5z m60 0 c-7 -2 -21 -2 -30 0 -10 3 -4 5 12 5 17 0 24 -2 18
-5z m70 0 c-7 -2 -21 -2 -30 0 -10 3 -4 5 12 5 17 0 24 -2 18 -5z m60 0 c-7
-2 -21 -2 -30 0 -10 3 -4 5 12 5 17 0 24 -2 18 -5z m190 0 c-7 -2 -21 -2 -30
0 -10 3 -4 5 12 5 17 0 24 -2 18 -5z m60 -4 c-8 -8 -16 -8 -30 0 -16 9 -14 10
12 11 21 0 26 -3 18 -11z m60 -6 c-7 -2 -21 -2 -30 0 -10 3 -4 5 12 5 17 0 24
-2 18 -5z m-107 -19 c-3 -9 -6 -20 -6 -26 0 -9 -37 -9 -315 7 -377 21 -367 35
26 35 270 0 301 -2 295 -16z m100 5 c38 -1 77 -5 87 -8 17 -6 17 -8 -2 -25
-18 -16 -32 -18 -97 -13 -42 3 -78 7 -80 9 -6 7 8 48 15 43 4 -2 38 -5 77 -6z
m-605 -24 c3 -2 66 -7 140 -9 74 -3 195 -9 269 -13 128 -7 132 -7 71 -15 -37
-4 -71 -3 -82 2 -10 6 -39 9 -66 9 -47 -2 -47 -2 -13 -9 30 -7 29 -7 -10 -3
-55 5 -47 5 -154 -1 -90 -5 -112 3 -34 11 24 3 45 7 47 9 9 9 -82 3 -99 -6
-12 -7 -34 -5 -70 6 -29 9 -61 13 -71 11 -11 -3 -19 -1 -19 4 0 9 83 13 91 4z
m1669 -39 c-13 -13 -35 7 -25 24 5 8 11 8 21 -1 10 -8 12 -15 4 -23z m-205
-17 c-2 -10 0 -21 4 -23 4 -3 8 -26 8 -53 1 -46 1 -47 -7 -13 -8 31 -8 29 -5
-15 2 -27 -1 -67 -7 -88 -10 -33 -15 -37 -34 -33 -16 4 -26 -1 -38 -22 -17
-26 -17 -26 1 -7 10 11 26 19 35 17 15 -3 16 -7 7 -25 -7 -12 -13 -23 -14 -25
-3 -3 -65 19 -65 24 0 2 11 22 24 43 34 53 66 155 66 207 0 34 3 42 14 38 8
-3 13 -14 11 -25z m-805 11 c-8 -5 -51 -9 -95 -8 -69 1 -74 2 -35 8 73 11 147
11 130 0z m1045 1 c7 -12 -12 -24 -25 -16 -11 7 -4 25 10 25 5 0 11 -4 15 -9z
m-375 -74 c0 -2 -10 -12 -21 -23 -22 -19 -22 -19 -8 4 12 19 29 30 29 19z
m-787 -84 c-7 -2 -19 -2 -25 0 -7 3 -2 5 12 5 14 0 19 -2 13 -5z"/>
<path d="M2487 645 c-48 -63 -87 -117 -87 -121 0 -3 41 46 91 111 50 64 89
119 87 121 -2 2 -43 -48 -91 -111z"/>
<path d="M238 493 c7 -3 16 -2 19 1 4 3 -2 6 -13 5 -11 0 -14 -3 -6 -6z"/>
<path d="M1518 483 c6 -2 18 -2 25 0 6 3 1 5 -13 5 -14 0 -19 -2 -12 -5z"/>
<path d="M1545 470 c-19 -8 -19 -9 3 -9 12 -1 22 4 22 9 0 6 -1 10 -2 9 -2 0
-12 -4 -23 -9z"/>
<path d="M1568 443 c6 -2 18 -2 25 0 6 3 1 5 -13 5 -14 0 -19 -2 -12 -5z"/>
<path d="M1588 423 c7 -3 16 -2 19 1 4 3 -2 6 -13 5 -11 0 -14 -3 -6 -6z"/>
<path d="M1390 375 c-7 -25 -10 -48 -7 -51 3 -3 9 10 12 30 4 20 11 33 16 30
5 -3 9 4 9 15 0 36 -17 23 -30 -24z"/>
<path d="M557 393 c-4 -3 -7 -13 -7 -20 0 -12 3 -12 15 1 8 8 15 17 15 20 0 8
-15 7 -23 -1z"/>
<path d="M595 391 c-3 -6 -3 -16 1 -23 5 -8 2 -9 -9 -5 -10 4 -16 2 -14 -6 1
-7 -4 -11 -10 -9 -7 1 -13 -2 -13 -8 0 -6 7 -10 15 -10 8 0 15 6 15 13 0 8 3
8 9 -2 14 -23 40 -5 38 25 -2 29 -20 43 -32 25z m25 -41 c0 -5 -4 -10 -10 -10
-5 0 -10 5 -10 10 0 6 5 10 10 10 6 0 10 -4 10 -10z"/>
<path d="M1490 380 c0 -5 9 -10 20 -10 11 0 20 5 20 10 0 6 -9 10 -20 10 -11
0 -20 -4 -20 -10z"/>
<path d="M1530 350 c14 -4 32 -8 40 -9 13 -1 13 0 0 9 -8 5 -26 9 -40 9 l-25
-1 25 -8z"/>
<path d="M816 305 c4 -8 8 -15 10 -15 2 0 4 7 4 15 0 8 -4 15 -10 15 -5 0 -7
-7 -4 -15z"/>
<path d="M1568 313 c6 -2 18 -2 25 0 6 3 1 5 -13 5 -14 0 -19 -2 -12 -5z"/>
<path d="M1494 282 c11 -12 35 -26 55 -31 49 -12 138 -21 120 -11 -7 4 -41 10
-73 13 -39 4 -71 14 -90 28 l-31 22 19 -21z"/>
<path d="M1598 293 c6 -2 18 -2 25 0 6 3 1 5 -13 5 -14 0 -19 -2 -12 -5z"/>
<path d="M350 264 c-19 -13 -53 -29 -75 -36 -22 -6 -34 -13 -27 -15 16 -6 142
56 142 68 0 12 0 12 -40 -17z"/>
<path d="M300 194 c-30 -13 -48 -24 -40 -24 22 0 100 32 100 41 0 5 -1 8 -2 8
-2 -1 -28 -12 -58 -25z"/>
<path d="M278 143 c7 -3 16 -2 19 1 4 3 -2 6 -13 5 -11 0 -14 -3 -6 -6z"/>
<path d="M1832 763 c-15 -48 -8 -55 8 -8 7 20 10 38 8 41 -3 2 -10 -13 -16
-33z"/>
<path d="M1461 634 c0 -11 3 -14 6 -6 3 7 2 16 -1 19 -3 4 -6 -2 -5 -13z"/>
<path d="M1524 655 c-9 -23 3 -45 25 -45 10 0 21 7 25 15 8 23 -4 45 -25 45
-11 0 -22 -7 -25 -15z m41 -15 c0 -8 -8 -16 -17 -18 -13 -2 -18 3 -18 18 0 15
5 20 18 18 9 -2 17 -10 17 -18z"/>
<path d="M1625 580 c4 -6 11 -8 16 -5 14 9 11 15 -7 15 -8 0 -12 -5 -9 -10z"/>
<path d="M1660 374 c0 -8 5 -12 10 -9 6 3 10 10 10 16 0 5 -4 9 -10 9 -5 0
-10 -7 -10 -16z"/>
<path d="M527 673 c-4 -3 -7 -11 -7 -17 0 -6 5 -5 12 2 6 6 9 14 7 17 -3 3 -9
2 -12 -2z"/>
<path d="M1143 663 c15 -2 37 -2 50 0 12 2 0 4 -28 4 -27 0 -38 -2 -22 -4z"/>
<path d="M1861 528 c9 -7 14 -20 12 -28 -4 -11 -2 -12 4 -2 7 10 14 8 28 -8
10 -11 23 -20 29 -20 12 0 -38 45 -69 61 -17 9 -18 8 -4 -3z"/>
<path d="M1837 503 c-4 -3 -7 -11 -7 -17 0 -6 5 -5 12 2 6 6 9 14 7 17 -3 3
-9 2 -12 -2z"/>
<path d="M1807 493 c-4 -3 -7 -11 -7 -17 0 -6 5 -5 12 2 6 6 9 14 7 17 -3 3
-9 2 -12 -2z"/>
<path d="M1740 475 c-7 -9 -11 -17 -9 -20 3 -2 10 5 17 15 14 24 10 26 -8 5z"/>
<path d="M1775 479 c-4 -6 -5 -12 -2 -15 2 -3 7 2 10 11 7 17 1 20 -8 4z"/>
<path d="M2082 413 c-13 -76 -34 -123 -83 -185 -32 -41 -30 -53 2 -15 58 68
108 200 97 255 -2 9 -9 -16 -16 -55z"/>
<path d="M1803 460 c-32 -13 -55 -63 -44 -93 12 -31 48 -57 80 -57 21 0 23 -4
19 -32 -3 -18 -2 -44 1 -57 6 -23 7 -23 24 -7 19 19 22 36 8 36 -5 0 -12 -8
-14 -17 -4 -14 -5 -14 -6 3 0 12 9 29 22 38 l22 17 -24 -12 c-21 -10 -23 -9
-18 5 3 8 2 18 -3 21 -5 3 2 16 16 30 59 59 -5 155 -83 125z m81 -32 c21 -30
20 -50 -5 -82 -25 -31 -57 -33 -87 -6 -26 25 -29 66 -5 92 23 26 78 24 97 -4z"/>
<path d="M1802 418 c-25 -25 -6 -68 30 -68 10 0 18 -6 18 -12 0 -7 7 0 16 17
11 22 13 35 5 52 -12 25 -49 31 -69 11z m57 -17 c13 -23 3 -35 -16 -19 -11 8
-12 7 -7 -6 4 -10 1 -16 -9 -16 -21 0 -30 16 -22 40 8 25 41 26 54 1z"/>
<path d="M1940 455 c0 -5 5 -17 10 -25 5 -8 10 -10 10 -5 0 6 -5 17 -10 25 -5
8 -10 11 -10 5z"/>
<path d="M1973 421 c-11 -10 -18 -23 -14 -29 4 -7 13 -1 25 18 20 35 19 36
-11 11z"/>
<path d="M1945 341 c-3 -11 -12 -18 -19 -15 -7 3 -16 -2 -20 -11 -3 -9 -2 -13
4 -10 6 3 10 0 10 -7 1 -8 7 -5 16 7 26 34 36 55 25 55 -5 0 -12 -9 -16 -19z"/>
<path d="M2160 480 c-9 -6 -10 -10 -3 -10 6 0 15 5 18 10 8 12 4 12 -15 0z"/>
<path d="M2123 298 c-6 -24 -13 -52 -17 -63 -5 -12 -1 -10 7 5 15 25 33 100
25 100 -3 0 -9 -19 -15 -42z"/>
<path d="M2141 274 c0 -11 3 -14 6 -6 3 7 2 16 -1 19 -3 4 -6 -2 -5 -13z"/>
<path d="M2126 235 c-9 -26 -7 -32 5 -12 6 10 9 21 6 23 -2 3 -7 -2 -11 -11z"/>
<path d="M2095 169 c-4 -6 -5 -12 -2 -15 2 -3 7 2 10 11 7 17 1 20 -8 4z"/>
<path d="M2217 1233 c-13 -12 -7 -33 8 -33 8 0 15 -5 15 -11 0 -6 -7 -9 -15
-5 -8 3 -15 1 -15 -5 0 -17 35 -5 38 14 2 11 -3 17 -15 18 -10 0 -13 3 -5 6 6
2 12 9 12 14 0 11 -14 12 -23 2z"/>
<path d="M2173 1215 c-3 -9 -3 -19 1 -22 3 -4 6 0 7 8 1 8 5 3 9 -11 8 -24 8
-23 9 8 1 33 -15 44 -26 17z"/>
<path d="M400 1180 c12 -8 12 -10 1 -10 -10 0 -11 -3 -2 -14 9 -11 9 -15 -1
-19 -9 -4 -7 -6 4 -6 12 -1 16 7 16 29 -1 21 -6 30 -17 30 -14 0 -14 -2 -1
-10z"/>
<path d="M435 1169 c-5 -13 -2 -25 6 -30 19 -12 27 -3 21 26 -5 31 -18 32 -27
4z"/>
<path d="M2231 909 c-13 -17 -21 -32 -19 -35 3 -2 15 10 27 27 13 17 21 32 19
35 -3 2 -15 -10 -27 -27z"/>
<path d="M673 863 c-15 -5 -18 -34 -4 -30 5 1 8 -2 8 -8 -1 -5 -5 -9 -9 -7 -5
1 -8 -2 -8 -8 0 -17 22 -11 41 12 l19 21 0 -24 c0 -17 3 -20 9 -10 5 7 6 22 4
33 -5 17 -7 17 -23 3 -18 -17 -32 -11 -23 11 5 15 5 15 -14 7z"/>
<path d="M2699 847 c7 -7 6 -17 -1 -31 -10 -18 -9 -19 4 -8 13 10 17 10 22 0
3 -7 2 0 -1 16 -4 19 -2 27 5 22 6 -3 13 -2 16 3 4 5 -7 9 -24 9 -21 -1 -28
-4 -21 -11z"/>
<path d="M1040 829 c0 -11 5 -17 10 -14 6 3 10 -1 10 -10 0 -10 -5 -13 -12 -9
-7 4 -8 3 -4 -5 4 -6 12 -9 17 -6 14 9 11 45 -3 45 -9 0 -8 4 2 10 13 8 12 10
-2 10 -12 0 -18 -8 -18 -21z"/>
<path d="M1087 843 c-10 -9 -8 -51 2 -57 5 -3 15 1 22 10 11 14 10 18 -4 29
-14 10 -15 14 -5 18 7 3 8 6 2 6 -6 1 -14 -2 -17 -6z m18 -33 c3 -5 1 -10 -4
-10 -6 0 -11 5 -11 10 0 6 2 10 4 10 3 0 8 -4 11 -10z"/>
<path d="M1190 829 c0 -5 5 -7 12 -3 8 5 9 2 5 -9 -3 -10 -2 -17 3 -17 6 0 10
9 10 20 0 11 -7 20 -15 20 -8 0 -15 -5 -15 -11z"/>
<path d="M1237 833 c-12 -11 -8 -40 8 -53 12 -10 16 -9 21 5 4 9 1 22 -5 28
-9 9 -11 8 -6 -5 4 -10 3 -18 -3 -18 -15 0 -8 30 9 41 12 7 11 9 -2 9 -9 0
-19 -3 -22 -7z"/>
<path d="M840 814 c0 -8 7 -14 15 -14 8 0 15 -5 15 -11 0 -6 -7 -9 -15 -5 -8
3 -15 2 -15 -3 0 -5 19 -9 42 -9 26 -1 37 2 29 7 -9 6 -10 11 -2 15 25 16 10
34 -29 34 -28 1 -40 -3 -40 -14z m57 -16 c-10 -15 -13 -16 -15 -4 -2 8 -11 17
-20 19 -9 2 -3 4 15 4 28 0 30 -2 20 -19z"/>
<path d="M1195 780 c4 -6 11 -8 16 -5 14 9 11 15 -7 15 -8 0 -12 -5 -9 -10z"/>
<path d="M1232 750 c0 -14 2 -19 5 -12 2 6 2 18 0 25 -3 6 -5 1 -5 -13z"/>
<path d="M2736 740 c14 -90 24 -219 20 -255 -3 -22 -8 -61 -11 -87 l-6 -48
-195 0 c-125 0 -194 -4 -194 -10 0 -7 82 -10 235 -10 140 1 235 5 235 11 0 5
-16 9 -35 9 -31 0 -34 2 -27 18 15 29 6 301 -12 357 -12 37 -14 41 -10 15z"/>
<path d="M870 745 c0 -8 5 -15 10 -15 6 0 10 7 10 15 0 8 -4 15 -10 15 -5 0
-10 -7 -10 -15z"/>
<path d="M145 612 c6 -4 10 -14 10 -22 0 -8 -4 -18 -10 -22 -6 -4 -2 -8 8 -8
12 0 17 8 17 30 0 22 -5 30 -17 30 -10 0 -14 -4 -8 -8z"/>
<path d="M180 610 c0 -6 5 -8 10 -5 6 3 10 2 10 -4 0 -5 -4 -13 -10 -16 -14
-9 -12 -25 3 -25 8 0 14 6 14 13 0 6 2 18 4 26 2 8 -4 17 -13 19 -10 2 -18 -2
-18 -8z"/>
<path d="M2220 338 c0 -4 20 -8 45 -8 25 0 45 5 45 10 0 6 -20 9 -45 8 -25 0
-45 -5 -45 -10z"/>
<path d="M790 191 c0 -5 7 -16 15 -25 13 -13 13 -15 -3 -19 -9 -3 -3 -5 15 -4
31 1 32 2 15 20 -9 11 -16 22 -14 26 2 3 -4 7 -12 9 -9 2 -16 -1 -16 -7z"/>
<path d="M840 184 c0 -8 7 -22 15 -30 13 -14 15 -12 15 15 0 21 -5 31 -15 31
-8 0 -15 -7 -15 -16z"/>
<path d="M1127 193 c-13 -12 -7 -33 8 -33 8 0 15 -5 15 -11 0 -6 -7 -8 -16 -5
-8 3 -13 2 -10 -3 3 -5 20 -8 38 -7 28 1 33 6 35 29 2 31 -14 45 -30 27 -9
-10 -8 -12 6 -7 9 4 17 2 17 -3 0 -6 -6 -10 -12 -10 -9 0 -8 -3 2 -10 8 -5 11
-12 7 -17 -10 -9 -48 38 -41 49 6 10 -10 11 -19 1z"/>
<path d="M2232 169 c-7 -12 -11 -24 -8 -27 3 -3 6 1 7 9 1 8 5 3 9 -11 7 -22
8 -21 9 13 1 20 0 37 -2 37 -1 0 -8 -9 -15 -21z"/>
<path d="M2272 166 c-8 -18 -6 -25 9 -34 17 -11 19 -9 19 17 0 38 -14 47 -28
17z"/>
<path d="M1852 150 c0 -14 2 -19 5 -12 2 6 2 18 0 25 -3 6 -5 1 -5 -13z"/>
<path d="M1662 120 c-10 -17 -10 -23 2 -35 17 -18 26 -2 17 33 -6 22 -6 22
-19 2z"/>
<path d="M1700 129 c0 -5 5 -7 10 -4 6 3 10 2 10 -4 0 -5 -4 -13 -10 -16 -15
-10 -12 -35 5 -35 8 0 15 5 15 10 0 6 -5 10 -11 10 -8 0 -8 4 1 15 12 15 6 35
-11 35 -5 0 -9 -5 -9 -11z"/>
<path d="M1826 112 c-4 -6 -4 -17 0 -24 4 -7 3 -8 -4 -4 -7 4 -12 3 -12 -2 0
-12 28 -24 33 -14 2 4 1 18 -3 32 -4 17 -8 21 -14 12z"/>
<path d="M1865 112 c16 -11 17 -34 3 -43 -10 -7 -9 -9 5 -9 12 0 17 8 17 30 0
22 -5 30 -17 30 -10 0 -14 -4 -8 -8z"/>
</g>
</svg>
