<?xml version="1.0" standalone="no"?>
<!DOCTYPE svg PUBLIC "-//W3C//DTD SVG 20010904//EN"
 "http://www.w3.org/TR/2001/REC-SVG-20010904/DTD/svg10.dtd">
<svg version="1.0" xmlns="http://www.w3.org/2000/svg"
 width="465.000000pt" height="267.000000pt" viewBox="0 0 465.000000 267.000000"
 preserveAspectRatio="xMidYMid meet">
<metadata>
Created by potrace 1.13, written by Peter Selinger 2001-2015
</metadata>
<g transform="translate(0.000000,267.000000) scale(0.100000,-0.100000)"
fill="#000000" stroke="none">
<path d="M641 2555 c-24 -27 -31 -45 -31 -75 0 -22 5 -40 10 -40 10 0 15 32
13 76 -1 12 10 32 23 45 30 28 39 19 49 -50 10 -76 25 -103 51 -98 19 3 24 -1
27 -27 3 -24 4 -23 3 8 0 25 5 42 17 51 9 7 17 21 17 31 -1 15 -4 13 -16 -8
-15 -29 -51 -54 -62 -44 -3 4 12 24 33 46 21 22 41 38 43 35 3 -3 8 -22 12
-42 l8 -38 1 43 c0 23 -5 52 -11 65 -36 64 -67 74 -95 31 l-16 -26 -14 26
c-18 34 -25 33 -62 -9z m145 17 c6 -4 16 -16 22 -28 10 -18 6 -26 -26 -57 -35
-34 -62 -47 -62 -30 0 4 19 28 43 53 32 34 33 37 7 12 -43 -38 -52 -40 -46 -8
10 54 34 77 62 58z"/>
<path d="M749 2543 l-24 -28 28 24 c25 23 32 31 24 31 -2 0 -14 -12 -28 -27z"/>
<path d="M3439 2538 c-13 -21 -18 -42 -14 -58 3 -14 5 -34 3 -45 -1 -11 -2
-118 -3 -238 0 -214 0 -217 -21 -217 -11 0 -29 -9 -39 -19 -16 -19 -17 -44
-10 -368 4 -191 7 -357 7 -368 0 -11 2 -14 5 -7 3 6 8 10 11 8 4 -2 7 38 7 89
0 51 -2 92 -5 90 -8 -5 -6 122 3 131 4 4 7 19 6 33 0 23 -1 24 -8 6 -5 -13
-10 3 -14 50 -12 127 -13 125 33 125 l39 0 4 -62 3 -63 2 63 2 62 43 1 c23 1
66 3 94 5 l52 3 4 -142 3 -142 2 143 2 142 31 0 31 0 -7 -77 c-9 -109 -9 -164
1 -172 5 -3 9 -82 10 -174 1 -111 5 -172 13 -180 6 -6 11 -26 11 -44 0 -32 -1
-33 -40 -33 l-39 0 -4 148 -3 147 -2 -152 -2 -153 -90 0 -90 0 0 52 c0 63 -10
59 -12 -6 l-1 -46 -38 0 -38 0 -3 62 c-2 41 -7 62 -14 61 -7 -1 -15 9 -18 22
-4 14 -11 25 -16 25 -6 0 -10 9 -10 20 0 11 -4 20 -9 20 -4 0 -6 -11 -3 -25 2
-14 8 -25 13 -25 5 0 9 -9 9 -21 0 -19 -5 -20 -92 -17 l-93 3 3 26 c2 14 -4
31 -11 38 -8 6 -13 22 -11 34 3 15 1 13 -7 -6 -9 -24 -8 -30 6 -41 11 -8 15
-20 11 -32 -5 -17 -14 -19 -85 -16 l-80 3 -4 37 -4 37 -1 -35 -2 -35 -167 3
-168 3 -19 27 c-37 52 -133 137 -197 175 -100 59 -155 72 -299 72 -105 0 -136
-4 -195 -24 -95 -32 -225 -119 -278 -186 l-42 -54 -167 0 -168 -1 -3 468 -2
467 -3 -472 -2 -473 -59 0 c-42 0 -60 4 -64 14 -7 17 -47 41 -47 28 0 -6 9
-12 20 -15 11 -3 20 -10 20 -16 0 -7 -30 -11 -85 -11 l-85 0 6 25 c4 16 2 25
-6 25 -7 0 -10 7 -6 18 5 14 4 14 -9 -2 -11 -14 -12 -22 -4 -27 21 -13 1 -39
-29 -39 -25 0 -30 5 -36 31 -3 17 -5 61 -4 98 l1 66 7 -55 c5 -43 7 -28 8 68
2 123 3 127 39 123 14 -2 73 27 73 35 0 4 -8 3 -17 -1 -10 -4 -35 -11 -56 -15
-33 -7 -38 -5 -42 14 -8 41 -11 196 -3 196 4 0 9 -46 10 -102 1 -67 4 -33 8
97 4 124 3 205 -3 213 -5 6 -22 12 -38 12 -28 0 -29 1 -29 54 0 48 3 56 23 62
12 4 27 7 32 6 6 -1 24 10 41 26 17 15 23 21 13 14 -9 -7 -29 -17 -45 -21 -16
-5 -36 -12 -44 -15 -13 -5 -15 14 -12 151 2 87 1 155 -3 151 -4 -4 -9 -47 -10
-95 -2 -48 -4 -101 -5 -118 l-2 -30 -9 30 c-5 19 -7 -13 -5 -87 l2 -118 -96 0
-95 0 2 37 c1 21 2 79 4 128 1 68 3 82 9 55 5 -22 7 11 6 87 0 68 -4 123 -7
123 -14 0 -19 -35 -19 -124 0 -51 -3 -141 -7 -199 l-6 -107 -27 0 c-30 0 -55
-22 -47 -42 4 -9 6 -7 6 4 1 22 35 32 61 18 27 -15 29 -94 2 -109 -29 -15 -67
9 -67 42 1 15 -3 27 -8 27 -4 0 -6 -71 -4 -157 2 -87 1 -135 -3 -108 -6 44 -7
38 -8 -41 -1 -50 -5 -166 -9 -257 l-6 -167 -154 0 -153 0 0 -319 0 -319 33 -3
c17 -2 50 -1 72 2 33 5 29 6 -27 8 l-68 1 0 310 0 310 148 0 c89 0 152 -4 158
-10 8 -8 11 19 12 87 1 54 5 154 9 223 5 100 8 116 14 80 4 -29 6 -1 5 77 -1
128 2 137 43 126 18 -5 21 -14 24 -97 l3 -91 2 93 2 92 95 0 96 0 -7 -227 c-4
-126 -4 -226 -2 -223 5 4 18 316 18 418 0 32 12 40 39 23 9 -6 15 -41 18 -120
5 -96 3 -112 -11 -117 -9 -3 -16 -11 -16 -16 0 -6 7 -8 15 -4 11 4 15 -2 15
-22 0 -22 -2 -24 -11 -12 -10 15 -5 -213 7 -333 5 -44 4 -47 -18 -47 -13 0
-30 6 -37 12 -11 10 -13 10 -7 1 4 -7 2 -13 -3 -13 -7 0 -11 23 -11 56 0 41 3
53 13 48 9 -6 9 -5 0 7 -6 8 -13 28 -16 44 -4 29 -11 -101 -8 -137 2 -16 -8
-18 -94 -18 l-97 0 5 238 5 237 -10 -237 c-9 -209 -13 -238 -27 -238 -23 0
-38 12 -44 35 -4 18 -5 18 -6 -2 -1 -32 -19 -29 -24 5 l-4 27 -2 -27 c0 -18
-7 -28 -16 -28 -8 0 -15 -9 -15 -20 0 -10 -11 -36 -25 -56 -31 -46 -45 -96
-44 -154 1 -39 3 -36 9 21 9 71 24 109 66 158 22 27 32 31 76 31 l50 0 -43
-33 c-60 -45 -91 -108 -87 -175 2 -40 0 -52 -12 -54 -24 -2 -45 -6 -50 -8 -3
-1 -14 -3 -26 -4 -23 -3 -76 -36 -57 -36 7 0 15 4 18 10 9 15 75 13 75 -3 0
-7 11 -29 25 -49 14 -20 25 -44 25 -52 0 -9 6 -16 14 -16 7 0 34 -11 58 -25
94 -53 213 -52 305 1 39 22 51 24 192 24 138 0 153 -2 171 -20 11 -11 31 -20
45 -20 21 0 25 -5 25 -30 l0 -30 -89 0 c-94 0 -105 5 -114 50 -4 17 -5 14 -4
-10 l2 -35 -244 -2 c-134 -1 -246 -4 -249 -7 -3 -3 105 -6 239 -6 l245 0 -1
-23 c0 -12 -4 -29 -9 -37 -9 -13 -8 -13 7 -1 9 7 17 24 17 37 0 24 1 24 98 24
90 0 98 -2 107 -22 6 -12 17 -24 25 -26 12 -4 13 -2 3 9 -32 33 -16 39 110 39
142 0 130 5 257 -121 76 -76 163 -130 264 -163 58 -20 167 -36 160 -24 -3 4
-17 8 -32 8 -87 0 -254 70 -345 145 -60 49 -72 76 -15 33 38 -28 73 -48 43
-24 -11 9 -32 28 -48 42 -15 15 -34 24 -42 20 -9 -3 -15 1 -15 10 0 9 5 12 13
8 7 -4 8 -3 4 2 -5 5 -15 9 -24 9 -8 0 -34 27 -57 60 -26 38 -58 69 -86 85
-44 25 -49 25 -330 30 -212 4 -289 2 -300 -7 -88 -69 -255 -70 -349 -4 -16 11
-32 17 -37 13 -5 -4 -6 -3 -2 2 4 5 -4 23 -17 40 -34 44 -49 86 -31 86 8 0 21
3 29 6 10 3 23 -10 41 -40 30 -52 90 -92 153 -102 24 -3 40 -10 38 -15 -3 -4
-1 -10 5 -14 6 -3 13 2 17 12 6 16 8 15 14 -7 l7 -25 2 25 c1 23 2 23 10 5 8
-18 9 -18 10 5 l2 25 8 -25 8 -25 1 28 c1 15 6 27 12 27 6 0 8 -9 4 -20 -5
-15 -3 -18 9 -14 9 3 17 18 17 33 1 17 3 20 6 8 6 -23 23 -12 24 16 0 13 3 17
6 8 3 -8 11 1 20 25 41 111 46 132 39 177 -8 50 -52 119 -88 138 -18 8 -15 4
8 -18 71 -67 89 -166 46 -250 -59 -115 -223 -146 -325 -62 -36 30 -73 86 -64
96 12 11 102 8 103 -4 1 -7 2 -17 3 -22 2 -14 53 -30 96 -30 51 1 93 23 105
54 5 14 14 25 20 25 13 0 3 69 -12 85 -9 10 -28 -10 -28 -30 0 -5 5 -3 10 5 7
11 10 5 10 -23 0 -67 -79 -122 -119 -84 -11 10 -13 10 -7 0 9 -15 -12 -17 -34
-3 -12 8 -12 10 -1 10 8 0 11 3 8 6 -4 4 -15 1 -24 -7 -10 -7 -15 -9 -11 -5 4
5 2 16 -4 24 -10 11 -8 17 7 29 20 15 19 15 -2 10 -20 -4 -23 -1 -23 23 0 16
7 30 15 34 8 3 14 11 13 18 -2 7 3 12 10 13 6 0 12 5 11 10 0 6 -8 9 -17 7
-14 -2 -14 -1 -3 7 9 6 24 6 38 0 32 -12 46 -11 38 1 -3 6 -1 10 4 10 6 0 11
-5 11 -11 0 -6 6 -9 13 -6 16 6 49 -12 42 -23 -4 -7 17 -7 35 0 3 1 8 2 13 1
17 -3 4 10 -36 33 -32 19 -54 25 -89 22 -49 -2 -97 -27 -94 -48 0 -7 -3 -14
-8 -15 -15 -2 -26 -27 -26 -59 0 -24 -5 -33 -22 -38 -52 -13 -58 -9 -58 42 0
64 33 125 88 166 41 29 49 31 125 29 45 -1 108 -2 140 -2 64 0 87 -8 66 -23
-11 -8 -10 -9 3 -4 27 8 67 -85 67 -154 0 -30 0 -61 0 -67 1 -8 15 -13 37 -13
28 0 35 -3 30 -15 -3 -9 3 -19 14 -25 18 -10 19 -8 15 22 -4 24 -3 28 3 13 7
-15 10 -9 16 32 3 28 12 54 19 56 9 4 9 6 0 6 -7 1 -24 13 -38 27 -21 21 -33
25 -56 20 -25 -5 -31 -2 -38 17 -5 14 -4 25 3 29 7 5 8 8 0 8 -6 0 -25 18 -43
40 l-32 40 134 0 c129 0 134 -1 146 -22 l11 -23 -6 23 -5 22 290 0 290 0 -19
-43 c-25 -56 -40 -162 -31 -212 6 -33 8 -22 12 60 6 121 32 187 105 266 56 58
111 93 192 120 47 16 50 18 18 13 -82 -12 -202 -92 -250 -167 -18 -26 -21 -27
-103 -26 -96 1 -94 -3 -40 88 94 156 306 271 500 271 199 -1 411 -127 501
-300 l36 -69 -57 0 c-32 0 -63 5 -70 11 -9 7 -13 7 -13 -1 0 -22 -30 -11 -44
17 -17 33 -97 109 -147 139 -50 31 -142 53 -214 52 -60 -2 -60 -2 20 -9 167
-16 267 -77 349 -214 33 -55 51 -72 26 -25 -11 19 -5 19 297 17 l308 -3 1 -23
c2 -36 14 -39 14 -4 l0 32 113 -1 c61 -1 117 -6 124 -11 7 -6 76 -9 154 -9
163 1 189 -8 234 -82 27 -45 34 -44 10 2 -8 16 -28 40 -44 54 -34 28 -31 37
14 37 35 0 62 -29 96 -103 10 -23 19 -36 19 -28 0 7 -11 35 -25 63 -14 27 -25
56 -25 64 0 8 -9 14 -20 14 -17 0 -20 7 -20 50 l0 50 352 0 353 0 -38 -31
c-20 -17 -37 -35 -37 -41 0 -6 10 0 23 13 12 13 36 34 52 46 l30 22 -367 1
-368 0 0 28 c0 15 -3 98 -7 186 l-6 158 22 -7 c28 -8 131 3 131 15 0 4 -18 3
-40 -2 -22 -6 -55 -7 -73 -4 l-34 6 -7 138 c-3 75 -6 162 -6 193 1 60 -8 75
-50 81 -24 3 -25 6 -25 68 l0 65 38 -3 c36 -3 113 15 104 24 -2 3 -16 0 -31
-6 -14 -5 -46 -7 -70 -4 l-44 6 -6 117 c-3 64 -6 121 -6 126 -1 6 -1 35 0 66
2 49 -2 62 -25 93 -31 40 -54 46 -62 16 -3 -11 -9 -20 -14 -20 -4 0 -13 9 -19
20 -17 32 -57 26 -81 -12z m69 4 c2 -7 -10 -24 -28 -38 -17 -15 -29 -29 -26
-31 3 -3 17 7 31 21 14 14 30 26 35 26 23 0 16 -20 -20 -55 l-39 -38 -11 27
c-12 33 -9 68 8 89 14 17 44 16 50 -1z m82 3 c13 -16 15 -116 5 -195 -4 -27
-3 -30 4 -15 8 17 10 14 10 -17 1 -20 -3 -40 -9 -43 -5 -3 -10 -16 -9 -28 1
-20 2 -20 9 3 6 17 8 0 9 -56 1 -51 -3 -85 -11 -93 -10 -11 -10 -13 0 -7 8 5
12 -1 12 -21 1 -15 7 -45 14 -65 l14 -38 -97 0 -97 0 3 53 c1 28 5 67 7 85 4
29 3 32 -9 22 -13 -11 -15 -1 -15 71 0 61 3 80 11 69 7 -11 9 9 7 71 l-3 86
26 -19 c25 -19 59 -16 59 4 0 6 -6 5 -15 -2 -12 -10 -18 -10 -30 0 -14 12 -12
17 16 46 18 18 35 31 39 29 4 -3 10 13 14 35 7 43 16 49 36 25z m-2963 -561
c-3 -3 -12 -4 -19 -1 -8 3 -5 6 6 6 11 1 17 -2 13 -5z m148 -16 c24 -11 26
-16 20 -47 -4 -20 -10 -40 -15 -45 -14 -15 -96 -19 -134 -6 -33 11 -36 15 -36
50 0 27 6 42 18 49 24 14 115 14 147 -1z m105 -3 c9 -11 10 -27 4 -58 -8 -38
-12 -42 -38 -42 -37 0 -54 25 -38 57 l12 23 -3 -24 c-1 -13 4 -26 11 -28 6 -3
12 1 13 9 0 7 4 4 9 -7 7 -18 8 -19 15 -2 8 19 -12 50 -26 41 -5 -3 -9 1 -9 9
0 8 -10 18 -22 24 -19 8 -17 10 19 11 26 1 45 -4 53 -13z m2718 -17 c29 -9 32
-13 32 -48 0 -48 -18 -60 -90 -60 -72 0 -90 12 -90 60 0 21 6 41 13 43 6 3 3
6 -8 6 -18 1 -20 -5 -20 -51 0 -48 -2 -53 -23 -56 -13 -2 -30 2 -38 8 -18 15
-19 97 -1 103 24 8 193 5 225 -5z m117 -42 c0 -36 -5 -52 -17 -60 -38 -24 -69
29 -53 91 5 20 11 24 38 21 31 -3 32 -4 32 -52z m-2899 -62 c26 -5 30 -9 26
-30 -4 -22 -9 -24 -57 -24 -44 0 -54 4 -64 23 l-11 22 6 -22 c5 -20 1 -23 -24
-23 -20 0 -33 7 -41 23 -10 20 -11 20 -6 1 5 -19 2 -20 -47 -17 -70 5 -78 9
-78 32 0 19 7 20 133 20 72 0 146 -2 163 -5z m64 -29 c0 -14 -4 -25 -10 -25
-5 0 -10 11 -10 25 0 14 5 25 10 25 6 0 10 -11 10 -25z m2587 19 c-3 -3 -12
-4 -19 -1 -8 3 -5 6 6 6 11 1 17 -2 13 -5z m238 -34 c0 -24 -4 -25 -60 -28
-47 -3 -62 0 -72 14 -7 10 -13 21 -13 25 0 9 51 17 105 15 35 -1 40 -4 40 -26z
m-217 -5 l12 -25 -70 0 c-68 0 -70 1 -70 25 0 24 3 25 58 25 53 0 60 -2 70
-25z m70 0 c11 -24 10 -25 -18 -25 -19 0 -33 7 -40 19 -15 28 -13 31 18 31 21
0 32 -7 40 -25z m-1268 -339 c108 -38 208 -106 277 -186 36 -41 108 -169 100
-176 -3 -3 -22 27 -43 66 -66 126 -201 238 -344 286 -82 28 -252 26 -345 -3
-143 -45 -283 -158 -349 -281 -19 -37 -35 -60 -35 -52 0 8 6 26 14 40 8 14 14
30 14 35 0 6 -11 -11 -25 -38 l-25 -47 -191 2 -192 3 -7 25 c-7 25 -7 24 -8
-4 l-1 -29 -67 6 c-38 4 -82 7 -99 7 -16 0 -38 6 -48 13 -17 12 -17 14 1 45
l18 32 93 0 c88 0 92 -1 93 -22 l2 -23 4 23 4 23 230 -1 229 -1 34 45 c78 102
199 181 326 216 90 24 266 22 340 -4z m-1420 -16 c0 -11 -4 -20 -9 -20 -6 0
-9 9 -8 20 1 11 5 20 9 20 4 0 8 -9 8 -20z m2857 -67 c-3 -10 -5 -4 -5 12 0
17 2 24 5 18 2 -7 2 -21 0 -30z m0 -45 c-3 -8 -6 -5 -6 6 -1 11 2 17 5 13 3
-3 4 -12 1 -19z m-2807 -135 c-1 -14 -27 -43 -39 -43 -6 0 -11 11 -11 25 0 20
5 25 25 25 14 0 25 -3 25 -7z m2087 -9 l120 -7 -10 -43 -10 -44 -212 0 -211 0
-20 42 c-10 24 -20 46 -22 50 -4 10 202 10 365 2z m325 -34 c7 -49 -15 -60
-120 -60 -100 0 -101 1 -81 59 l11 31 93 0 93 0 4 -30z m38 11 c0 -11 -4 -23
-10 -26 -6 -4 -10 5 -10 19 0 14 5 26 10 26 6 0 10 -9 10 -19z m-2480 -45 c0
-3 -4 -8 -10 -11 -5 -3 -10 -1 -10 4 0 6 5 11 10 11 6 0 10 -2 10 -4z m2480
-16 c0 -5 -7 -10 -16 -10 -8 0 -12 5 -9 10 3 6 10 10 16 10 5 0 9 -4 9 -10z
m-2355 -162 c14 -6 28 -21 31 -34 7 -26 -12 -67 -27 -59 -5 4 -9 1 -9 -5 0 -6
-12 -10 -27 -8 -26 3 -28 6 -30 53 -2 63 12 76 62 53z m-468 -65 c-3 -10 -5
-2 -5 17 0 19 2 27 5 18 2 -10 2 -26 0 -35z m687 -219 c3 -9 -2 -14 -13 -14
-10 0 -24 6 -30 14 -9 11 -7 14 13 14 14 0 27 -7 30 -14z m36 5 c0 -5 4 -8 9
-5 4 3 6 -7 4 -22 -4 -21 -2 -24 6 -12 6 8 11 24 12 35 1 17 2 16 9 -5 8 -24
8 -24 9 -2 2 38 45 28 118 -28 l67 -51 -120 3 -119 3 3 38 c2 22 -1 37 -7 37
-6 0 -11 5 -11 10 0 6 5 10 10 10 6 0 10 -5 10 -11z m245 -59 c21 -22 36 -42
33 -45 -3 -4 -21 12 -38 34 -18 22 -36 39 -39 36 -4 -2 -18 5 -31 16 l-25 19
31 -10 c17 -6 48 -29 69 -50z"/>
<path d="M3459 2533 c-13 -16 -12 -17 4 -4 16 13 21 21 13 21 -2 0 -10 -8 -17
-17z"/>
<path d="M3532 2450 c0 -14 2 -19 5 -12 2 6 2 18 0 25 -3 6 -5 1 -5 -13z"/>
<path d="M708 1928 c6 -23 25 -48 36 -48 3 0 6 9 6 20 0 11 -7 20 -15 20 -8 0
-15 7 -15 15 0 8 -4 15 -9 15 -5 0 -6 -10 -3 -22z"/>
<path d="M3541 1924 c0 -11 3 -14 6 -6 3 7 2 16 -1 19 -3 4 -6 -2 -5 -13z"/>
<path d="M3570 1900 c0 -5 6 -10 13 -10 9 0 9 -2 -1 -9 -11 -7 -11 -9 1 -14
19 -7 27 1 27 25 0 11 -7 18 -20 18 -11 0 -20 -4 -20 -10z"/>
<path d="M3690 1890 c0 -18 4 -29 10 -25 6 3 10 15 10 25 0 10 -4 22 -10 25
-6 4 -10 -7 -10 -25z"/>
<path d="M1182 1140 c0 -14 2 -19 5 -12 2 6 2 18 0 25 -3 6 -5 1 -5 -13z"/>
<path d="M1230 1140 c0 -6 4 -9 9 -6 5 4 12 1 14 -4 3 -6 4 -5 3 2 -3 15 -26
23 -26 8z"/>
<path d="M2961 1144 c0 -11 3 -14 6 -6 3 7 2 16 -1 19 -3 4 -6 -2 -5 -13z"/>
<path d="M2992 1147 c-14 -16 -1 -36 26 -42 17 -3 22 1 22 18 0 18 -2 19 -10
7 -8 -13 -10 -13 -10 2 0 23 -15 31 -28 15z"/>
<path d="M3050 1131 c0 -21 5 -31 16 -31 11 0 14 8 12 27 -4 39 -28 42 -28 4z"/>
<path d="M3092 1125 c0 -16 2 -22 5 -12 2 9 2 23 0 30 -3 6 -5 -1 -5 -18z"/>
<path d="M970 908 c0 -7 5 -20 10 -28 8 -12 10 -9 10 13 0 15 -4 27 -10 27 -5
0 -10 -6 -10 -12z"/>
<path d="M1000 891 c0 -12 5 -21 10 -21 6 0 10 6 10 14 0 8 -4 18 -10 21 -5 3
-10 -3 -10 -14z"/>
<path d="M1365 2500 c-46 -22 -105 -73 -105 -90 0 -6 14 5 30 24 64 72 171 97
240 55 19 -12 69 -52 110 -89 94 -84 147 -117 210 -132 43 -10 57 -8 117 11
37 12 106 40 153 61 140 64 190 63 230 -3 11 -18 20 -26 20 -18 0 7 -15 28
-34 47 -49 49 -86 46 -226 -19 -115 -53 -164 -68 -220 -68 -76 -1 -130 28
-248 130 -51 45 -106 88 -122 96 -40 21 -107 19 -155 -5z"/>
<path d="M781 2324 c0 -11 3 -14 6 -6 3 7 2 16 -1 19 -3 4 -6 -2 -5 -13z"/>
<path d="M1253 2205 c0 -27 2 -38 4 -22 2 15 2 37 0 50 -2 12 -4 0 -4 -28z"/>
<path d="M906 2225 c-3 -8 0 -18 6 -21 8 -5 5 -10 -8 -14 -13 -5 -5 -8 24 -8
37 -1 44 3 52 24 6 14 10 27 10 28 0 2 -18 4 -39 4 -25 1 -41 -4 -45 -13z m44
-3 c0 -13 -12 -22 -22 -16 -10 6 -1 24 13 24 5 0 9 -4 9 -8z"/>
<path d="M2391 2224 c0 -11 3 -14 6 -6 3 7 2 16 -1 19 -3 4 -6 -2 -5 -13z"/>
<path d="M3801 2231 c-8 -5 -11 -16 -7 -29 5 -15 2 -22 -11 -25 -16 -4 -16 -5
-1 -6 20 -1 31 14 34 46 3 26 4 26 -15 14z"/>
<path d="M3841 2226 c-7 -8 -10 -20 -6 -27 4 -6 1 -15 -6 -20 -11 -7 -10 -9 4
-9 22 0 45 46 30 61 -7 7 -14 5 -22 -5z m19 -10 c0 -3 -4 -8 -10 -11 -5 -3
-10 -1 -10 4 0 6 5 11 10 11 6 0 10 -2 10 -4z"/>
<path d="M1492 2195 c0 -16 2 -22 5 -12 2 9 2 23 0 30 -3 6 -5 -1 -5 -18z"/>
<path d="M2402 2180 c0 -14 2 -19 5 -12 2 6 2 18 0 25 -3 6 -5 1 -5 -13z"/>
<path d="M2848 2190 c-52 -16 -94 -49 -205 -165 -116 -121 -139 -134 -167 -93
-9 12 -16 18 -16 12 0 -17 34 -44 55 -44 11 0 66 48 130 113 138 141 143 146
207 168 52 17 49 25 -4 9z"/>
<path d="M2938 2178 l32 -11 2 -336 3 -336 3 335 c2 306 1 336 -15 348 -9 6
-26 12 -37 11 -15 -1 -11 -4 12 -11z"/>
<path d="M772 2125 c0 -16 2 -22 5 -12 2 9 2 23 0 30 -3 6 -5 -1 -5 -18z"/>
<path d="M1512 2120 c0 -19 2 -27 5 -17 2 9 2 25 0 35 -3 9 -5 1 -5 -18z"/>
<path d="M2412 2130 c0 -14 2 -19 5 -12 2 6 2 18 0 25 -3 6 -5 1 -5 -13z"/>
<path d="M2422 2085 c0 -11 4 -31 8 -45 6 -20 8 -21 8 -5 0 11 -4 31 -8 45 -6
20 -8 21 -8 5z"/>
<path d="M1542 2060 c0 -14 2 -19 5 -12 2 6 2 18 0 25 -3 6 -5 1 -5 -13z"/>
<path d="M772 2035 c0 -16 2 -22 5 -12 2 9 2 23 0 30 -3 6 -5 -1 -5 -18z"/>
<path d="M1563 2015 c0 -27 2 -38 4 -22 2 15 2 37 0 50 -2 12 -4 0 -4 -28z"/>
<path d="M1581 2010 c0 -3 6 -30 14 -60 12 -49 13 -51 14 -20 0 19 -6 46 -14
60 -8 14 -14 23 -14 20z"/>
<path d="M2441 2000 c0 -8 4 -22 9 -30 12 -18 12 -2 0 25 -6 13 -9 15 -9 5z"/>
<path d="M833 1645 c0 -33 2 -45 4 -27 2 18 2 45 0 60 -2 15 -4 0 -4 -33z"/>
<path d="M970 1655 c0 -17 -6 -25 -17 -25 -13 0 -14 -3 -5 -12 14 -14 45 9 38
29 -3 7 1 13 9 13 8 0 15 5 15 10 0 6 -9 10 -20 10 -15 0 -20 -7 -20 -25z"/>
<path d="M1022 1668 c-14 -14 -16 -58 -3 -58 14 0 27 23 29 48 1 25 -8 28 -26
10z"/>
<path d="M2442 1660 c0 -14 2 -19 5 -12 2 6 2 18 0 25 -3 6 -5 1 -5 -13z"/>
<path d="M3866 1661 c-4 -5 -3 -16 0 -24 3 -10 -1 -17 -13 -20 -14 -4 -14 -5
5 -6 20 -1 27 9 23 33 -1 5 4 13 11 17 10 7 9 9 -4 9 -9 0 -19 -4 -22 -9z"/>
<path d="M3912 1663 c1 -5 -3 -18 -10 -30 -18 -32 -10 -28 16 7 18 24 20 30 7
30 -8 0 -14 -3 -13 -7z"/>
<path d="M2477 1643 c-10 -18 -17 -82 -9 -87 5 -3 9 0 9 7 0 7 3 29 7 50 6 34
3 48 -7 30z"/>
<path d="M2538 1627 c-3 -13 -1 -32 3 -43 5 -13 8 -7 8 24 1 46 -4 55 -11 19z"/>
<path d="M2490 1594 c0 -8 3 -13 8 -10 4 2 6 -13 5 -35 -1 -21 2 -41 6 -43 4
-3 8 17 10 43 1 36 -2 50 -14 54 -9 4 -15 1 -15 -9z"/>
<path d="M832 1560 c0 -14 2 -19 5 -12 2 6 2 18 0 25 -3 6 -5 1 -5 -13z"/>
<path d="M2550 1540 c-3 -31 1 -74 6 -79 11 -12 14 12 6 55 -6 32 -11 40 -12
24z"/>
<path d="M3450 1382 c0 -129 -3 -181 -12 -191 -11 -10 -10 -11 5 -6 15 6 17
25 17 191 0 101 -2 184 -5 184 -3 0 -5 -80 -5 -178z"/>
<path d="M521 1514 c0 -11 3 -14 6 -6 3 7 2 16 -1 19 -3 4 -6 -2 -5 -13z"/>
<path d="M2596 1450 c3 -25 8 -46 12 -48 4 -1 6 -19 4 -39 -4 -31 -2 -35 12
-30 10 4 15 3 11 -3 -3 -6 -1 -10 4 -10 14 0 14 34 2 58 -6 9 -13 35 -16 56
-5 27 -9 35 -15 26 -6 -10 -10 -7 -13 11 -2 13 -3 4 -1 -21z"/>
<path d="M2971 1434 c0 -11 3 -14 6 -6 3 7 2 16 -1 19 -3 4 -6 -2 -5 -13z"/>
<path d="M1960 1394 c0 -21 3 -25 9 -15 7 11 10 6 13 -19 2 -22 9 -34 21 -36
9 -1 17 3 17 9 0 7 5 6 10 -3 8 -12 12 -13 19 -2 4 8 12 13 17 13 5 -1 9 4 8
9 -1 6 -2 23 -2 39 -2 28 -3 28 -44 21 -27 -5 -48 -4 -55 2 -10 8 -13 4 -13
-18z m47 -41 c-3 -10 -5 -2 -5 17 0 19 2 27 5 18 2 -10 2 -26 0 -35z m20 10
c-3 -10 -5 -4 -5 12 0 17 2 24 5 18 2 -7 2 -21 0 -30z m30 0 c-3 -10 -5 -4 -5
12 0 17 2 24 5 18 2 -7 2 -21 0 -30z"/>
<path d="M2090 1380 c0 -30 4 -40 16 -40 11 0 14 4 8 13 -5 6 -9 24 -8 40 0
15 -3 27 -7 27 -5 0 -9 -18 -9 -40z"/>
<path d="M3081 1386 c-9 -11 -9 -16 0 -22 9 -5 7 -11 -7 -21 -19 -14 -19 -15
1 -11 13 2 20 11 19 26 0 12 5 22 13 22 7 0 13 5 13 10 0 15 -26 12 -39 -4z"/>
<path d="M3147 1372 c-21 -23 -21 -32 -3 -32 8 0 18 9 21 21 9 28 2 33 -18 11z"/>
<path d="M513 1295 c0 -44 2 -61 4 -37 2 23 2 59 0 80 -2 20 -4 1 -4 -43z"/>
<path d="M917 1353 c9 -3 8 -11 -4 -31 l-17 -27 27 24 c33 30 34 41 5 40 -13
0 -17 -3 -11 -6z"/>
<path d="M956 1338 c-11 -16 -13 -25 -5 -35 15 -18 26 -9 31 27 5 35 -5 39
-26 8z"/>
<path d="M820 1267 c0 -53 4 -87 10 -87 10 0 3 158 -6 169 -2 2 -4 -35 -4 -82z"/>
<path d="M1055 1340 c-3 -6 -3 -19 0 -30 5 -15 2 -20 -12 -21 -11 0 -13 -3 -5
-6 7 -3 19 1 27 7 11 9 15 9 15 1 0 -6 7 -11 15 -11 16 0 40 48 30 59 -8 7
-25 -21 -19 -30 10 -16 -15 -18 -27 -2 -11 13 -11 17 -1 20 6 3 10 9 6 14 -7
12 -21 11 -29 -1z"/>
<path d="M3247 1333 c10 -4 10 -10 -2 -26 -24 -35 -17 -41 10 -9 31 37 31 42
3 41 -13 0 -17 -3 -11 -6z"/>
<path d="M3297 1333 c9 -3 8 -11 -4 -29 -8 -14 -14 -26 -12 -29 2 -2 14 12 27
31 l22 34 -22 -1 c-13 0 -17 -3 -11 -6z"/>
<path d="M670 1290 c0 -5 5 -10 11 -10 5 0 7 5 4 10 -3 6 -8 10 -11 10 -2 0
-4 -4 -4 -10z"/>
<path d="M2110 1269 c0 -5 -4 -7 -10 -4 -6 3 -10 -4 -10 -17 0 -19 2 -20 11
-8 8 12 10 9 6 -13 -2 -15 0 -30 4 -33 5 -3 9 15 9 40 0 25 -2 46 -5 46 -3 0
-5 -5 -5 -11z"/>
<path d="M2133 1220 c0 -25 2 -35 4 -22 2 12 2 32 0 45 -2 12 -4 2 -4 -23z"/>
<path d="M2481 1191 c-8 -14 -7 -20 4 -25 11 -4 15 2 15 19 0 30 -6 32 -19 6z"/>
<path d="M2182 1180 c0 -14 2 -19 5 -12 2 6 2 18 0 25 -3 6 -5 1 -5 -13z"/>
<path d="M2202 1165 c0 -16 2 -22 5 -12 2 9 2 23 0 30 -3 6 -5 -1 -5 -18z"/>
<path d="M2551 1150 c0 -33 1 -34 10 -11 6 16 6 28 -1 35 -7 7 -10 -1 -9 -24z"/>
<path d="M2240 1142 c0 -33 16 -43 27 -16 3 8 -2 23 -11 32 -15 15 -16 14 -16
-16z"/>
<path d="M832 1135 c0 -16 2 -22 5 -12 2 9 2 23 0 30 -3 6 -5 -1 -5 -18z"/>
<path d="M1988 1092 l-118 -67 0 -142 0 -142 31 -16 c23 -12 29 -21 24 -36 -4
-11 -2 -19 4 -19 6 0 11 7 11 16 0 24 20 6 21 -19 0 -21 1 -21 9 -2 5 11 9 14
9 7 1 -6 6 -11 12 -10 6 2 14 -10 16 -27 5 -36 13 -46 13 -17 0 12 5 22 10 22
6 0 10 -6 9 -12 -1 -7 0 -22 1 -33 2 -15 4 -12 10 10 l8 30 1 -32 c0 -17 6
-35 12 -39 8 -5 10 3 7 25 -5 33 1 38 19 20 6 -6 22 -9 35 -6 13 4 26 6 30 7
4 0 20 13 35 28 l28 27 6 -35 6 -35 2 38 c0 20 6 37 12 37 6 0 17 7 25 15 21
21 34 19 34 -6 0 -12 4 -17 11 -14 6 4 8 14 5 22 -8 21 4 39 15 22 6 -10 9 -8
9 9 0 23 -14 30 -25 12 -3 -5 -10 -10 -15 -10 -6 0 -1 15 10 33 11 17 20 37
20 42 -1 6 -10 -6 -20 -26 -68 -129 -246 -159 -359 -62 -106 90 -110 244 -9
340 86 83 237 85 321 5 53 -50 70 -98 73 -202 2 -52 8 -108 14 -125 8 -24 9
-12 5 55 -3 47 -5 119 -5 162 l0 76 -87 53 c-83 50 -92 53 -148 51 -60 -2 -60
-2 -31 14 20 11 31 13 39 5 6 -6 16 -11 22 -11 5 0 1 7 -9 15 -11 8 -25 15
-30 14 -6 -1 -64 -31 -128 -67z m-87 -93 l-21 -34 0 27 c0 15 8 31 17 37 26
14 27 7 4 -30z m449 -12 c0 -17 -1 -28 -3 -26 -2 2 -13 21 -25 41 l-21 37 25
-11 c18 -8 24 -19 24 -41z m-435 -255 c-1 -1 -10 0 -19 4 -9 3 -16 17 -16 33
l0 26 19 -30 c10 -16 17 -31 16 -33z m225 -106 c-17 -10 -30 -11 -42 -5 -28
15 -22 19 25 19 41 -1 41 -1 17 -14z"/>
<path d="M283 1070 c1 -40 10 -52 20 -27 7 18 -3 67 -14 67 -4 0 -7 -18 -6
-40z"/>
<path d="M261 1084 c0 -11 3 -14 6 -6 3 7 2 16 -1 19 -3 4 -6 -2 -5 -13z"/>
<path d="M4272 1010 c0 -58 1 -61 8 -26 4 22 4 51 0 65 -6 19 -8 7 -8 -39z"/>
<path d="M3326 1023 c-14 -21 -28 -50 -31 -64 -6 -25 -10 -26 -45 -22 -29 4
-42 1 -59 -16 -21 -21 -29 -75 -12 -85 4 -3 12 -20 16 -38 4 -18 9 -28 11 -23
2 6 21 9 41 7 27 -3 34 -1 28 8 -5 9 -4 11 3 6 6 -4 20 -26 30 -49 10 -23 26
-48 35 -56 39 -32 19 -34 -251 -27 -228 5 -275 4 -312 -9 -58 -20 -113 -63
-106 -82 3 -8 2 -12 -3 -9 -5 3 -18 -10 -30 -29 -11 -20 -27 -38 -36 -41 -8
-3 -13 -9 -10 -13 7 -13 -62 -73 -80 -69 -14 2 -8 10 21 31 21 15 35 27 31 27
-5 0 -29 -16 -54 -35 -40 -31 -43 -35 -22 -35 23 0 23 0 4 -19 -27 -26 -148
-92 -177 -95 -13 -2 -30 -6 -38 -10 -8 -3 -35 -11 -60 -16 -42 -9 -41 -9 17
-4 52 4 63 2 73 -13 10 -16 10 -16 5 3 -5 19 5 26 70 57 41 20 90 47 108 61
36 27 57 21 57 -16 0 -11 7 -18 19 -18 11 0 27 -3 37 -7 12 -4 15 -3 10 5 -4
7 -17 12 -29 12 -15 0 -26 10 -36 31 -13 30 -12 31 33 77 25 25 46 49 46 53 0
4 15 17 34 28 30 19 49 21 190 21 153 0 158 -1 183 -25 15 -13 29 -22 33 -19
3 3 -3 11 -13 18 -9 7 -17 16 -17 20 0 4 86 6 190 4 105 -1 190 0 190 5 0 4
-85 7 -190 7 -181 0 -190 1 -190 19 0 11 5 23 10 26 6 4 8 15 5 26 -4 10 -2
19 4 19 5 0 12 -15 14 -32 l4 -33 1 33 2 32 146 0 c145 0 147 0 211 -32 98
-48 183 -45 285 10 4 2 8 -7 11 -20 3 -16 4 -13 3 7 -1 23 4 31 19 33 22 4 91
129 83 152 -2 7 -9 -5 -16 -27 -16 -53 -74 -119 -133 -148 -38 -20 -64 -25
-119 -25 -127 0 -228 70 -266 183 -29 86 -5 205 48 248 14 11 17 19 10 23 -7
4 -22 -10 -36 -31z m-58 -102 c9 -5 12 -25 10 -57 -3 -45 -5 -49 -30 -52 -58
-7 -93 70 -46 102 25 18 46 20 66 7z m-325 -286 c12 -8 32 -15 44 -15 14 0 23
-6 23 -15 0 -8 5 -15 10 -15 6 0 10 -7 10 -15 0 -13 -24 -15 -155 -15 -85 0
-155 2 -155 5 0 9 107 83 126 87 31 7 74 -1 97 -17z m-165 -5 c-14 -22 -33
-28 -23 -7 4 6 0 4 -8 -5 -8 -10 -19 -18 -25 -18 -6 0 -16 -8 -21 -17 -7 -13
-10 -14 -11 -4 0 16 23 37 65 56 17 8 31 14 33 15 1 0 -3 -9 -10 -20z m260 15
c-11 -11 -59 -15 -74 -7 -11 6 -1 9 32 10 26 1 45 0 42 -3z m-1 -37 c-3 -8 -6
-5 -6 6 -1 11 2 17 5 13 3 -3 4 -12 1 -19z"/>
<path d="M3216 881 c-8 -12 3 -41 15 -41 5 0 9 11 9 25 0 25 -14 34 -24 16z"/>
<path d="M3251 864 c0 -11 3 -14 6 -6 3 7 2 16 -1 19 -3 4 -6 -2 -5 -13z"/>
<path d="M4380 1051 c0 -6 4 -13 10 -16 6 -3 7 1 4 9 -7 18 -14 21 -14 7z"/>
<path d="M2040 1028 c-45 -23 -90 -77 -90 -107 0 -9 9 3 21 26 12 24 36 52 57
65 67 41 171 22 217 -39 26 -36 33 -130 11 -158 -15 -19 -15 -18 -10 15 l6 35
-19 -34 c-10 -19 -24 -37 -32 -39 -10 -3 -7 5 7 23 35 44 30 99 -12 141 -29
29 -41 34 -81 34 -40 0 -52 -5 -81 -34 -28 -28 -34 -42 -34 -76 0 -34 6 -48
34 -76 28 -28 42 -34 76 -34 23 0 51 5 62 11 18 10 20 9 14 -6 -5 -15 -2 -16
21 -11 26 7 27 6 8 -7 -41 -29 -91 -39 -137 -27 -52 14 -84 42 -110 95 -15 32
-18 34 -13 11 8 -39 41 -81 81 -102 19 -10 34 -25 35 -34 0 -10 3 -9 9 5 l9
20 0 -20 c1 -16 3 -17 10 -6 5 8 18 12 30 8 12 -3 21 -1 21 4 0 5 7 9 16 9 10
0 14 -5 10 -16 -3 -8 -2 -12 4 -9 6 3 10 12 10 20 0 8 4 17 10 20 6 3 7 -1 4
-12 -3 -10 1 -7 9 6 11 18 16 20 20 10 3 -8 8 0 12 19 6 24 10 30 16 20 7 -10
11 -7 15 10 5 18 9 20 15 10 5 -8 9 10 9 47 0 36 -4 55 -9 47 -5 -9 -10 -2
-14 22 -8 51 -43 95 -91 117 -54 25 -92 24 -146 -3z m152 -78 c28 -28 30 -36
25 -78 -6 -57 -41 -92 -92 -92 -101 0 -153 103 -86 171 24 24 38 29 76 29 39
0 52 -5 77 -30z"/>
<path d="M2081 897 c0 -21 3 -36 8 -33 5 3 11 -8 15 -24 7 -38 36 -41 36 -4 0
14 -4 23 -10 19 -5 -3 -10 1 -10 9 0 8 -6 19 -14 23 -8 4 -16 17 -19 28 -3 11
-5 4 -6 -18z"/>
<path d="M2802 983 l1 -68 7 50 7 50 3 -60 c2 -59 2 -59 10 -20 9 45 3 83 -17
103 -11 11 -13 2 -11 -55z"/>
<path d="M3408 1023 c-41 -44 -58 -88 -58 -146 0 -69 20 -116 67 -162 41 -39
125 -70 166 -60 19 5 26 2 30 -12 4 -16 5 -16 6 0 0 9 6 17 11 17 6 0 10 -8
11 -17 0 -13 3 -11 11 7 10 24 10 24 18 5 8 -18 9 -18 10 5 1 23 2 23 10 5 7
-18 9 -16 15 12 4 18 11 30 16 27 5 -3 9 3 10 13 0 11 3 13 6 5 8 -20 23 -3
24 26 0 15 5 36 10 47 7 15 8 12 4 -15 -5 -32 -4 -34 9 -15 13 19 20 47 17 70
-1 6 -6 3 -12 -5 -8 -12 -9 -10 -7 10 2 19 10 26 30 28 22 3 27 -1 31 -25 l4
-28 2 28 c1 28 31 40 31 12 0 -12 12 -15 53 -13 51 1 51 2 9 5 -25 3 -45 10
-49 19 -3 8 -13 14 -23 14 -11 0 -20 9 -23 23 l-4 22 -2 -22 c-1 -18 -7 -23
-30 -23 -25 0 -30 5 -34 28 -4 26 -4 26 -6 -4 -1 -28 -5 -33 -37 -39 -20 -3
-38 -4 -40 -2 -3 2 -5 21 -6 41 -1 20 -5 39 -10 42 -4 3 -5 -2 -2 -10 3 -9 1
-16 -5 -16 -6 0 -11 9 -11 20 0 27 -46 48 -101 46 -50 -1 -103 -30 -95 -51 2
-7 -2 -16 -10 -19 -11 -4 -14 -18 -12 -48 3 -37 6 -43 26 -44 12 -1 22 3 22 7
0 9 -15 13 -35 10 -5 -1 -2 5 9 13 10 8 15 20 11 26 -4 6 -2 16 3 23 6 7 11
17 11 22 1 6 6 10 11 10 6 0 14 6 19 13 4 7 16 10 27 7 12 -4 10 -1 -6 9 l-25
16 35 -7 c19 -3 37 -9 40 -12 3 -3 12 -6 20 -6 8 0 15 -7 15 -15 0 -8 7 -15
15 -15 9 0 15 -9 14 -22 0 -12 3 -20 8 -17 4 3 8 -2 8 -10 0 -10 -9 -16 -25
-16 -14 0 -25 5 -25 10 0 23 -19 8 -25 -20 -9 -42 5 -59 22 -27 8 17 19 24 28
21 21 -9 19 -21 -10 -49 -17 -18 -35 -25 -62 -25 -37 0 -66 11 -64 24 1 3 -1
5 -2 4 -2 -2 -11 3 -20 10 -12 10 -17 10 -23 1 -8 -14 33 -52 47 -43 5 3 9 1
9 -5 0 -29 140 3 140 32 1 24 38 56 74 62 32 6 36 5 36 -13 0 -54 -61 -134
-123 -160 -15 -7 -53 -12 -83 -12 -117 0 -204 85 -204 200 0 63 20 113 61 151
17 16 27 29 22 29 -5 0 -21 -12 -35 -27z m87 -73 c-10 -11 -21 -17 -24 -14 -3
3 3 12 13 20 28 20 32 17 11 -6z"/>
<path d="M323 1005 c0 -22 2 -30 4 -17 2 12 2 30 0 40 -3 9 -5 -1 -4 -23z"/>
<path d="M345 1000 c0 -15 3 -26 8 -23 4 2 7 13 7 23 0 10 -3 21 -7 23 -5 3
-8 -8 -8 -23z"/>
<path d="M2065 1010 c-3 -5 -2 -10 4 -10 5 0 13 5 16 10 3 6 2 10 -4 10 -5 0
-13 -4 -16 -10z"/>
<path d="M2108 1013 c7 -3 16 -2 19 1 4 3 -2 6 -13 5 -11 0 -14 -3 -6 -6z"/>
<path d="M2150 1010 c0 -5 5 -10 11 -10 5 0 7 5 4 10 -3 6 -8 10 -11 10 -2 0
-4 -4 -4 -10z"/>
<path d="M2512 1010 c0 -8 4 -26 8 -40 6 -20 8 -21 8 -5 0 11 -3 29 -8 40 -5
12 -8 14 -8 5z"/>
<path d="M4475 940 c44 -46 81 -86 83 -89 1 -2 2 0 2 6 0 11 -64 80 -125 133
-22 19 -4 -3 40 -50z"/>
<path d="M2025 990 c-3 -6 1 -7 9 -4 18 7 21 14 7 14 -6 0 -13 -4 -16 -10z"/>
<path d="M2185 990 c3 -5 11 -10 16 -10 6 0 7 5 4 10 -3 6 -11 10 -16 10 -6 0
-7 -4 -4 -10z"/>
<path d="M1521 974 c0 -11 3 -14 6 -6 3 7 2 16 -1 19 -3 4 -6 -2 -5 -13z"/>
<path d="M4291 974 c0 -11 3 -14 6 -6 3 7 2 16 -1 19 -3 4 -6 -2 -5 -13z"/>
<path d="M2853 915 c0 -33 2 -45 4 -27 2 18 2 45 0 60 -2 15 -4 0 -4 -33z"/>
<path d="M1571 944 c0 -11 3 -14 6 -6 3 7 2 16 -1 19 -3 4 -6 -2 -5 -13z"/>
<path d="M2943 895 c0 -38 2 -53 4 -32 2 20 2 52 0 70 -2 17 -4 1 -4 -38z"/>
<path d="M1533 915 c0 -22 2 -30 4 -17 2 12 2 30 0 40 -3 9 -5 -1 -4 -23z"/>
<path d="M2922 930 c0 -14 2 -19 5 -12 2 6 2 18 0 25 -3 6 -5 1 -5 -13z"/>
<path d="M4311 913 c0 -29 2 -33 8 -18 7 18 4 55 -5 55 -2 0 -4 -17 -3 -37z"/>
<path d="M631 913 c0 -16 4 -37 9 -48 l9 -20 1 20 c2 14 5 11 10 -10 l8 -30 1
28 c1 26 -23 87 -34 87 -3 0 -5 -12 -4 -27z"/>
<path d="M1981 924 c0 -11 3 -14 6 -6 3 7 2 16 -1 19 -3 4 -6 -2 -5 -13z"/>
<path d="M2241 924 c0 -11 3 -14 6 -6 3 7 2 16 -1 19 -3 4 -6 -2 -5 -13z"/>
<path d="M2531 880 c-1 -39 -11 -93 -25 -135 -13 -38 -22 -74 -19 -79 4 -5 2
-6 -3 -3 -6 3 -10 -11 -9 -34 0 -47 9 -50 26 -6 17 44 16 43 18 83 1 28 5 35
18 32 9 -2 20 -14 24 -28 5 -16 7 -1 8 43 1 38 -4 78 -11 90 -7 12 -15 40 -19
62 -6 36 -7 33 -8 -25z m26 -112 c-2 -13 -4 -3 -4 22 0 25 2 35 4 23 2 -13 2
-33 0 -45z"/>
<path d="M2873 895 c0 -27 2 -38 4 -22 2 15 2 37 0 50 -2 12 -4 0 -4 -28z"/>
<path d="M2893 905 c0 -22 2 -30 4 -17 2 12 2 30 0 40 -3 9 -5 -1 -4 -23z"/>
<path d="M1165 920 c3 -5 8 -10 11 -10 2 0 4 5 4 10 0 6 -5 10 -11 10 -5 0 -7
-4 -4 -10z"/>
<path d="M2991 898 c0 -15 -9 -32 -18 -38 -17 -11 -17 -11 0 -6 9 3 17 0 18
-7 0 -7 4 -3 9 8 7 17 9 14 10 -15 1 -33 2 -34 11 -10 11 27 3 74 -11 65 -4
-3 -11 3 -13 12 -3 12 -5 8 -6 -9z"/>
<path d="M3997 902 c-29 -31 -12 -67 18 -42 12 10 15 10 15 0 0 -6 11 2 25 18
30 36 31 42 5 42 -12 0 -20 -6 -18 -12 2 -7 -2 -13 -7 -13 -6 0 -9 6 -9 13 2
17 -10 15 -29 -6z"/>
<path d="M1558 905 c-3 -3 -1 -29 4 -58 5 -28 9 -62 10 -74 0 -13 5 -23 11
-23 6 0 7 24 3 68 -4 37 -8 73 -8 80 -1 12 -11 16 -20 7z"/>
<path d="M921 884 c0 -11 3 -14 6 -6 3 7 2 16 -1 19 -3 4 -6 -2 -5 -13z"/>
<path d="M1971 884 c0 -11 3 -14 6 -6 3 7 2 16 -1 19 -3 4 -6 -2 -5 -13z"/>
<path d="M2251 884 c0 -11 3 -14 6 -6 3 7 2 16 -1 19 -3 4 -6 -2 -5 -13z"/>
<path d="M3145 890 c-3 -5 -1 -10 4 -10 6 0 11 5 11 10 0 6 -2 10 -4 10 -3 0
-8 -4 -11 -10z"/>
<path d="M680 860 c0 -18 4 -29 10 -25 6 3 10 15 10 25 0 10 -4 22 -10 25 -6
4 -10 -7 -10 -25z"/>
<path d="M1945 880 c3 -5 8 -10 11 -10 2 0 4 5 4 10 0 6 -5 10 -11 10 -5 0 -7
-4 -4 -10z"/>
<path d="M4340 881 c0 -6 4 -13 10 -16 6 -3 7 1 4 9 -7 18 -14 21 -14 7z"/>
<path d="M812 845 c2 -21 9 -40 16 -43 18 -6 15 53 -3 68 -14 11 -15 8 -13
-25z"/>
<path d="M2313 840 c0 -25 2 -35 4 -22 2 12 2 32 0 45 -2 12 -4 2 -4 -23z"/>
<path d="M2382 855 c0 -16 2 -22 5 -12 2 9 2 23 0 30 -3 6 -5 -1 -5 -18z"/>
<path d="M3560 859 c0 -38 16 -56 22 -25 3 15 0 31 -8 37 -11 9 -14 7 -14 -12z"/>
<path d="M1130 861 c0 -5 5 -13 10 -16 6 -3 10 -2 10 4 0 5 -4 13 -10 16 -5 3
-10 2 -10 -4z"/>
<path d="M2921 854 c0 -11 3 -14 6 -6 3 7 2 16 -1 19 -3 4 -6 -2 -5 -13z"/>
<path d="M851 844 c0 -11 3 -14 6 -6 3 7 2 16 -1 19 -3 4 -6 -2 -5 -13z"/>
<path d="M1162 810 c1 -47 2 -50 7 -20 l7 35 5 -32 c3 -18 2 -36 -3 -41 -5 -5
1 -8 14 -7 32 2 37 52 8 84 -13 16 -20 19 -21 10 0 -8 -4 -6 -9 6 -6 14 -8 4
-8 -35z"/>
<path d="M1598 785 c-2 -33 -2 -64 1 -70 9 -16 19 88 11 110 -5 14 -9 1 -12
-40z"/>
<path d="M4550 832 c0 -17 -37 -34 -115 -53 -38 -10 -59 -18 -46 -18 67 -2
190 54 168 76 -4 3 -7 1 -7 -5z"/>
<path d="M1091 810 c0 -14 4 -32 9 -40 8 -12 10 -12 9 5 0 11 -4 29 -9 40 -8
18 -9 18 -9 -5z"/>
<path d="M1143 795 c0 -22 2 -30 4 -17 2 12 2 30 0 40 -3 9 -5 -1 -4 -23z"/>
<path d="M925 788 c-4 -13 -19 -38 -32 -56 -14 -18 -23 -36 -20 -39 7 -7 67
86 67 104 0 20 -8 15 -15 -9z"/>
<path d="M2410 745 c0 -32 2 -56 5 -53 7 7 9 97 2 105 -4 3 -7 -20 -7 -52z"/>
<path d="M1122 770 c0 -14 2 -19 5 -12 2 6 2 18 0 25 -3 6 -5 1 -5 -13z"/>
<path d="M1695 765 c12 -56 50 -120 106 -176 75 -77 160 -119 271 -134 38 -5
48 -10 51 -28 l4 -22 2 23 c2 32 29 28 34 -5 4 -26 4 -26 6 5 1 27 5 32 26 32
22 0 25 -4 26 -37 1 -21 3 -30 6 -20 2 9 9 17 14 17 5 0 9 7 9 16 0 8 -4 12
-10 9 -5 -3 -10 -2 -10 4 0 13 38 34 49 26 5 -3 12 1 14 7 3 7 6 3 6 -10 1
-13 5 -21 11 -17 5 3 7 12 3 21 -7 19 28 48 39 31 12 -19 9 -27 -9 -27 -9 0
-13 -3 -10 -7 4 -3 18 0 32 7 19 10 25 22 26 49 l2 36 6 -35 c6 -34 7 -34 19
-13 6 12 12 35 12 51 0 16 7 35 15 42 18 15 18 14 6 -28 -6 -20 -6 -32 0 -32
11 0 9 -5 15 54 l6 48 -60 -61 c-100 -102 -222 -144 -355 -122 -167 28 -278
114 -343 268 -14 32 -22 45 -19 28z m682 -247 c-3 -8 -6 -5 -6 6 -1 11 2 17 5
13 3 -3 4 -12 1 -19z"/>
<path d="M1235 770 c3 -5 8 -10 11 -10 2 0 4 5 4 10 0 6 -5 10 -11 10 -5 0 -7
-4 -4 -10z"/>
<path d="M1621 753 c-1 -36 7 -63 20 -63 12 0 12 33 0 46 -5 5 -11 18 -14 29
-3 13 -5 9 -6 -12z"/>
<path d="M2020 776 c0 -2 7 -7 16 -10 8 -3 12 -2 9 4 -6 10 -25 14 -25 6z"/>
<path d="M270 749 c-7 -11 -9 -27 -6 -36 5 -13 9 -13 22 -3 8 7 12 20 9 28 -3
9 0 19 7 24 10 6 9 8 -4 8 -10 0 -22 -9 -28 -21z"/>
<path d="M326 754 c-20 -19 -21 -54 -2 -54 17 0 29 27 15 36 -6 4 -6 11 2 20
16 19 4 18 -15 -2z m14 -28 c0 -3 -4 -8 -10 -11 -5 -3 -10 -1 -10 4 0 6 5 11
10 11 6 0 10 -2 10 -4z"/>
<path d="M2690 761 c0 -7 -3 -10 -8 -8 -6 4 -7 -49 -3 -110 1 -7 8 -10 16 -7
12 5 14 19 10 66 -2 33 -7 63 -10 66 -3 3 -5 0 -5 -7z"/>
<path d="M2970 760 c0 -5 5 -10 10 -10 6 0 10 5 10 10 0 6 -4 10 -10 10 -5 0
-10 -4 -10 -10z"/>
<path d="M958 753 c10 -4 9 -9 -4 -24 -9 -11 -15 -21 -12 -24 2 -3 14 9 27 25
l22 30 -23 -1 c-13 0 -17 -3 -10 -6z"/>
<path d="M996 743 c-3 -10 -9 -24 -12 -30 -4 -8 2 -13 15 -13 12 0 21 6 21 14
0 8 3 21 6 30 4 10 1 16 -9 16 -8 0 -17 -8 -21 -17z"/>
<path d="M1264 751 c7 -11 46 -35 46 -28 0 3 -12 12 -26 22 -15 9 -23 12 -20
6z"/>
<path d="M2060 756 c0 -2 7 -6 15 -10 8 -3 15 -1 15 4 0 6 -7 10 -15 10 -8 0
-15 -2 -15 -4z"/>
<path d="M3165 750 c-3 -5 -1 -10 5 -10 6 0 4 -11 -6 -27 -16 -27 -15 -27 10
2 14 17 26 33 26 38 0 11 -28 9 -35 -3z"/>
<path d="M4260 750 l-35 -7 40 -1 c22 0 54 4 70 8 l30 8 -35 0 c-19 -1 -51 -4
-70 -8z"/>
<path d="M2108 743 c7 -3 16 -2 19 1 4 3 -2 6 -13 5 -11 0 -14 -3 -6 -6z"/>
<path d="M2590 721 c0 -16 -4 -41 -10 -55 -7 -18 -5 -35 6 -61 8 -20 12 -41 8
-47 -4 -7 -3 -8 4 -4 7 4 12 15 13 24 1 10 4 7 9 -8 l7 -25 12 30 c6 17 14 37
18 45 11 28 9 100 -3 100 -20 0 -33 -24 -37 -70 -3 -31 -4 -25 -3 16 1 38 -3
65 -11 73 -10 9 -13 6 -13 -18z"/>
<path d="M2781 735 c-1 -16 -3 -17 -10 -6 -8 12 -11 9 -16 -12 -9 -34 1 -61
11 -29 4 13 10 19 13 14 3 -6 11 0 18 14 6 13 7 22 3 19 -5 -3 -11 1 -13 7 -3
7 -6 4 -6 -7z"/>
<path d="M3214 735 c-3 -8 -3 -18 0 -24 3 -5 0 -12 -6 -14 -9 -4 -8 -6 3 -6
20 -1 39 19 39 41 0 21 -28 24 -36 3z m26 1 c0 -3 -4 -8 -10 -11 -5 -3 -10 -1
-10 4 0 6 5 11 10 11 6 0 10 -2 10 -4z"/>
<path d="M2382 720 c0 -14 2 -19 5 -12 2 6 2 18 0 25 -3 6 -5 1 -5 -13z"/>
<path d="M3558 733 c7 -3 16 -2 19 1 4 3 -2 6 -13 5 -11 0 -14 -3 -6 -6z"/>
<path d="M4100 724 c-35 -7 -86 -24 -112 -37 l-48 -24 3 26 c1 14 -2 27 -8 29
-5 1 -11 -16 -13 -39 -2 -27 0 -39 7 -34 7 3 11 -3 11 -15 0 -12 7 -35 16 -51
l15 -31 -260 3 c-143 1 -264 0 -268 -4 -3 -4 118 -7 270 -7 l277 0 -20 33
c-51 83 -17 109 210 156 35 7 38 9 15 9 -16 0 -59 -6 -95 -14z"/>
<path d="M3530 716 c0 -8 5 -18 10 -21 6 -3 10 1 10 9 0 8 -4 18 -10 21 -5 3
-10 -1 -10 -9z"/>
<path d="M3605 719 c-4 -6 -5 -12 -2 -15 2 -3 7 2 10 11 7 17 1 20 -8 4z"/>
<path d="M3570 705 c0 -8 5 -15 10 -15 6 0 10 7 10 15 0 8 -4 15 -10 15 -5 0
-10 -7 -10 -15z"/>
<path d="M2720 680 c0 -5 5 -10 10 -10 6 0 10 5 10 10 0 6 -4 10 -10 10 -5 0
-10 -4 -10 -10z"/>
<path d="M3830 636 c0 -30 5 -58 10 -61 6 -4 10 15 10 49 0 30 -4 58 -10 61
-6 4 -10 -15 -10 -49z"/>
<path d="M1630 665 c-11 -13 -10 -14 4 -9 9 3 16 10 16 15 0 13 -6 11 -20 -6z"/>
<path d="M3809 663 c-6 -41 -5 -73 2 -73 5 0 9 18 9 40 0 22 -2 40 -5 40 -3 0
-5 -3 -6 -7z"/>
<path d="M3873 630 c0 -25 2 -35 4 -22 2 12 2 32 0 45 -2 12 -4 2 -4 -23z"/>
<path d="M912 640 c0 -14 2 -19 5 -12 2 6 2 18 0 25 -3 6 -5 1 -5 -13z"/>
<path d="M930 641 c0 -5 3 -17 6 -26 5 -13 8 -14 15 -3 12 19 11 25 -6 32 -8
3 -15 1 -15 -3z"/>
<path d="M1070 636 c0 -8 5 -18 10 -21 6 -3 10 3 10 14 0 12 -4 21 -10 21 -5
0 -10 -6 -10 -14z"/>
<path d="M1535 640 c3 -5 8 -10 11 -10 2 0 4 5 4 10 0 6 -5 10 -11 10 -5 0 -7
-4 -4 -10z"/>
<path d="M971 614 c0 -11 3 -14 6 -6 3 7 2 16 -1 19 -3 4 -6 -2 -5 -13z"/>
<path d="M990 623 c0 -3 7 -11 15 -19 13 -14 15 -13 15 4 0 10 -7 19 -15 19
-8 0 -15 -2 -15 -4z"/>
<path d="M3092 605 c0 -16 2 -22 5 -12 2 9 2 23 0 30 -3 6 -5 -1 -5 -18z"/>
<path d="M3132 610 c0 -14 2 -19 5 -12 2 6 2 18 0 25 -3 6 -5 1 -5 -13z"/>
<path d="M1565 610 c-4 -6 -3 -9 2 -8 4 1 18 -3 31 -10 30 -17 28 -8 -2 12
-16 10 -27 12 -31 6z"/>
<path d="M2191 604 c0 -11 3 -14 6 -6 3 7 2 16 -1 19 -3 4 -6 -2 -5 -13z"/>
<path d="M3112 600 c0 -14 2 -19 5 -12 2 6 2 18 0 25 -3 6 -5 1 -5 -13z"/>
<path d="M3162 595 c0 -16 2 -22 5 -12 2 9 2 23 0 30 -3 6 -5 -1 -5 -18z"/>
<path d="M3751 594 c0 -11 3 -14 6 -6 3 7 2 16 -1 19 -3 4 -6 -2 -5 -13z"/>
<path d="M365 570 c-3 -5 1 -10 9 -10 9 0 16 5 16 10 0 6 -4 10 -9 10 -6 0
-13 -4 -16 -10z"/>
<path d="M415 569 c-15 -6 -11 -8 18 -8 20 -1 37 1 37 3 0 9 -37 12 -55 5z"/>
<path d="M493 563 c9 -2 25 -2 35 0 9 3 1 5 -18 5 -19 0 -27 -2 -17 -5z"/>
<path d="M1676 551 c-4 -5 -2 -12 3 -15 5 -4 12 -2 15 3 4 5 2 12 -3 15 -5 4
-12 2 -15 -3z"/>
<path d="M1710 520 c0 -5 5 -10 11 -10 5 0 7 5 4 10 -3 6 -8 10 -11 10 -2 0
-4 -4 -4 -10z"/>
<path d="M923 487 c3 -7 -4 -19 -14 -25 -23 -14 -25 -32 -4 -32 8 0 12 6 9 14
-3 8 3 16 15 19 25 6 28 37 5 37 -9 0 -14 -6 -11 -13z"/>
<path d="M970 485 c0 -8 -4 -15 -10 -15 -13 0 -13 -27 1 -36 14 -8 26 5 34 39
6 21 4 27 -9 27 -9 0 -16 -7 -16 -15z m10 -29 c0 -3 -4 -8 -10 -11 -5 -3 -10
-1 -10 4 0 6 5 11 10 11 6 0 10 -2 10 -4z"/>
<path d="M1217 470 c-18 -35 -15 -37 38 -38 22 0 34 2 28 5 -19 7 -16 20 7 26
24 6 27 37 4 37 -10 0 -14 -6 -11 -14 3 -8 -1 -17 -9 -20 -24 -9 -26 -8 -19
14 10 32 -21 24 -38 -10z m23 -14 c0 -3 -4 -8 -10 -11 -5 -3 -10 -1 -10 4 0 6
5 11 10 11 6 0 10 -2 10 -4z"/>
<path d="M2450 480 c-9 -6 -10 -10 -3 -10 6 0 15 5 18 10 8 12 4 12 -15 0z"/>
<path d="M3045 460 c-15 -30 -15 -30 10 -30 15 0 25 6 25 14 0 8 3 21 6 30 11
30 -25 17 -41 -14z"/>
<path d="M3124 468 c1 -13 -6 -26 -14 -30 -11 -5 -9 -7 8 -7 16 -1 22 5 22 19
0 11 0 23 1 27 0 4 -4 9 -9 11 -5 1 -9 -8 -8 -20z"/>
<path d="M2270 450 c-13 -8 -12 -10 3 -10 9 0 17 5 17 10 0 12 -1 12 -20 0z"/>
<path d="M2090 420 c0 -5 5 -10 10 -10 6 0 10 5 10 10 0 6 -4 10 -10 10 -5 0
-10 -4 -10 -10z"/>
<path d="M2188 423 c7 -3 16 -2 19 1 4 3 -2 6 -13 5 -11 0 -14 -3 -6 -6z"/>
<path d="M2250 345 c0 -5 4 -17 10 -25 6 -9 5 -17 -3 -23 -9 -6 -8 -7 2 -5 21
6 23 21 6 43 -8 11 -14 16 -15 10z"/>
<path d="M2637 322 c-22 -24 -21 -32 2 -32 10 0 22 7 25 16 14 37 0 46 -27 16z"/>
<path d="M2696 323 c-3 -10 -9 -24 -12 -30 -4 -8 2 -13 15 -13 18 0 41 32 41
56 0 13 -39 1 -44 -13z"/>
<path d="M2108 243 c12 -2 32 -2 45 0 12 2 2 4 -23 4 -25 0 -35 -2 -22 -4z"/>
<path d="M970 160 c0 -47 3 -60 15 -60 9 0 15 9 15 25 0 16 6 25 15 25 8 0 15
5 15 10 0 6 -7 10 -15 10 -8 0 -15 7 -15 15 0 9 9 15 25 15 14 0 25 5 25 10 0
6 -18 10 -40 10 l-40 0 0 -60z"/>
<path d="M1100 160 c0 -33 4 -60 10 -60 6 0 10 27 10 60 0 33 -4 60 -10 60 -6
0 -10 -27 -10 -60z"/>
<path d="M1179 193 c-15 -41 0 -87 31 -91 30 -5 55 25 39 45 -18 21 -30 15
-23 -12 5 -19 2 -25 -9 -25 -9 0 -18 13 -22 29 -9 44 24 96 38 59 2 -7 8 -10
12 -6 12 12 -5 28 -31 28 -18 0 -27 -8 -35 -27z"/>
<path d="M1421 183 c-38 -45 -38 -53 -6 -53 16 0 25 -6 25 -15 0 -21 30 -19
31 3 3 34 -3 87 -11 95 -4 5 -21 -9 -39 -30z m24 -23 c3 -5 -1 -10 -10 -10 -9
0 -13 5 -10 10 3 6 8 10 10 10 2 0 7 -4 10 -10z"/>
<path d="M2330 215 c0 -5 5 -17 10 -25 5 -8 10 -10 10 -5 0 6 -5 17 -10 25 -5
8 -10 11 -10 5z"/>
<path d="M2376 189 c3 -5 11 -6 17 -2 7 4 6 -1 -2 -10 -16 -20 -14 -24 13 -29
14 -2 21 5 26 24 7 24 6 26 -26 26 -19 0 -31 -4 -28 -9z"/>
<path d="M2360 160 c-6 -11 -8 -20 -6 -20 3 0 10 9 16 20 6 11 8 20 6 20 -3 0
-10 -9 -16 -20z"/>
<path d="M1270 99 c0 -5 5 -7 10 -4 6 3 10 8 10 11 0 2 -4 4 -10 4 -5 0 -10
-5 -10 -11z"/>
</g>
</svg>
