<?xml version="1.0" standalone="no"?>
<!DOCTYPE svg PUBLIC "-//W3C//DTD SVG 20010904//EN"
 "http://www.w3.org/TR/2001/REC-SVG-20010904/DTD/svg10.dtd">
<svg version="1.0" xmlns="http://www.w3.org/2000/svg"
 width="169.000000pt" height="112.000000pt" viewBox="0 0 169.000000 112.000000"
 preserveAspectRatio="xMidYMid meet">
<metadata>
Created by potrace 1.13, written by Peter Selinger 2001-2015
</metadata>
<g transform="translate(0.000000,112.000000) scale(0.100000,-0.100000)"
fill="#000000" stroke="none">
<path d="M833 1070 c-25 -10 -53 -58 -53 -90 0 -30 27 -77 50 -90 14 -8 20
-21 20 -46 0 -25 -3 -33 -12 -28 -10 6 -10 4 0 -8 10 -12 13 -59 11 -187 -1
-94 -3 -171 -4 -171 -5 0 -95 52 -95 55 0 1 11 5 25 7 13 3 22 1 19 -3 -2 -4
4 -13 15 -18 29 -16 38 -13 15 4 -16 13 -16 14 -1 9 28 -10 20 15 -10 29 -21
9 -27 9 -31 -1 -11 -33 -61 3 -63 46 -2 23 -2 24 -6 5 -2 -12 3 -36 12 -53 9
-17 13 -35 10 -40 -3 -5 18 -21 47 -36 29 -14 54 -27 56 -29 7 -6 -12 -35 -23
-35 -16 0 -40 -28 -31 -37 3 -4 17 3 29 15 13 12 27 19 32 15 4 -5 6 6 3 23
-3 23 -1 31 9 27 7 -3 11 -9 8 -13 -3 -4 2 -11 11 -14 8 -3 12 -2 9 4 -3 6 1
7 9 4 20 -8 22 35 4 55 -11 11 -10 13 2 9 19 -6 25 -54 10 -73 -9 -11 -4 -18
28 -34 29 -15 39 -16 39 -6 0 7 -5 11 -12 9 -6 -3 -11 5 -12 16 -2 25 -3 26
65 -9 40 -20 63 -27 73 -20 12 7 12 9 -1 10 -8 1 -21 1 -29 0 -7 -2 -11 2 -8
7 7 11 -28 42 -48 42 -19 0 -28 17 -13 24 7 3 0 2 -16 -1 -27 -6 -28 -4 -24
25 3 20 0 33 -9 36 -10 4 -13 40 -12 161 l0 155 25 0 c15 0 24 6 24 15 0 12
-4 13 -19 5 -28 -14 -31 -13 -31 15 0 14 8 29 20 35 11 6 27 25 36 42 44 86
-57 177 -153 138z m91 -13 c7 -7 12 -22 11 -34 -1 -15 2 -20 9 -14 16 13 12
-64 -3 -83 -7 -8 -19 -12 -27 -9 -8 3 -14 0 -14 -6 0 -6 -7 -11 -15 -11 -8 0
-15 5 -15 11 0 6 -6 9 -14 6 -19 -8 -44 25 -36 49 9 24 1 46 -14 38 -6 -3 -2
2 8 10 11 9 16 16 11 16 -4 0 0 9 10 20 20 23 70 27 89 7z m-28 -203 c-3 -8
-2 -12 3 -9 11 6 15 -293 5 -319 -3 -9 -12 -16 -19 -16 -11 0 -15 26 -17 108
-5 178 0 252 19 252 10 0 13 -6 9 -16z m38 -359 c6 -16 -3 -19 -29 -9 -13 5
-14 8 -3 15 19 12 25 11 32 -6z m-144 -25 c22 -11 40 -23 40 -25 0 -5 -79 32
-89 41 -11 10 14 2 49 -16z m90 -6 c0 -14 -4 -23 -9 -20 -5 3 -7 15 -4 26 7
28 13 25 13 -6z m130 -59 c25 -13 41 -24 35 -24 -5 0 -30 11 -55 24 -25 13
-40 24 -35 24 6 0 30 -11 55 -24z m-70 -15 c8 -5 11 -10 5 -10 -5 0 -17 5 -25
10 -8 5 -10 10 -5 10 6 0 17 -5 25 -10z"/>
<path d="M890 960 c-9 -6 -10 -10 -3 -10 6 0 15 5 18 10 8 12 4 12 -15 0z"/>
<path d="M922 950 c-6 -10 -8 -21 -3 -24 13 -8 31 18 23 31 -6 9 -11 6 -20 -7z"/>
<path d="M839 947 c6 -8 7 -18 3 -22 -4 -5 -1 -5 6 -1 10 6 10 11 1 22 -6 8
-14 14 -16 14 -3 0 0 -6 6 -13z"/>
<path d="M1125 889 c-5 -8 -5 -11 -1 -7 4 3 16 -2 27 -13 21 -21 39 -18 39 7
0 16 -16 19 -25 3 -5 -6 -11 -4 -19 7 -11 14 -14 15 -21 3z"/>
<path d="M637 869 c-73 -17 -136 -57 -165 -105 -22 -36 -37 -48 -82 -65 -30
-12 -86 -26 -123 -33 -38 -6 -72 -18 -77 -26 -14 -22 0 -259 16 -292 20 -38
50 -56 116 -69 51 -10 64 -18 101 -59 77 -85 129 -107 302 -126 85 -9 332 -9
385 1 25 4 61 16 80 25 19 9 50 20 69 24 50 9 191 95 209 126 9 15 28 32 43
37 34 13 65 78 48 100 -10 11 -14 10 -25 -4 -15 -21 -18 -37 -5 -29 5 4 7 -3
4 -15 -4 -14 -8 -17 -13 -9 -6 9 -13 9 -29 1 -28 -16 -27 -25 2 -11 21 11 21
10 -2 -10 -17 -14 -26 -17 -31 -10 -5 8 -9 6 -14 -5 -9 -24 -8 -27 6 -19 7 5
8 3 4 -5 -5 -7 -11 -10 -14 -7 -8 8 -33 -15 -27 -25 3 -4 -8 -15 -24 -24 -36
-18 -45 -19 -35 -3 10 15 -67 -31 -84 -52 -8 -8 -11 -9 -7 -2 9 18 -6 15 -22
-5 -8 -10 -12 -12 -8 -5 15 29 -77 -3 -102 -37 -7 -10 -12 -11 -13 -4 0 9 -8
8 -27 -3 -34 -17 -60 -18 -66 -1 -4 10 -6 10 -6 0 -1 -7 -13 -13 -28 -12 -25
0 -26 1 -8 9 12 5 14 9 6 9 -8 1 -22 -6 -30 -13 -12 -11 -21 -12 -31 -5 -12 9
-12 10 3 5 9 -3 17 -1 17 4 0 9 -95 14 -267 15 -28 0 -49 3 -47 7 3 4 -12 10
-33 14 -21 4 -51 13 -66 21 -15 7 -33 11 -40 7 -7 -4 -9 -4 -5 1 4 4 -8 25
-28 47 -19 21 -32 43 -29 48 4 6 0 10 -9 10 -8 0 -22 3 -32 7 -12 4 -15 3 -10
-5 5 -8 2 -10 -8 -6 -9 3 -13 11 -9 16 4 7 -4 9 -20 6 -15 -3 -24 -1 -21 3 3
5 0 9 -5 9 -6 0 -11 -5 -11 -12 0 -6 -6 -3 -14 7 -9 12 -19 16 -32 11 -10 -4
-16 -4 -12 -1 3 3 -5 17 -18 30 -19 19 -24 35 -24 72 0 26 -5 76 -10 111 -12
69 -2 102 28 102 28 0 172 39 202 55 15 8 36 31 47 52 15 30 34 45 86 71 89
44 149 51 210 24 65 -29 59 -17 -5 13 -57 26 -72 28 -131 14z m687 -674 c-10
-8 -23 -14 -29 -14 -5 0 -1 6 9 14 11 8 24 15 30 15 5 0 1 -7 -10 -15z m-119
-38 c-23 -16 -63 -32 -52 -21 10 10 51 32 62 33 5 1 1 -5 -10 -12z m-432 -44
c-7 -2 -19 -2 -25 0 -7 3 -2 5 12 5 14 0 19 -2 13 -5z m130 0 c-7 -2 -19 -2
-25 0 -7 3 -2 5 12 5 14 0 19 -2 13 -5z"/>
<path d="M1208 873 c6 -2 9 -10 6 -15 -4 -7 -2 -8 4 -4 18 11 14 26 -5 25 -11
0 -13 -3 -5 -6z"/>
<path d="M1117 863 c-13 -12 -7 -23 11 -22 10 0 12 3 4 6 -6 2 -10 9 -6 14 6
10 0 12 -9 2z"/>
<path d="M977 730 c12 -13 93 -52 93 -45 0 3 -24 16 -52 31 -29 14 -48 21 -41
14z"/>
<path d="M590 685 c-11 -13 -10 -14 5 -9 12 5 16 4 12 -3 -7 -12 15 -23 41
-22 11 0 12 2 4 6 -6 2 -9 10 -5 16 4 7 -1 6 -10 -2 -15 -12 -17 -11 -17 8 0
25 -12 27 -30 6z"/>
<path d="M978 693 c7 -3 16 -2 19 1 4 3 -2 6 -13 5 -11 0 -14 -3 -6 -6z"/>
<path d="M678 673 c7 -3 16 -2 19 1 4 3 -2 6 -13 5 -11 0 -14 -3 -6 -6z"/>
<path d="M1080 675 c0 -2 18 -14 40 -25 22 -11 40 -18 40 -15 0 2 -18 14 -40
25 -22 11 -40 18 -40 15z"/>
<path d="M818 653 c7 -3 16 -2 19 1 4 3 -2 6 -13 5 -11 0 -14 -3 -6 -6z"/>
<path d="M710 621 c0 -6 17 -7 38 -4 51 8 53 13 4 13 -23 0 -42 -4 -42 -9z"/>
<path d="M1170 625 c0 -2 18 -14 40 -25 22 -11 40 -18 40 -15 0 2 -18 14 -40
25 -22 11 -40 18 -40 15z"/>
<path d="M628 613 c12 -2 30 -2 40 0 9 3 -1 5 -23 4 -22 0 -30 -2 -17 -4z"/>
<path d="M470 589 c0 -5 12 -9 27 -9 30 0 27 9 -6 15 -11 2 -21 0 -21 -6z"/>
<path d="M1260 576 c0 -3 14 -12 30 -21 17 -9 30 -13 30 -11 0 3 -13 12 -30
21 -16 9 -30 13 -30 11z"/>
<path d="M308 563 c6 -2 18 -2 25 0 6 3 1 5 -13 5 -14 0 -19 -2 -12 -5z"/>
<path d="M358 563 c7 -3 16 -2 19 1 4 3 -2 6 -13 5 -11 0 -14 -3 -6 -6z"/>
<path d="M1330 536 c0 -3 9 -10 20 -16 11 -6 20 -8 20 -6 0 3 -9 10 -20 16
-11 6 -20 8 -20 6z"/>
<path d="M535 510 c-8 -24 14 -55 22 -32 3 6 14 12 24 12 13 0 18 -4 13 -12
-4 -6 -3 -8 3 -5 6 4 10 17 9 29 -1 18 -8 24 -33 26 -25 3 -33 -1 -38 -18z
m55 0 c0 -5 -9 -10 -20 -10 -11 0 -20 -5 -20 -12 0 -6 -2 -9 -5 -6 -3 3 -3 13
1 22 7 17 44 23 44 6z"/>
<path d="M1213 498 c-20 -27 -21 -34 -2 -34 13 0 19 7 19 23 0 26 -3 28 -17
11z"/>
<path d="M1247 503 c-4 -3 -7 -15 -7 -25 0 -19 25 -25 35 -8 4 6 -1 7 -11 3
-14 -5 -16 -2 -12 15 6 23 5 26 -5 15z"/>
<path d="M1380 506 c0 -3 14 -12 30 -21 17 -9 30 -13 30 -11 0 3 -13 12 -30
21 -16 9 -30 13 -30 11z"/>
<path d="M613 464 c-35 -19 -63 -38 -63 -41 0 -2 20 7 44 21 52 30 56 31 56
11 0 -13 2 -13 14 -3 7 7 11 19 9 25 -3 8 3 13 13 13 14 0 16 -2 6 -9 -10 -6
-9 -10 7 -14 16 -4 21 0 21 14 0 29 -36 24 -107 -17z"/>
<path d="M998 488 c11 -11 149 -23 140 -13 -4 4 -39 11 -78 14 -38 4 -66 3
-62 -1z"/>
<path d="M676 451 c-3 -5 0 -11 8 -14 15 -6 26 1 26 15 0 11 -27 10 -34 -1z"/>
<path d="M1058 453 c12 -2 32 -2 45 0 12 2 2 4 -23 4 -25 0 -35 -2 -22 -4z"/>
<path d="M1470 456 c0 -3 14 -12 30 -21 17 -9 30 -13 30 -11 0 3 -13 12 -30
21 -16 9 -30 13 -30 11z"/>
<path d="M720 436 c0 -20 15 -31 42 -31 19 -1 24 3 18 11 -6 6 -7 13 -4 16 3
3 -9 8 -26 10 -17 3 -30 0 -30 -6z"/>
<path d="M1010 440 c0 -5 12 -10 28 -9 24 0 25 1 7 9 -27 12 -35 12 -35 0z"/>
<path d="M610 420 c0 -5 7 -10 16 -10 8 0 12 5 9 10 -3 6 -10 10 -16 10 -5 0
-9 -4 -9 -10z"/>
<path d="M498 399 c-21 -11 -38 -22 -38 -24 0 -3 18 4 40 15 22 11 40 23 40
25 0 7 0 7 -42 -16z"/>
<path d="M1430 403 c0 -10 4 -14 8 -8 11 16 34 17 44 3 7 -10 9 -10 5 2 -2 8
-16 16 -30 18 -21 3 -27 -1 -27 -15z"/>
<path d="M576 399 c3 -5 9 -7 14 -4 4 3 13 -2 20 -10 11 -13 10 -14 -4 -9 -9
3 -16 1 -16 -4 0 -19 18 -23 33 -7 9 8 21 15 27 15 6 0 8 5 5 10 -4 6 -14 10
-23 9 -10 -1 -19 0 -22 1 -19 7 -39 7 -34 -1z"/>
<path d="M1080 400 c14 -4 36 -8 50 -8 l25 0 -25 8 c-14 4 -36 8 -50 8 l-25 0
25 -8z"/>
<path d="M534 384 c-10 -8 -13 -12 -5 -8 9 4 12 3 7 -4 -4 -6 -13 -9 -21 -5
-18 6 -20 -8 -3 -25 17 -17 55 -15 62 3 3 8 1 15 -4 15 -6 0 -10 -4 -10 -10 0
-5 -10 -9 -22 -9 -17 1 -19 2 -5 6 9 2 17 11 17 19 0 8 4 12 10 9 6 -3 7 1 4
9 -7 19 -6 19 -30 0z"/>
<path d="M1186 388 c7 -11 34 -10 34 1 0 6 -9 9 -19 8 -11 0 -17 -5 -15 -9z"/>
<path d="M1238 383 c7 -3 16 -2 19 1 4 3 -2 6 -13 5 -11 0 -14 -3 -6 -6z"/>
<path d="M1280 378 c0 -4 14 -8 30 -8 17 0 30 2 30 4 0 2 -13 6 -30 8 -16 3
-30 1 -30 -4z"/>
<path d="M1358 373 c6 -2 18 -2 25 0 6 3 1 5 -13 5 -14 0 -19 -2 -12 -5z"/>
<path d="M430 355 c-16 -19 -7 -31 43 -56 23 -12 38 -18 34 -13 -4 4 3 14 15
21 21 12 21 13 3 11 -11 -2 -23 -7 -26 -11 -7 -10 -69 19 -69 31 0 5 5 13 12
20 7 7 9 12 6 12 -3 0 -11 -7 -18 -15z"/>
<path d="M994 347 c1 -14 -6 -23 -23 -27 -25 -6 -52 -52 -28 -49 34 4 40 -3
15 -17 -38 -20 -36 -29 2 -9 19 10 27 20 24 30 -4 9 0 15 9 15 11 0 14 -8 10
-35 -4 -30 -2 -35 21 -41 14 -3 26 -11 26 -17 0 -6 10 -2 22 10 20 21 20 23 4
47 -9 14 -24 26 -32 26 -13 0 -14 3 -4 15 6 8 9 18 6 24 -3 5 -1 11 5 13 6 2
-5 11 -24 20 -33 16 -34 16 -33 -5z m36 -7 c8 -5 11 -10 5 -10 -5 0 -17 5 -25
10 -8 5 -10 10 -5 10 6 0 17 -5 25 -10z m10 -30 c0 -15 -24 -24 -28 -12 -3 9
-9 9 -23 1 -11 -6 -25 -8 -32 -6 -7 3 -4 8 8 12 11 3 27 10 35 14 17 9 40 3
40 -9z m20 -50 c12 -8 12 -10 -3 -14 -49 -16 -48 -16 -37 4 12 22 18 24 40 10z
m-3 -36 c-3 -3 -12 -4 -19 -1 -8 3 -5 6 6 6 11 1 17 -2 13 -5z"/>
<path d="M467 346 c-14 -11 -15 -15 -4 -19 20 -7 44 10 32 22 -7 6 -16 5 -28
-3z"/>
<path d="M690 349 c0 -5 -5 -7 -10 -4 -6 3 -13 -1 -16 -9 -3 -9 -10 -13 -15
-10 -5 3 -9 -3 -9 -13 0 -15 -2 -16 -10 -3 -7 11 -10 11 -10 2 0 -7 -5 -10
-10 -7 -6 3 -13 -1 -16 -9 -3 -9 -10 -13 -15 -10 -5 3 -9 1 -9 -5 0 -18 17
-21 30 -6 7 8 17 15 22 15 5 0 24 11 42 25 18 14 36 22 40 18 4 -4 4 0 0 10
-7 19 -14 22 -14 6z"/>
<path d="M885 338 c2 -10 0 -20 -5 -23 -5 -3 -7 -12 -4 -20 5 -11 10 -12 24
-2 14 8 16 13 7 19 -8 5 -3 8 11 8 35 0 25 35 -10 35 -20 1 -25 -3 -23 -17z"/>
<path d="M1087 344 c-9 -15 18 -38 35 -31 9 4 7 6 -4 6 -9 1 -18 9 -20 19 -2
11 -6 13 -11 6z"/>
<path d="M1218 323 c7 -3 16 -2 19 1 4 3 -2 6 -13 5 -11 0 -14 -3 -6 -6z"/>
<path d="M670 298 c-51 -33 -63 -45 -49 -54 7 -4 17 0 24 9 15 21 21 21 29 1
3 -9 2 -12 -5 -9 -6 4 -13 -2 -16 -14 -4 -17 -9 -19 -24 -10 -10 5 -19 7 -19
4 0 -2 27 -19 61 -35 34 -17 58 -27 55 -22 -3 5 1 15 9 22 8 7 15 20 15 29 -1
11 -5 9 -14 -8 -7 -13 -15 -20 -18 -15 -3 5 -3 3 -2 -3 2 -7 1 -13 -2 -13 -6
0 -46 20 -54 27 -8 7 55 55 96 73 23 10 44 23 48 28 9 16 -32 8 -53 -10 -16
-13 -22 -14 -30 -4 -6 7 -8 16 -4 19 14 15 -14 5 -47 -15z m44 -7 c8 -12 -21
-34 -34 -26 -16 10 -11 25 7 18 11 -4 14 -3 9 5 -4 7 -3 12 3 12 5 0 12 -4 15
-9z"/>
<path d="M1291 306 c-9 -11 -9 -15 0 -18 23 -8 69 4 69 18 0 17 -12 18 -28 2
-10 -10 -14 -10 -21 0 -6 10 -10 10 -20 -2z"/>
<path d="M847 283 c-12 -12 -7 -22 8 -17 8 4 15 10 15 15 0 11 -14 12 -23 2z"/>
<path d="M524 271 c4 -5 -8 -12 -26 -14 -30 -4 -29 -5 7 -5 60 0 62 -1 79 -18
9 -8 16 -11 16 -5 0 6 -18 20 -41 32 -23 11 -38 16 -35 10z"/>
<path d="M814 265 c4 -11 0 -15 -11 -13 -9 2 -18 -3 -20 -9 -3 -10 2 -11 19
-4 24 9 38 41 18 41 -7 0 -9 -7 -6 -15z"/>
<path d="M865 249 c-53 -29 -94 -63 -88 -72 4 -6 0 -8 -10 -4 -8 3 -18 0 -21
-8 -2 -7 2 -16 10 -19 23 -9 31 -7 15 3 -11 7 -9 10 7 15 11 4 23 14 26 22 3
9 11 12 18 8 7 -4 10 -4 6 0 -9 10 14 36 25 29 12 -7 57 18 51 29 -7 10 -14
10 -39 -3z"/>
<path d="M1380 250 c-9 -6 -10 -10 -3 -10 6 0 15 5 18 10 8 12 4 12 -15 0z"/>
<path d="M1100 230 c0 -5 9 -10 21 -10 11 0 17 5 14 10 -3 6 -13 10 -21 10 -8
0 -14 -4 -14 -10z"/>
<path d="M838 184 c-38 -20 -36 -28 2 -9 17 9 30 18 30 20 0 7 -1 6 -32 -11z"/>
<path d="M965 190 c-38 -7 -38 -7 18 -9 32 0 57 3 57 9 0 11 -14 11 -75 0z"/>
<path d="M860 160 c-12 -8 -10 -9 10 -9 14 1 39 5 55 9 29 7 29 8 -10 9 -22 0
-47 -4 -55 -9z"/>
<path d="M1055 130 c-13 -5 -14 -9 -5 -9 8 0 24 4 35 9 13 5 14 9 5 9 -8 0
-24 -4 -35 -9z"/>
</g>
</svg>
