<?xml version="1.0" standalone="no"?>
<!DOCTYPE svg PUBLIC "-//W3C//DTD SVG 20010904//EN"
 "http://www.w3.org/TR/2001/REC-SVG-20010904/DTD/svg10.dtd">
<svg version="1.0" xmlns="http://www.w3.org/2000/svg"
 width="1100.000000pt" height="365.000000pt" viewBox="0 0 1100.000000 365.000000"
 preserveAspectRatio="xMidYMid meet">
<metadata>
Created by potrace 1.13, written by Peter Selinger 2001-2015
</metadata>
<g transform="translate(0.000000,365.000000) scale(0.100000,-0.100000)"
fill="#000000" stroke="none">
<path d="M8228 3396 c-22 -16 -23 -26 -3 -26 12 0 15 -13 15 -55 0 -30 5 -55
10 -55 6 0 10 32 10 75 0 41 -3 75 -7 75 -5 0 -16 -7 -25 -14z"/>
<path d="M8326 3402 c-13 -21 -17 -89 -7 -114 8 -22 17 -28 39 -28 39 0 52 17
52 68 0 59 -14 82 -50 82 -16 0 -31 -4 -34 -8z m64 -67 c0 -51 -20 -74 -44
-50 -35 35 -6 134 30 104 8 -6 14 -30 14 -54z"/>
<path d="M8099 3266 c-32 -12 -83 -37 -114 -55 -43 -25 -60 -29 -70 -21 -11 9
-24 -3 -64 -57 -28 -37 -50 -71 -51 -75 0 -15 148 84 153 102 5 20 111 77 195
104 28 10 52 19 52 22 0 11 -51 1 -101 -20z"/>
<path d="M2881 3136 c-21 -26 -25 -83 -7 -111 29 -45 86 -28 86 26 0 35 -23
53 -56 45 -27 -7 -27 -7 -11 16 16 24 19 24 50 13 13 -6 16 -3 11 9 -8 20 -57
21 -73 2z m57 -85 c3 -22 -11 -40 -31 -41 -4 0 -12 12 -18 27 -7 20 -6 28 3
35 22 14 43 4 46 -21z"/>
<path d="M3030 3140 c0 -5 -7 -10 -15 -10 -8 0 -15 -5 -15 -11 0 -6 7 -9 15
-5 12 4 15 -5 15 -49 0 -29 5 -57 10 -60 6 -4 10 22 10 69 0 44 -4 76 -10 76
-5 0 -10 -4 -10 -10z"/>
<path d="M2823 2913 c-52 -96 -111 -259 -150 -415 l-36 -148 -72 0 c-73 0 -73
0 -85 33 -42 105 -198 307 -238 307 -9 0 13 -29 54 -72 81 -85 101 -111 143
-194 37 -73 37 -74 11 -74 -19 0 -20 -7 -20 -143 0 -142 0 -144 -24 -155 -20
-9 -27 -8 -37 5 -21 24 -125 92 -175 114 -77 32 -75 15 3 -23 85 -42 174 -108
168 -125 -2 -7 11 -24 30 -39 l35 -26 0 -89 0 -89 -220 0 -220 0 11 27 c6 15
15 33 21 40 15 19 2 29 -17 13 -41 -34 -39 -114 5 -228 24 -63 26 -122 4 -163
-8 -17 -13 -33 -10 -36 6 -7 46 57 46 75 0 9 45 12 190 12 l190 0 2 -283 3
-282 113 -3 112 -3 -6 -27 c-14 -58 -45 -130 -84 -191 -21 -36 -37 -67 -34
-70 16 -16 98 131 129 231 l18 58 66 1 c36 0 112 0 168 -1 l102 -1 3 58 3 58
288 3 c269 2 287 1 287 -15 0 -31 -57 -246 -79 -295 -11 -26 -16 -50 -12 -53
9 -5 33 47 53 110 20 64 58 220 58 237 0 17 17 18 240 18 162 0 240 -3 240
-11 0 -33 -46 -226 -72 -297 -30 -87 -33 -136 -4 -67 24 55 72 226 86 308 l12
67 173 0 174 0 6 -57 c18 -155 102 -459 121 -440 3 3 -9 49 -26 104 -32 100
-79 316 -80 366 l0 27 194 0 c219 0 206 6 206 -86 0 -97 87 -445 119 -477 17
-17 14 6 -9 65 -32 82 -68 234 -85 353 -22 160 -30 145 79 145 l93 0 7 -57
c10 -87 37 -196 46 -186 4 4 -1 49 -11 98 -10 50 -19 102 -19 118 l0 27 325 0
324 0 10 -37 c6 -21 15 -56 20 -78 6 -22 16 -61 22 -87 7 -27 16 -48 21 -48 4
0 8 3 8 6 0 5 -46 188 -56 227 -5 16 12 17 266 17 l272 0 -7 -27 c-26 -104
-36 -178 -42 -319 -4 -111 -3 -166 5 -180 9 -15 11 13 12 121 0 144 8 220 36
338 l16 67 144 0 144 0 6 -25 c5 -19 11 -24 25 -20 11 4 19 2 19 -3 0 -18 124
-144 184 -186 55 -40 137 -86 151 -86 3 0 5 4 5 10 0 5 -15 16 -34 24 -75 31
-174 109 -253 200 -36 41 -40 50 -30 67 11 18 26 19 223 19 207 0 211 0 232
23 14 14 22 36 22 56 0 28 3 32 19 28 13 -3 34 13 75 59 l57 64 144 0 c139 0
145 -1 156 -22 58 -111 157 -224 249 -285 64 -43 148 -84 154 -75 2 4 -30 25
-72 47 -91 48 -232 181 -280 265 -18 30 -32 58 -32 63 0 4 88 7 195 7 l195 0
0 110 0 110 405 0 c439 0 451 1 493 54 33 43 37 80 12 130 -36 76 -38 76 -505
76 l-405 0 0 110 0 110 -358 0 -359 0 -48 60 c-44 55 -75 75 -75 50 0 -5 -6
-10 -13 -10 -9 0 -11 12 -9 40 3 26 -2 49 -12 65 -16 25 -19 25 -151 25 -74 0
-135 1 -135 3 0 1 7 24 15 52 10 31 12 51 6 53 -24 8 37 177 95 268 20 30 33
60 31 67 -2 7 -23 -17 -45 -53 -42 -65 -81 -157 -102 -238 -8 -33 -15 -42 -27
-38 -12 5 -14 -3 -11 -54 l3 -60 -232 0 c-215 0 -233 1 -233 18 1 71 78 335
131 451 22 46 37 87 34 89 -24 24 -126 -252 -167 -449 l-23 -109 -473 0 -474
0 6 23 c4 12 13 51 21 87 19 86 86 266 136 363 22 44 34 77 27 75 -20 -7 -86
-142 -128 -262 -34 -98 -51 -157 -74 -258 l-6 -28 -349 0 -348 0 19 82 c27
114 89 282 139 378 23 44 39 84 35 87 -8 9 -8 9 -59 -92 -50 -100 -119 -296
-138 -392 l-12 -63 -508 0 c-401 0 -509 3 -509 13 1 81 56 279 110 388 44 91
44 89 31 89 -29 0 -120 -240 -148 -392 l-18 -98 -231 0 -231 0 14 88 c17 112
46 230 77 314 14 37 21 70 16 73 -19 12 -92 -240 -112 -387 l-12 -88 -68 0
-68 0 0 60 0 60 -176 -1 c-97 0 -179 2 -182 5 -7 8 47 220 83 326 37 107 77
197 112 253 15 24 19 37 10 37 -7 0 -27 -26 -44 -57z m-238 -610 c36 -41 33
-63 -9 -63 -27 0 -41 8 -70 40 -20 22 -36 42 -36 45 0 3 20 5 45 5 38 0 50 -5
70 -27z m137 -15 c21 -23 36 -44 33 -46 -2 -2 -22 -1 -45 3 -38 6 -41 9 -35
32 3 14 1 31 -6 39 -9 11 -8 14 2 14 7 0 30 -19 51 -42z m78 -5 l0 -47 -31 30
c-17 16 -35 37 -40 47 -9 15 -5 17 31 17 l40 0 0 -47z m84 2 c-20 -25 -38 -45
-40 -45 -2 0 -4 20 -4 45 l0 45 41 0 40 0 -37 -45z m124 -17 l3 -58 65 0 65 0
-108 -115 -108 -115 -142 0 c-79 0 -143 3 -143 6 0 4 55 65 123 138 67 72 138
148 157 169 25 28 41 37 60 35 23 -3 25 -7 28 -60z m-488 -82 l0 -60 -35 34
c-32 31 -35 38 -35 94 l0 60 35 -34 c31 -32 34 -40 35 -94z m180 4 c0 -22 -4
-40 -10 -40 -5 0 -10 18 -10 40 0 22 5 40 10 40 6 0 10 -18 10 -40z m-153
-302 c-1 -62 -3 -12 -3 112 0 124 2 174 3 113 2 -62 2 -164 0 -225z m73 287
l5 -40 14 38 c17 50 31 47 31 -8 0 -38 3 -45 20 -45 17 0 20 7 20 45 0 52 8
58 69 53 l40 -3 -106 -117 c-62 -68 -114 -118 -125 -118 -16 0 -18 11 -18 121
0 119 0 120 23 117 17 -2 23 -11 27 -43z m790 -22 c-171 -184 -158 -173 -206
-173 l-44 0 0 63 c0 34 3 86 6 115 l7 52 145 0 145 0 -53 -57z m222 32 c-2
-15 0 -25 7 -25 6 0 11 11 11 25 0 24 2 25 72 25 l72 0 -45 -47 c-25 -27 -74
-78 -109 -115 l-64 -68 -144 0 c-84 0 -142 4 -140 9 2 5 46 57 98 115 l95 106
76 0 c76 0 76 0 71 -25z m442 -7 c-16 -17 -36 -39 -44 -48 -8 -9 -44 -47 -79
-84 l-63 -67 -141 3 -141 3 94 99 c52 54 99 104 103 112 6 11 40 14 154 14
l147 0 -30 -32z m329 9 c-10 -13 -56 -65 -102 -115 l-85 -92 -143 0 c-79 0
-143 3 -143 6 0 3 46 55 102 115 l101 109 144 0 144 0 -18 -23z m263 7 c-3 -9
-6 -29 -6 -45 0 -19 -5 -29 -15 -29 -10 0 -15 -10 -15 -33 0 -25 -9 -42 -38
-70 l-38 -38 -154 3 -155 3 104 113 104 112 109 0 c96 0 109 -2 104 -16z m94
11 c0 -9 -72 -85 -80 -85 -5 0 -7 8 -5 18 15 74 14 72 50 72 19 0 35 -2 35 -5z
m323 -9 c-4 -8 -52 -59 -105 -115 l-98 -101 -105 0 c-95 0 -105 2 -105 18 0
41 33 111 76 160 l46 52 149 0 c125 0 149 -2 142 -14z m297 -7 c0 -13 -35 -59
-86 -115 l-86 -94 -144 0 c-79 0 -144 3 -144 6 0 3 46 55 102 115 l101 109
129 0 c123 0 128 -1 128 -21z m353 7 c-4 -7 -51 -59 -105 -115 l-96 -101 -71
0 c-49 0 -73 4 -77 13 -2 7 4 38 15 69 16 47 17 57 5 62 -20 8 -18 20 12 55
l26 31 149 0 c124 0 149 -2 142 -14z m310 0 c-4 -8 -52 -59 -105 -115 l-97
-101 -135 0 c-75 0 -136 3 -136 6 0 3 46 55 103 115 l102 109 138 0 c115 0
137 -2 130 -14z m307 3 c0 -9 -368 -419 -376 -419 -2 0 -31 41 -64 90 l-61 91
118 124 118 125 133 0 c88 0 132 -4 132 -11z m330 -14 c-22 -23 -30 -25 -123
-25 -122 0 -137 -9 -137 -82 0 -47 -1 -48 -30 -48 -30 0 -30 0 -30 56 0 31 7
71 16 90 l16 34 156 0 155 0 -23 -25z m171 -2 l1 -28 11 28 c11 26 12 27 96
27 l85 0 -44 -45 -44 -45 -82 0 c-68 0 -84 3 -99 20 -12 13 -31 20 -53 20
l-35 0 23 25 c20 21 33 25 82 25 56 0 58 -1 59 -27z m298 13 c7 -8 11 -27 9
-43 -3 -28 -4 -28 -80 -31 -43 -2 -78 0 -78 4 0 3 14 24 31 45 26 33 36 39 69
39 20 0 43 -6 49 -14z m-4004 -122 l-7 -94 -90 0 c-104 0 -105 -11 7 108 39
41 74 81 79 90 16 27 19 -2 11 -104z m-625 -33 l0 -56 -35 40 c-29 34 -34 48
-35 89 l0 50 35 -34 c32 -31 35 -39 35 -89z m3822 44 l-4 -55 -34 0 -34 0 0
-110 0 -110 75 0 c60 0 75 -3 75 -15 0 -13 -30 -15 -206 -15 l-205 0 20 26
c31 39 305 334 311 334 3 0 3 -25 2 -55z m412 47 c2 -4 -2 -16 -10 -27 -14
-19 -16 -19 -25 -2 -6 9 -21 17 -34 17 -13 0 -29 -8 -35 -17 -10 -17 -10 -17
-20 0 -6 9 -22 17 -35 17 -13 0 -29 -8 -35 -17 -10 -17 -10 -17 -20 0 -14 21
-43 22 -61 1 -11 -14 -13 -14 -21 0 -5 9 -6 21 -3 26 7 12 291 14 299 2z
m-184 -52 c17 22 21 23 33 10 8 -8 70 -76 138 -150 68 -74 130 -140 139 -147
12 -10 1 -12 -61 -13 l-76 0 -131 146 c-120 131 -131 147 -121 167 12 21 12
21 36 -9 l23 -29 20 25z m176 -5 c15 19 17 18 67 -37 29 -31 94 -102 146 -157
l93 -101 -70 0 -69 0 -93 103 c-52 56 -111 120 -132 142 -37 40 -37 41 -21 64
l16 24 24 -29 c23 -29 24 -29 39 -9z m84 25 c0 -5 -4 -10 -10 -10 -5 0 -10 5
-10 10 0 6 5 10 10 10 6 0 10 -4 10 -10z m87 -28 c13 10 23 4 62 -39 25 -28
88 -96 140 -152 l93 -101 -66 0 -67 0 -77 83 c-43 45 -101 107 -129 137 l-51
55 21 29 20 28 20 -26 c16 -22 22 -25 34 -14z m93 28 c0 -5 -4 -10 -10 -10 -5
0 -10 5 -10 10 0 6 5 10 10 10 6 0 10 -4 10 -10z m89 -35 c9 0 74 -63 146
-140 l130 -140 -70 -3 c-63 -3 -72 -1 -88 20 -11 13 -71 79 -135 147 -113 119
-165 183 -107 131 l27 -25 22 28 21 28 19 -23 c10 -13 26 -23 35 -23z m5 30
c-4 -8 -10 -12 -15 -9 -14 8 -10 24 6 24 9 0 12 -6 9 -15z m98 -16 c16 22 16
22 59 -33 24 -30 55 -58 69 -62 33 -9 37 -13 131 -115 l81 -89 -69 0 -69 0
-141 154 c-106 114 -139 156 -130 165 8 8 17 4 32 -16 l22 -26 15 22z m-1852
-29 c0 -44 -3 -50 -21 -50 -11 0 -29 -5 -40 -11 -11 -5 -27 -9 -35 -7 -11 2 0
20 36 61 29 31 53 57 56 57 2 0 4 -22 4 -50z m1254 -142 l117 -128 -69 0 -70
0 -56 61 c-40 43 -56 68 -56 88 0 15 -7 36 -15 47 -8 10 -15 39 -15 63 l0 44
23 -24 c13 -13 76 -81 141 -151z m-4115 88 c32 -33 33 -34 12 -45 -18 -10 -22
-7 -36 18 -13 27 -20 61 -12 61 2 0 18 -15 36 -34z m2141 19 c0 -8 -4 -15 -10
-15 -5 0 -7 7 -4 15 4 8 8 15 10 15 2 0 4 -7 4 -15z m1690 -9 c0 -2 -7 -9 -15
-16 -12 -10 -15 -10 -15 4 0 9 7 16 15 16 8 0 15 -2 15 -4z m40 -87 l0 -81
-22 15 c-19 12 -23 24 -23 68 0 46 3 54 18 51 10 -2 17 3 17 13 0 8 2 15 5 15
3 0 5 -37 5 -81z m44 75 c12 -5 16 -21 16 -74 0 -64 -7 -80 -36 -80 -2 0 -4
36 -4 80 0 44 2 80 4 80 2 0 11 -3 20 -6z m-1804 -89 c0 -41 -2 -75 -4 -75
-28 0 -36 16 -36 75 0 59 5 71 33 74 4 1 7 -33 7 -74z m40 58 c0 -15 2 -16 10
-3 7 10 10 -7 10 -56 0 -53 -4 -73 -14 -77 -8 -3 -17 -3 -20 0 -10 11 -7 153
4 153 6 0 10 -8 10 -17z m680 -58 c0 -76 -9 -92 -38 -63 -20 20 -15 115 6 127
30 18 32 13 32 -64z m40 58 c0 -15 2 -16 10 -3 7 11 10 -5 10 -52 0 -57 -3
-69 -20 -78 -19 -10 -20 -8 -20 70 0 47 4 80 10 80 6 0 10 -8 10 -17z m2249
-83 l93 -100 -64 0 -64 0 -64 68 c-36 37 -79 82 -95 100 l-29 32 65 0 66 0 92
-100z m149 3 l91 -98 -57 -3 -57 -3 -75 79 c-41 43 -84 88 -94 100 l-19 22 60
0 61 0 90 -97z m148 0 l88 -98 -56 -3 -55 -3 -60 63 c-33 35 -75 80 -93 101
l-32 37 59 0 60 0 89 -97z m88 60 c33 -34 36 -43 36 -95 0 -32 -3 -58 -7 -58
-8 0 -153 155 -167 178 -5 9 6 12 48 12 50 0 58 -3 90 -37z m36 22 c0 -8 -4
-15 -9 -15 -5 0 -14 7 -21 15 -10 13 -9 15 9 15 12 0 21 -6 21 -15z m-4885
-47 c3 -24 2 -63 -2 -88 l-9 -45 -93 -3 -94 -3 7 42 c4 24 14 58 23 77 14 28
14 35 2 42 -8 5 -19 4 -26 -2 -15 -12 -43 -101 -43 -135 0 -22 -2 -23 -95 -23
l-96 0 7 38 c3 20 12 50 20 66 19 40 18 56 -5 56 -21 0 -44 -48 -56 -117 l-7
-43 -54 0 -54 0 0 90 0 90 284 0 285 0 6 -42z m1192 17 c-9 -18 -20 -25 -42
-25 -53 0 -75 -24 -75 -81 l0 -49 -71 0 c-62 0 -70 2 -65 18 3 9 10 36 16 59
6 23 15 45 20 48 12 8 1 35 -15 35 -21 0 -34 -24 -51 -94 l-17 -66 -93 0 -94
0 6 33 c3 17 14 49 24 69 16 35 12 58 -12 58 -12 0 -37 -55 -49 -110 l-11 -50
-90 0 -91 0 7 41 c4 23 14 55 22 71 17 32 7 55 -18 45 -15 -5 -48 -100 -48
-135 0 -21 -4 -22 -96 -22 l-96 0 7 38 c3 20 13 50 21 66 19 39 18 56 -5 56
-21 0 -46 -53 -57 -120 l-7 -40 -92 0 -93 0 13 55 c7 30 18 62 25 70 16 19 -6
53 -24 35 -14 -14 -26 -12 -26 5 0 13 73 15 594 15 l594 0 -11 -25z m141 13
c14 -14 16 -48 3 -48 -4 0 -25 14 -46 30 l-38 30 35 0 c19 0 39 -5 46 -12z
m48 -4 c-3 -9 -6 -43 -6 -75 0 -38 -4 -58 -10 -54 -5 3 -10 37 -10 76 0 57 3
69 16 69 11 0 14 -5 10 -16z m203 9 c-1 -16 -18 -48 -18 -36 -1 6 -4 18 -7 27
-4 11 -1 16 10 16 9 0 16 -3 15 -7z m187 -83 l116 -90 -37 0 c-32 0 -55 13
-141 78 -57 42 -103 83 -104 90 0 6 11 12 25 12 16 0 66 -32 141 -90z m91 14
c137 -107 135 -104 92 -104 -30 0 -56 15 -148 86 -61 47 -111 87 -111 90 0 2
15 4 34 4 27 0 54 -15 133 -76z m27 57 c12 -10 63 -51 115 -90 91 -69 92 -71
59 -71 -19 0 -47 10 -65 23 -65 47 -193 148 -193 152 0 14 67 2 84 -14z m120
-16 c33 -26 46 -43 46 -61 l0 -25 -44 32 c-25 17 -60 44 -78 60 l-33 28 31 1
c21 0 47 -12 78 -35z m46 15 c8 -16 8 -20 -3 -20 -8 0 -22 9 -32 20 -18 19
-17 20 3 20 12 0 26 -9 32 -20z m42 -55 c-2 -44 -8 -73 -13 -69 -5 3 -8 31 -7
62 1 32 -1 63 -6 70 -5 8 -1 12 11 12 16 0 18 -8 15 -75z m197 3 c-2 -77 -6
-69 -11 20 -2 28 0 52 5 52 4 0 6 -33 6 -72z m140 48 c15 -16 21 -33 19 -51
l-3 -28 -41 34 c-22 19 -51 42 -65 51 l-24 17 46 0 c36 1 50 -4 68 -23z m74
-53 c2 -43 4 -79 2 -81 -1 -1 -10 0 -19 4 -12 5 -16 19 -16 61 0 30 -5 63 -10
74 -9 16 -7 19 13 19 23 0 25 -4 30 -77z m167 -3 l0 -80 -69 0 -68 0 -7 38
c-3 20 -6 56 -6 80 l0 42 75 0 75 0 0 -80z m627 18 c-2 -13 -4 -3 -4 22 0 25
2 35 4 23 2 -13 2 -33 0 -45z m-1984 -16 c24 -23 37 -62 21 -62 -9 0 -134 93
-134 100 0 3 5 11 12 18 12 12 47 -7 101 -56z m949 4 c-9 -18 -11 -16 -11 19
0 33 1 37 10 21 8 -12 8 -25 1 -40z m187 -60 c1 -5 8 -18 18 -28 15 -17 15
-18 -11 -18 -17 0 -50 17 -87 46 -52 40 -59 49 -59 80 l0 35 69 -53 c39 -29
70 -57 70 -62z m-906 91 c3 -8 1 -20 -4 -28 -6 -10 -9 -7 -9 14 0 29 5 35 13
14z m1201 -57 c25 -38 46 -72 46 -75 0 -3 -11 -5 -25 -5 -20 0 -25 5 -25 25 0
20 -5 25 -25 25 -23 0 -25 3 -25 50 0 28 2 50 4 50 1 0 24 -31 50 -70z m-3377
-47 c-2 -21 -4 -6 -4 32 0 39 2 55 4 38 2 -18 2 -50 0 -70z m2322 32 l84 -65
-41 0 c-52 0 -142 66 -142 105 0 14 3 25 8 25 4 0 45 -29 91 -65z m-2349 -26
c0 -21 -4 -39 -8 -39 -20 0 -32 28 -32 75 l1 50 19 -24 c12 -14 20 -38 20 -62z
m2227 14 c-2 -16 -4 -5 -4 22 0 28 2 40 4 28 2 -13 2 -35 0 -50z m-297 5 l69
-53 -40 -3 c-34 -3 -47 2 -86 35 -26 21 -58 46 -72 55 l-26 18 43 0 c35 0 53
-8 112 -52z m-102 -10 l56 -43 -33 -3 c-39 -4 -101 38 -101 69 0 29 17 24 78
-23z m2196 -3 l37 -45 -55 0 c-55 0 -56 0 -56 29 0 74 23 78 74 16z m-204 20
c10 -12 10 -15 -4 -15 -9 0 -16 7 -16 15 0 8 2 15 4 15 2 0 9 -7 16 -15z
m-799 -63 c-41 -4 -60 11 -54 43 l5 24 40 -32 40 -32 -31 -3z m-946 38 c3 -5
-1 -10 -9 -10 -9 0 -16 5 -16 10 0 6 4 10 9 10 6 0 13 -4 16 -10z m125 0 c0
-5 -8 -10 -17 -10 -15 0 -16 2 -3 10 19 12 20 12 20 0z m90 -15 l34 -25 -46 0
c-46 0 -46 0 -35 25 7 14 12 25 13 25 0 0 15 -11 34 -25z m510 9 c0 -2 -7 -4
-15 -4 -8 0 -15 4 -15 10 0 5 7 7 15 4 8 -4 15 -8 15 -10z m120 6 c0 -5 -8
-10 -17 -10 -15 0 -16 2 -3 10 19 12 20 12 20 0z m470 -25 c0 -8 -7 -15 -15
-15 -8 0 -15 7 -15 15 0 8 7 15 15 15 8 0 15 -7 15 -15z m-1610 -11 c0 -2 -7
-4 -15 -4 -8 0 -15 4 -15 10 0 5 7 7 15 4 8 -4 15 -8 15 -10z m298 -1 c-10 -2
-26 -2 -35 0 -10 3 -2 5 17 5 19 0 27 -2 18 -5z m110 0 c-10 -2 -28 -2 -40 0
-13 2 -5 4 17 4 22 1 32 -1 23 -4z m640 0 c-10 -2 -26 -2 -35 0 -10 3 -2 5 17
5 19 0 27 -2 18 -5z m100 0 c-10 -2 -28 -2 -40 0 -13 2 -5 4 17 4 22 1 32 -1
23 -4z m-3398 -38 c-12 -15 -30 -12 -30 6 0 5 10 9 21 9 18 0 19 -2 9 -15z
m170 8 c0 -5 -33 -43 -73 -87 l-72 -78 -19 56 -19 56 28 30 c26 27 35 30 92
30 35 0 63 -3 63 -7z m160 1 c0 -4 -43 -53 -96 -110 l-96 -104 -55 0 c-43 0
-54 3 -51 15 2 8 41 57 88 109 l85 94 63 1 c34 1 62 -2 62 -5z m170 0 c0 -3
-43 -53 -97 -110 l-96 -104 -70 0 -69 0 37 43 c21 23 67 72 103 110 l64 67 64
0 c35 0 64 -3 64 -6z m122 -41 c-22 -27 -69 -76 -105 -111 l-64 -63 -58 3 -58
3 99 107 99 107 63 0 64 1 -40 -47z m198 39 c0 -5 -43 -54 -96 -110 l-96 -102
-64 0 c-35 0 -64 3 -64 6 0 3 43 53 96 110 l96 104 64 0 c35 0 64 -4 64 -8z
m158 -1 c-1 -4 -46 -54 -99 -110 l-96 -102 -61 3 -60 3 100 108 100 107 60 0
c33 0 58 -4 56 -9z m165 -5 c-4 -7 -49 -57 -99 -110 l-92 -96 -66 0 c-54 0
-65 3 -59 14 4 7 49 57 98 110 l90 96 68 0 c55 0 66 -3 60 -14z m150 -9 c-10
-13 -54 -62 -98 -110 l-79 -87 -63 0 c-35 0 -63 3 -63 6 0 3 43 53 96 110 l96
104 65 0 64 0 -18 -23z m151 -19 c-21 -24 -66 -73 -100 -110 l-62 -68 -66 0
c-36 0 -66 3 -66 6 0 3 43 53 97 110 l96 104 70 0 69 0 -38 -42z m175 25 c-8
-10 -52 -60 -98 -110 l-85 -93 -64 0 -64 0 102 110 102 110 60 0 c56 0 59 -1
47 -17z m169 -1 c-7 -11 -52 -60 -99 -111 l-86 -92 -69 3 -69 3 100 107 100
107 68 0 c64 1 67 0 55 -17z m160 9 c-1 -5 -43 -55 -93 -110 l-90 -99 -62 -1
c-35 -1 -63 2 -63 5 0 3 44 52 98 110 l97 104 58 0 c32 0 57 -4 55 -9z m172 3
c0 -3 -43 -53 -96 -110 l-96 -104 -71 0 -70 0 43 48 c24 26 70 75 103 110 l59
62 64 0 c35 0 64 -3 64 -6z m158 -3 c-1 -5 -45 -55 -97 -110 l-94 -101 -65 0
-64 0 50 58 c145 165 142 162 211 162 35 0 61 -4 59 -9z m171 2 c0 -5 -44 -54
-98 -111 l-97 -103 -69 3 -69 3 100 107 99 107 68 0 c37 1 67 -2 66 -6z m149
-2 c-1 -6 -43 -55 -93 -110 l-90 -100 -63 -1 c-35 0 -62 4 -60 9 2 4 46 54 98
109 l95 102 58 0 c33 0 57 -4 55 -9z m172 2 c0 -5 -44 -54 -98 -111 l-97 -103
-67 3 -66 3 96 107 97 106 68 1 c37 1 67 -2 67 -6z m160 0 c-1 -5 -45 -54 -98
-111 l-97 -103 -62 3 -63 3 98 107 97 107 63 1 c34 0 62 -3 62 -7z m170 1 c0
-3 -29 -36 -63 -73 -35 -36 -79 -83 -98 -104 -34 -38 -34 -38 -102 -35 l-68 3
88 94 c48 51 92 100 96 107 6 10 29 14 77 14 39 0 70 -3 70 -6z m150 -11 c-5
-10 -49 -60 -97 -111 l-88 -93 -64 3 -65 3 77 81 c43 45 86 93 98 108 18 23
27 26 85 26 59 0 64 -2 54 -17z m151 -20 c-17 -21 -61 -71 -99 -111 l-67 -73
-68 3 -68 3 97 108 98 107 69 0 69 0 -31 -37z m179 29 c0 -4 -43 -54 -96 -110
l-96 -102 -59 0 c-32 0 -59 3 -59 6 0 3 43 53 97 110 l96 104 59 0 c32 0 58
-3 58 -8z m65 -47 c7 -60 -2 -81 -63 -138 -27 -26 -34 -28 -96 -25 l-67 3 98
107 c54 58 103 107 109 107 7 1 15 -23 19 -54z m105 48 c0 -10 -72 -83 -82
-83 -4 0 -8 20 -8 45 l0 45 45 0 c25 0 45 -3 45 -7z m148 -2 c-8 -25 -185
-211 -199 -211 -17 0 -29 27 -29 68 0 15 22 48 58 88 l57 63 58 1 c33 0 57 -4
55 -9z m170 0 c-1 -5 -43 -55 -93 -110 l-90 -99 -68 -1 c-39 -1 -67 3 -65 8 2
5 45 55 96 110 l94 101 65 0 c35 0 63 -4 61 -9z m160 0 c-1 -5 -45 -55 -96
-110 l-94 -101 -59 0 c-32 0 -59 3 -59 6 0 8 51 66 132 152 l60 62 60 0 c33 0
58 -4 56 -9z m172 2 c0 -5 -44 -54 -98 -111 l-97 -103 -67 3 -66 3 100 108
100 107 64 0 c35 0 64 -3 64 -7z m129 -30 c-18 -21 -63 -71 -99 -111 l-67 -73
-62 3 -62 3 81 85 c44 47 88 95 97 108 13 19 24 22 80 22 l65 0 -33 -37z m189
28 c-1 -6 -43 -55 -93 -110 l-90 -100 -74 -1 -73 0 102 110 102 110 65 0 c36
0 63 -4 61 -9z m162 2 c0 -5 -44 -54 -98 -111 l-97 -102 -64 0 -64 0 48 53
c162 176 151 167 216 167 32 0 59 -3 59 -7z m164 -5 c-4 -7 -48 -57 -98 -110
l-89 -98 -69 0 c-37 0 -68 3 -68 6 0 4 31 39 69 78 38 39 81 86 96 104 26 30
30 32 96 32 54 0 68 -3 63 -12z m142 -18 c-14 -17 -58 -66 -98 -110 l-73 -80
-62 0 c-35 0 -63 3 -63 6 0 3 44 52 97 110 l98 104 63 0 64 0 -26 -30z m182
20 c-1 -5 -43 -54 -93 -109 l-90 -101 -67 0 c-38 0 -68 3 -68 6 0 3 43 53 96
110 l96 104 65 0 c37 0 63 -4 61 -10z m160 1 c-1 -5 -45 -54 -97 -110 l-93
-101 -60 0 c-33 0 -58 4 -56 9 2 5 45 55 96 110 l94 101 60 0 c33 0 58 -4 56
-9z m162 -8 c-5 -10 -49 -60 -97 -111 l-88 -93 -67 3 -67 3 97 107 97 108 68
0 c62 0 67 -2 57 -17z m160 9 c0 -4 -44 -54 -97 -111 l-98 -103 -59 4 -59 3
99 108 98 107 58 0 c32 0 58 -4 58 -8z m168 -1 c-1 -5 -45 -55 -97 -110 l-93
-101 -70 0 -70 0 32 38 c18 20 64 70 103 110 l70 72 64 0 c36 0 63 -4 61 -9z
m162 3 c0 -4 -43 -53 -96 -110 l-96 -104 -65 0 -65 0 27 33 c15 17 60 66 99
109 l71 76 63 1 c34 1 62 -2 62 -5z m170 -1 c-1 -5 -45 -54 -98 -111 l-97
-103 -67 3 -66 3 96 107 97 108 68 0 c37 0 67 -3 67 -7z m71 -92 c-50 -54 -97
-104 -105 -110 -8 -7 -38 -11 -71 -9 l-56 3 97 108 98 107 64 0 64 0 -91 -99z
m249 93 c0 -3 -43 -53 -96 -110 l-96 -104 -65 0 c-38 0 -63 4 -61 10 2 5 45
55 97 110 l94 100 63 0 c35 0 64 -3 64 -6z m150 -11 c-5 -10 -49 -60 -98 -111
l-88 -93 -62 3 -63 3 101 108 102 107 59 0 c54 0 59 -2 49 -17z m75 -18 c14
-13 25 -32 25 -42 -1 -10 -26 -46 -58 -81 l-57 -63 -70 3 -69 3 94 103 c52 56
98 102 103 102 4 0 19 -11 32 -25z m25 -108 c0 -21 -33 -55 -66 -67 -27 -11
-26 -8 16 34 49 51 50 52 50 33z m-3260 -48 c0 -27 -3 -29 -36 -29 -38 0 -38
8 0 46 26 26 36 22 36 -17z m-3190 -65 c0 -9 -5 -14 -12 -12 -18 6 -21 28 -4
28 9 0 16 -7 16 -16z m27 -81 c-2 -21 -4 -6 -4 32 0 39 2 55 4 38 2 -18 2 -50
0 -70z m30 -235 c-1 -62 -3 -12 -3 112 0 124 2 174 3 113 2 -62 2 -164 0 -225z
m88 277 c-7 -30 -18 -62 -25 -70 -10 -12 -10 -18 0 -30 7 -8 17 -12 22 -9 17
11 48 94 48 130 l0 34 100 0 c55 0 100 -1 100 -2 -1 -20 -32 -113 -40 -124
-10 -11 -10 -17 0 -29 7 -8 17 -12 22 -9 19 12 48 89 48 127 l0 37 96 0 97 0
-7 -41 c-4 -23 -13 -54 -21 -70 -19 -36 -19 -45 1 -53 18 -7 49 56 60 122 l7
42 94 0 94 0 -6 -37 c-4 -21 -15 -56 -26 -77 -19 -41 -17 -56 7 -56 17 0 54
79 54 115 0 52 6 55 101 55 89 0 89 0 89 -26 0 -14 -10 -48 -22 -76 -18 -42
-19 -51 -7 -59 9 -5 18 -4 26 4 15 16 43 101 43 132 0 25 1 25 95 25 110 0
110 0 74 -96 -16 -43 -18 -59 -9 -67 9 -9 15 -7 26 8 16 22 44 108 44 137 0
16 10 18 95 18 l95 0 -6 -32 c-3 -18 -14 -51 -25 -72 -13 -29 -15 -43 -8 -53
6 -7 15 -10 20 -7 17 10 41 67 48 113 l6 46 88 3 87 3 0 -49 c0 -27 -6 -57
-15 -68 -8 -10 -15 -27 -15 -36 0 -26 35 -22 47 5 15 33 83 27 100 -9 l11 -24
-94 0 -94 0 -6 28 c-3 15 -9 38 -14 52 -7 23 -8 22 -14 -15 -4 -22 -9 -46 -11
-52 -3 -10 -58 -13 -229 -13 l-224 0 -7 48 -8 47 -14 -47 -14 -48 -525 0 -524
0 0 90 0 90 39 0 39 0 -13 -55z m1778 5 c72 -54 86 -70 63 -70 -8 0 -16 -5
-18 -11 -3 -9 -178 115 -178 126 0 3 15 5 34 5 24 0 50 -13 99 -50z m65 38
c12 -12 17 -68 7 -68 -3 0 -28 18 -56 40 l-51 40 44 0 c24 0 49 -5 56 -12z
m70 5 c-10 -2 -26 -2 -35 0 -10 3 -2 5 17 5 19 0 27 -2 18 -5z m120 0 c-10 -2
-28 -2 -40 0 -13 2 -5 4 17 4 22 1 32 -1 23 -4z m238 -79 c63 -48 114 -88 114
-90 0 -2 -18 -4 -39 -4 -33 0 -54 12 -150 85 -61 47 -111 88 -111 90 0 3 16 5
36 5 31 0 56 -15 150 -86z m86 19 c73 -55 87 -70 82 -87 -4 -12 -8 -23 -10
-25 -2 -3 -196 142 -228 170 -6 5 7 9 29 9 32 0 53 -11 127 -67z m115 -4 c88
-67 109 -95 77 -106 -8 -3 -191 128 -243 173 -2 2 13 4 34 4 33 0 54 -11 132
-71z m56 44 c26 -20 36 -36 37 -55 0 -16 -2 -28 -5 -28 -3 0 -37 25 -76 55
l-71 55 39 0 c28 0 51 -8 76 -27z m58 11 c-21 -15 -24 -15 -39 0 -15 15 -13
16 23 16 39 0 39 0 16 -16z m107 9 c-10 -2 -26 -2 -35 0 -10 3 -2 5 17 5 19 0
27 -2 18 -5z m192 -55 c44 -33 80 -66 80 -72 0 -24 -19 -41 -33 -31 -7 6 -35
25 -60 44 -36 27 -47 41 -47 62 0 32 -15 46 -55 52 l-30 4 32 2 c25 1 50 -12
113 -61z m55 46 c17 -11 25 -26 25 -45 0 -16 -2 -29 -5 -29 -7 0 -115 81 -115
86 0 11 74 2 95 -12z m55 12 c0 -9 -30 -14 -35 -6 -4 6 3 10 14 10 12 0 21 -2
21 -4z m250 -11 c0 -8 -7 -15 -15 -15 -8 0 -15 7 -15 15 0 8 7 15 15 15 8 0
15 -7 15 -15z m60 10 c0 -7 -92 -145 -96 -145 -2 0 -4 23 -4 50 0 47 2 50 25
50 20 0 25 5 25 25 0 20 5 25 25 25 14 0 25 -2 25 -5z m27 -162 c-85 -93 -166
-178 -179 -191 l-24 -22 -13 67 c-7 38 -15 78 -18 91 -5 21 -2 22 49 22 l53 0
55 83 c82 124 73 117 157 117 l74 0 -154 -167z m421 155 c-3 -8 -27 -14 -61
-16 l-57 -3 0 -77 0 -77 -118 -123 -117 -123 -132 1 c-82 0 -133 4 -133 10 0
6 84 102 188 215 l187 205 123 0 c95 0 123 -3 120 -12z m281 -124 l123 -135
-23 -27 c-13 -15 -25 -29 -27 -32 -2 -2 -13 9 -26 25 -12 15 -27 25 -33 22
-12 -8 -237 238 -241 264 -3 17 3 19 50 19 l53 0 124 -136z m169 0 l123 -134
-18 -30 c-16 -28 -33 -39 -33 -22 0 4 -7 16 -15 26 -12 16 -17 17 -30 6 -18
-15 -4 -28 -178 161 -59 64 -107 119 -107 123 0 3 30 6 68 5 l67 0 123 -135z
m162 1 c69 -75 127 -140 129 -146 1 -6 -5 -19 -14 -29 -17 -18 -18 -18 -40 8
-20 23 -25 25 -40 12 -19 -16 -18 -16 -214 198 l-83 92 69 0 69 0 124 -135z
m127 38 c49 -54 102 -113 118 -131 l27 -32 -29 -34 c-15 -19 -31 -34 -34 -33
-9 3 -293 307 -297 318 -2 5 25 9 60 9 l64 0 91 -97z m167 0 c88 -97 88 -98
60 -101 -16 -2 -38 -12 -49 -23 -21 -19 -22 -18 -128 95 -59 63 -107 117 -107
120 0 3 30 6 68 6 l67 0 89 -97z m158 0 l88 -98 -62 -3 -62 -3 -88 93 c-48 51
-87 96 -88 101 0 4 28 7 63 7 l62 0 87 -97z m121 40 c30 -32 71 -77 92 -100
l37 -43 -35 0 c-27 0 -37 5 -42 20 -3 11 -11 20 -17 20 -6 0 -8 -9 -5 -20 12
-45 -34 -16 -117 74 -47 51 -86 96 -86 100 0 3 27 6 59 6 60 0 60 0 114 -57z
m189 -41 l87 -97 -57 -3 -57 -3 -87 93 c-48 51 -87 96 -88 101 0 4 26 7 58 7
l57 0 87 -98z m146 1 l91 -98 -57 -3 -57 -4 -87 94 c-48 51 -88 96 -88 101 0
4 24 7 54 7 l54 0 90 -97z m90 61 c28 -32 32 -43 32 -96 0 -37 -4 -57 -10 -53
-11 7 -90 90 -140 148 l-32 37 59 0 c56 0 61 -2 91 -36z m32 20 c0 -14 -3 -14
-15 -4 -8 7 -15 14 -15 16 0 2 7 4 15 4 8 0 15 -7 15 -16z m-3672 -76 c103
-81 105 -83 73 -86 -39 -4 -81 21 -81 48 0 14 -7 20 -24 20 -34 0 -86 46 -86
76 0 13 3 24 6 24 3 0 54 -37 112 -82z m2062 72 c0 -5 -5 -10 -11 -10 -5 0 -7
5 -4 10 3 6 8 10 11 10 2 0 4 -4 4 -10z m-729 -45 c3 -22 9 -57 12 -77 l6 -38
-55 0 c-51 0 -54 1 -44 19 5 11 10 42 10 68 0 53 14 75 45 71 14 -2 21 -13 26
-43z m127 -37 l3 -78 -45 0 c-25 0 -47 4 -50 9 -3 5 -9 41 -12 80 l-7 72 54
-3 54 -3 3 -77z m-3328 -11 c0 -39 0 -40 -20 -22 -15 13 -20 31 -20 64 l1 46
19 -24 c13 -15 20 -38 20 -64z m2033 -4 c2 -47 0 -63 -10 -63 -9 0 -13 19 -13
68 0 38 3 72 8 76 8 9 10 2 15 -81z m47 83 c0 -2 -7 -6 -15 -10 -8 -3 -15 -1
-15 4 0 6 7 10 15 10 8 0 15 -2 15 -4z m120 -6 c0 -5 -4 -10 -9 -10 -6 0 -13
5 -16 10 -3 6 1 10 9 10 9 0 16 -4 16 -10z m27 -57 c-2 -16 -4 -5 -4 22 0 28
2 40 4 28 2 -13 2 -35 0 -50z m525 -31 c3 -44 0 -52 -14 -52 -14 0 -16 5 -9
23 4 12 6 39 3 59 -2 21 -1 46 4 55 9 20 11 9 16 -85z m43 88 c-3 -5 -10 -10
-16 -10 -5 0 -9 5 -9 10 0 6 7 10 16 10 8 0 12 -4 9 -10z m125 0 c0 -5 -7 -7
-15 -4 -8 4 -15 8 -15 10 0 2 7 4 15 4 8 0 15 -4 15 -10z m-32 -88 c-2 -54 -6
-67 -20 -70 -16 -3 -18 6 -18 78 0 78 1 80 20 70 18 -10 21 -19 18 -78z m62
18 c0 -38 -3 -70 -7 -70 -5 0 -7 31 -5 70 2 38 6 70 8 70 2 0 4 -31 4 -70z
m-840 -15 c0 -41 -2 -75 -4 -75 -28 0 -36 16 -36 75 0 59 5 71 33 74 4 1 7
-33 7 -74z m58 3 c-2 -60 -6 -73 -20 -76 -16 -3 -18 6 -18 72 0 70 2 76 20 76
19 0 21 -5 18 -72z m662 -3 c0 -41 -3 -75 -7 -75 -3 0 -15 7 -25 17 -21 19
-25 102 -6 121 29 29 38 13 38 -63z m994 68 c-5 -5 -12 -12 -16 -18 -4 -6 -8
-2 -8 8 0 9 7 17 17 17 9 0 12 -3 7 -7z m-1509 -40 c26 -21 59 -48 74 -60 l26
-22 -41 -1 c-32 0 -49 7 -82 36 -28 24 -42 44 -42 60 0 32 9 30 65 -13z m1555
-44 l0 -81 -22 14 c-30 20 -38 101 -12 129 9 10 21 19 26 19 4 0 8 -37 8 -81z
m58 7 c3 -66 -4 -85 -30 -86 -5 0 -8 36 -8 81 0 71 2 80 18 77 14 -3 18 -16
20 -72z m-1725 25 c2 -10 1 -25 -4 -32 -6 -10 -9 -4 -9 19 0 36 5 42 13 13z
m719 -35 c-9 -18 -11 -16 -11 19 0 33 1 37 10 21 8 -12 8 -25 1 -40z m1225
-134 c18 -22 23 -36 16 -43 -7 -7 -17 -2 -31 15 -25 33 -36 33 -50 0 l-12 -25
-46 37 c-68 56 -75 69 -57 106 10 19 13 43 10 66 l-6 37 75 -80 c41 -44 86
-95 101 -113z m-190 116 c-2 -13 -4 -3 -4 22 0 25 2 35 4 23 2 -13 2 -33 0
-45z m-898 -15 c2 -2 -17 -3 -42 -3 l-47 0 0 36 0 36 43 -33 c23 -18 44 -34
46 -36z m-820 5 c1 -5 -6 -8 -15 -8 -11 0 -14 5 -10 16 3 9 6 21 7 27 0 12 17
-20 18 -35z m61 -4 c0 -14 -39 0 -43 16 -5 18 -4 18 19 3 13 -8 24 -17 24 -19z
m-2270 -91 l-1 -48 -34 39 c-29 33 -35 47 -35 85 l1 46 34 -37 c30 -32 35 -45
35 -85z m2600 102 c10 -13 9 -15 -9 -15 -12 0 -21 6 -21 15 0 8 4 15 9 15 5 0
14 -7 21 -15z m-2486 -100 c-32 -36 -59 -65 -61 -65 -2 0 -3 29 -3 65 l0 65
61 0 60 0 -57 -65z m332 34 c-15 -17 -63 -71 -108 -120 -71 -78 -86 -89 -115
-89 -33 0 -33 0 -33 50 0 43 -3 50 -20 50 -17 0 -20 -7 -20 -50 l0 -50 -50 0
-50 0 0 39 c0 33 9 48 73 119 l72 80 138 1 139 1 -26 -31z m252 -81 l-105
-113 -52 -3 -51 -3 0 -60 0 -59 -85 0 -85 0 0 54 c0 44 -3 55 -17 58 -13 2 11
33 92 120 l110 117 149 1 149 0 -105 -112z m394 89 c-4 -13 -45 -65 -92 -116
l-85 -92 -147 3 -147 3 102 112 102 112 137 1 136 0 -6 -23z m312 -9 c-16 -18
-60 -66 -99 -106 -38 -40 -71 -77 -73 -82 -2 -6 -31 -10 -64 -10 l-61 0 7 38
c3 20 6 54 6 75 0 29 5 40 18 44 14 3 17 12 14 39 l-4 34 143 0 143 0 -30 -32z
m180 7 c-4 -16 -2 -25 6 -25 9 0 11 -18 8 -65 -3 -50 -9 -70 -28 -90 -23 -25
-26 -25 -173 -25 l-149 0 108 115 107 115 64 0 c63 0 63 0 57 -25z m109 -50
c-37 -41 -71 -75 -75 -75 -12 0 5 85 19 97 9 7 13 21 10 33 -5 18 -1 20 55 20
l59 0 -68 -75z m247 -16 c0 -81 -3 -94 -22 -115 -22 -23 -29 -24 -166 -24
-138 0 -143 1 -140 20 2 11 41 63 88 115 l85 95 78 0 77 0 0 -91z m113 79 c15
-7 27 -15 27 -18 0 -3 -27 -32 -60 -65 l-60 -59 0 77 0 77 33 0 c18 0 45 -6
60 -12z m307 -30 c-1 -39 -7 -50 -70 -115 l-68 -73 -125 0 c-117 0 -126 1
-132 20 -5 16 10 38 64 98 99 107 106 110 229 111 l102 1 0 -42z m60 34 c0 -5
-11 -19 -25 -32 l-25 -23 0 31 c0 27 4 32 25 32 14 0 25 -4 25 -8z m115 -52
c-6 -52 -5 -60 10 -60 13 0 16 -9 13 -52 l-3 -53 -84 -3 c-98 -3 -101 -1 -101
76 0 49 3 56 46 102 41 44 52 50 86 50 l40 0 -7 -60z m180 18 c-128 -138 -129
-139 -137 -121 -11 30 -9 43 8 43 12 0 15 6 10 23 -3 12 -9 39 -12 60 l-7 37
89 0 88 0 -39 -42z m348 28 c-4 -7 -51 -59 -105 -115 l-96 -101 -142 0 c-82 0
-140 4 -138 9 2 5 43 52 91 105 l89 96 48 0 c27 0 52 5 55 10 3 6 50 10 106
10 82 0 99 -2 92 -14z m131 -8 c30 -141 35 -182 25 -194 -9 -11 -48 -14 -165
-14 -85 0 -154 3 -154 6 0 3 46 55 103 115 99 105 103 109 144 109 36 0 43 -3
47 -22z m596 7 c10 -12 10 -15 -4 -15 -9 0 -16 7 -16 15 0 8 2 15 4 15 2 0 9
-7 16 -15z m36 -35 c41 0 74 -3 74 -6 0 -3 -9 -19 -20 -34 -12 -16 -32 -54
-46 -84 l-25 -56 -132 0 -131 0 30 32 c106 117 169 177 172 163 3 -12 19 -15
78 -15z m122 -22 c14 -14 16 -42 2 -33 -14 9 -32 45 -22 45 4 0 13 -5 20 -12z
m-2849 -60 c-4 -29 -8 -63 -8 -75 -1 -22 -5 -23 -71 -23 -59 0 -70 3 -63 14
15 27 135 146 142 141 4 -2 4 -28 0 -57z m-1126 18 c21 -27 27 -46 27 -82 l0
-48 -35 34 c-30 29 -35 40 -35 82 0 26 3 48 8 48 4 0 19 -16 35 -34z m4338 2
c11 -21 11 -22 -4 -9 -10 7 -17 17 -17 22 0 15 9 10 21 -13z m-427 -87 c-48
-50 -57 -35 -22 39 l30 65 12 -35 c12 -33 11 -37 -20 -69z m756 78 c0 -5 -7
-9 -15 -9 -15 0 -20 12 -9 23 8 8 24 -1 24 -14z m-605 -19 c10 0 24 8 31 18
13 16 15 16 25 0 5 -10 21 -18 34 -18 13 0 29 8 35 18 10 16 10 16 20 0 13
-22 53 -23 70 -3 13 16 30 20 30 8 0 -19 -65 -43 -117 -43 -41 0 -59 5 -69 18
-13 16 -13 16 -14 0 0 -15 -10 -18 -68 -18 -40 0 -73 5 -80 12 -18 18 -14 30
7 19 14 -8 22 -7 31 4 11 14 15 14 30 0 9 -8 25 -15 35 -15z m330 20 c3 -5 1
-10 -4 -10 -6 0 -11 5 -11 10 0 6 2 10 4 10 3 0 8 -4 11 -10z m85 0 c0 -5 -5
-10 -11 -10 -5 0 -7 5 -4 10 3 6 8 10 11 10 2 0 4 -4 4 -10z m95 0 c3 -5 -1
-10 -9 -10 -9 0 -16 5 -16 10 0 6 4 10 9 10 6 0 13 -4 16 -10z m-2185 -55 l0
-55 -57 0 -56 0 49 54 c27 30 52 54 57 55 4 1 7 -24 7 -54z m2230 18 c0 -5
-14 -23 -30 -40 l-30 -33 -162 0 -162 0 39 40 39 40 153 0 c84 0 153 -3 153
-7z m50 -15 c-1 -34 -24 -58 -54 -58 l-27 0 33 40 c38 45 48 49 48 18z m-4460
-34 c0 -27 -4 -43 -10 -39 -5 3 -10 24 -10 46 0 21 5 39 10 39 6 0 10 -21 10
-46z m3914 10 c12 -31 4 -34 -106 -34 l-113 1 28 24 c25 22 37 25 106 25 63 0
80 -3 85 -16z m114 -10 c-29 -29 -50 -27 -68 5 -10 20 -8 21 42 21 l53 0 -27
-26z m-4148 -136 c0 -4 -21 -8 -47 -8 -65 0 -83 19 -83 89 l0 55 65 -64 c36
-35 65 -68 65 -72z m1890 122 c0 -5 -5 -10 -11 -10 -5 0 -7 5 -4 10 3 6 8 10
11 10 2 0 4 -4 4 -10z m-1826 -61 c60 -71 3 -99 -66 -32 -49 48 -49 63 1 63
32 0 44 -6 65 -31z m123 -1 c44 -43 44 -68 -1 -68 -25 0 -40 7 -55 26 -20 25
-20 34 2 62 13 17 17 16 54 -20z m33 16 c0 -8 -5 -12 -10 -9 -6 4 -8 11 -5 16
9 14 15 11 15 -7z m-130 -4 c0 -5 -2 -10 -4 -10 -3 0 -8 5 -11 10 -3 6 -1 10
4 10 6 0 11 -4 11 -10z"/>
<path d="M5716 2954 c-36 -35 -9 -92 38 -80 21 5 23 3 19 -15 -7 -26 -29 -35
-47 -20 -9 8 -16 8 -20 2 -7 -11 24 -31 48 -31 28 0 49 46 43 92 -8 60 -48 86
-81 52z m54 -24 c13 -25 5 -40 -21 -40 -22 0 -34 22 -25 45 8 21 33 19 46 -5z"/>
<path d="M6571 2957 c-15 -19 -3 -28 20 -14 14 9 21 9 31 -1 11 -11 10 -16 -4
-26 -22 -16 -23 -26 -4 -26 19 0 29 -30 15 -46 -15 -18 -28 -18 -51 3 -17 15
-18 15 -18 -1 0 -9 11 -21 25 -28 19 -9 29 -8 50 6 26 17 33 50 14 62 -6 3 -8
17 -4 31 3 14 1 31 -6 39 -15 18 -53 18 -68 1z"/>
<path d="M6705 2924 c-19 -26 -35 -51 -35 -55 0 -5 14 -9 30 -9 23 0 30 -4 30
-20 0 -28 28 -25 32 3 5 38 -3 127 -12 127 -5 0 -25 -21 -45 -46z m25 -24 c0
-24 -4 -30 -21 -30 -20 0 -20 1 -2 30 9 17 19 30 20 30 2 0 3 -13 3 -30z"/>
<path d="M5618 2949 c-22 -12 -24 -31 -3 -23 12 5 15 -5 15 -56 0 -38 4 -59
10 -55 11 7 14 145 3 145 -5 0 -16 -5 -25 -11z"/>
<path d="M4890 2910 c0 -38 1 -40 21 -30 39 21 68 -32 34 -60 -13 -10 -19 -9
-35 5 -23 21 -39 13 -20 -10 15 -18 61 -20 78 -3 15 15 15 61 0 76 -7 7 -22
12 -35 12 -16 0 -23 6 -23 19 0 15 8 21 38 24 34 3 33 4 -10 5 l-48 2 0 -40z"/>
<path d="M5009 2929 c-14 -27 -6 -109 12 -120 38 -24 79 -2 79 42 0 34 -23 53
-55 45 -28 -7 -30 -4 -15 25 11 20 40 27 40 9 0 -5 7 -10 16 -10 14 0 14 3 4
15 -19 23 -67 19 -81 -6z m69 -72 c5 -23 -15 -47 -33 -40 -17 6 -29 39 -20 53
11 17 49 7 53 -13z"/>
<path d="M3810 2880 c-20 -16 -22 -20 -7 -20 14 0 17 -9 17 -55 0 -30 5 -55
10 -55 6 0 10 32 10 75 0 41 -1 75 -2 75 -2 0 -14 -9 -28 -20z"/>
<path d="M3905 2884 c-21 -21 -13 -29 13 -13 23 14 52 6 52 -15 0 -8 -18 -32
-40 -52 -22 -21 -40 -41 -40 -46 0 -4 24 -7 53 -6 44 1 46 2 14 5 l-38 4 35
40 c40 43 44 60 20 83 -20 21 -48 20 -69 0z"/>
<path d="M3270 2873 c0 -10 -3 -28 -6 -40 -5 -19 -2 -21 28 -20 29 2 33 -1 36
-26 4 -35 -21 -46 -48 -22 -17 15 -20 16 -20 3 0 -46 73 -47 91 -1 13 34 -11
73 -46 73 -16 0 -25 6 -25 15 0 10 10 15 29 15 17 0 33 5 36 10 4 6 -10 10
-34 10 -32 0 -41 -4 -41 -17z"/>
<path d="M3392 2878 c-15 -15 -16 -45 -1 -53 7 -5 4 -14 -7 -27 -32 -34 15
-81 60 -60 28 12 35 49 14 70 -8 8 -8 15 1 26 29 35 -34 77 -67 44z m48 -28
c0 -13 -7 -20 -20 -20 -13 0 -20 7 -20 20 0 13 7 20 20 20 13 0 20 -7 20 -20z
m10 -77 c0 -22 -30 -27 -48 -9 -16 16 -16 18 2 31 21 16 46 4 46 -22z"/>
<path d="M2033 2829 c-27 -10 -38 -46 -30 -96 7 -39 20 -53 53 -53 27 0 44 19
44 51 0 34 -23 53 -55 45 -28 -7 -30 -4 -15 25 11 20 40 27 40 9 0 -5 7 -10
16 -10 8 0 12 4 9 10 -12 19 -40 28 -62 19z m45 -92 c5 -23 -15 -47 -33 -40
-17 6 -29 39 -20 53 11 17 49 7 53 -13z"/>
<path d="M2140 2820 c-13 -13 -20 -33 -20 -61 0 -56 14 -79 51 -79 34 0 49 27
49 86 0 33 -28 74 -50 74 -5 0 -19 -9 -30 -20z m48 -12 c13 -13 16 -66 6 -92
-3 -9 -14 -16 -24 -16 -21 0 -30 19 -30 64 0 29 14 56 30 56 3 0 11 -5 18 -12z"/>
<path d="M7070 2825 c-19 -23 -3 -31 20 -10 16 14 22 15 35 5 22 -18 19 -26
-25 -74 -22 -24 -40 -46 -40 -50 0 -3 23 -6 50 -6 28 0 50 5 50 10 0 6 -17 10
-37 10 l-38 0 38 35 c38 35 46 62 25 83 -17 17 -63 15 -78 -3z"/>
<path d="M7192 2823 c-7 -12 -7 -25 -1 -35 6 -12 5 -24 -3 -38 -19 -30 1 -55
42 -55 38 0 57 23 45 51 -5 11 -9 35 -9 54 -1 32 -4 35 -33 38 -23 2 -34 -2
-41 -15z m55 -9 c8 -21 -13 -42 -28 -27 -13 13 -5 43 11 43 6 0 13 -7 17 -16z
m1 -66 c7 -7 12 -17 12 -24 0 -19 -32 -26 -48 -10 -13 12 -13 18 -2 30 15 19
22 20 38 4z"/>
<path d="M7870 2595 c-14 -17 0 -21 17 -4 15 15 43 4 43 -16 0 -9 -7 -18 -15
-21 -19 -8 -20 -24 -1 -24 8 0 17 -7 20 -16 8 -22 8 -22 -13 -34 -15 -7 -24
-6 -36 6 -19 19 -28 14 -19 -10 8 -21 67 -21 85 0 10 12 10 22 1 46 -6 16 -8
36 -5 44 13 36 -51 60 -77 29z"/>
<path d="M7984 2595 c-10 -24 4 -31 20 -10 16 22 46 14 46 -13 0 -10 -16 -33
-35 -52 -48 -46 -45 -60 10 -60 25 0 45 5 45 10 0 6 -14 10 -32 10 l-32 0 33
34 c24 25 32 41 29 62 -3 26 -8 29 -41 32 -27 2 -39 -1 -43 -13z"/>
<path d="M7791 2378 c-22 -40 -46 -92 -53 -115 -9 -31 -18 -43 -31 -43 -18 0
-19 -6 -12 -77 10 -111 15 -112 45 -8 11 38 17 78 14 90 -5 22 41 136 76 185
22 31 25 40 10 40 -5 0 -27 -33 -49 -72z"/>
<path d="M9253 2322 c-41 -58 -41 -72 -4 -72 21 0 31 -6 36 -22 7 -22 7 -22
12 -3 3 11 10 24 17 28 8 6 8 10 -1 14 -8 3 -13 24 -13 54 0 27 -3 49 -7 49
-5 0 -23 -21 -40 -48z m27 -27 c0 -18 -5 -25 -20 -25 -24 0 -25 8 -3 32 21 23
23 23 23 -7z"/>
<path d="M9360 2350 c-25 -25 -28 -101 -4 -124 18 -19 55 -21 72 -4 17 17 15
63 -3 78 -8 7 -26 10 -40 8 -28 -6 -29 -4 -15 23 12 21 36 26 42 8 2 -7 10
-10 17 -8 11 4 10 9 -3 22 -23 22 -42 21 -66 -3z m58 -88 c4 -28 -24 -40 -45
-19 -21 21 -9 49 19 45 15 -2 24 -11 26 -26z"/>
<path d="M1902 2324 c-18 -12 -22 -25 -22 -64 0 -71 44 -104 84 -64 34 34 8
90 -38 82 -20 -4 -26 -2 -24 10 5 25 37 40 48 22 5 -8 13 -11 17 -6 4 4 -1 14
-11 22 -25 18 -27 17 -54 -2z m52 -79 c9 -25 -5 -46 -28 -43 -15 2 -22 11 -24
31 -3 23 0 27 21 27 14 0 27 -7 31 -15z"/>
<path d="M2018 2329 c-10 -5 -18 -17 -18 -26 0 -14 2 -14 20 2 10 9 26 15 35
12 25 -10 17 -41 -20 -77 -48 -46 -45 -60 10 -60 25 0 45 5 45 10 0 6 -13 10
-30 10 -16 0 -30 3 -30 8 0 4 14 19 30 34 35 31 40 72 11 88 -24 12 -31 12
-53 -1z"/>
<path d="M263 2222 c-41 -59 -41 -72 -3 -72 20 0 30 -5 30 -15 0 -23 14 -18
27 10 6 14 7 25 2 25 -5 0 -9 23 -9 50 0 28 -3 50 -7 50 -5 0 -23 -21 -40 -48z
m27 -22 c0 -23 -4 -30 -20 -30 -24 0 -25 4 -4 35 21 32 24 31 24 -5z"/>
<path d="M360 2255 c-10 -12 -10 -21 -2 -40 7 -15 8 -26 2 -30 -14 -9 -12 -49
2 -63 18 -18 53 -15 71 6 21 23 21 36 2 52 -11 9 -13 16 -5 24 16 16 12 44 -9
56 -27 14 -46 13 -61 -5z m58 -22 c5 -17 -26 -29 -40 -15 -6 6 -7 15 -3 22 9
14 37 9 43 -7z m10 -81 c-4 -22 -46 -28 -54 -8 -4 9 -1 23 6 31 16 19 53 1 48
-23z"/>
<path d="M9163 2161 c-32 -22 -85 -67 -117 -101 -43 -44 -63 -59 -77 -55 -15
5 -20 -2 -29 -37 -6 -24 -16 -58 -21 -76 -6 -18 -9 -37 -7 -42 4 -14 104 119
100 135 -4 20 107 127 176 170 34 21 62 39 62 41 0 13 -36 -2 -87 -35z"/>
<path d="M330 2041 c0 -30 10 -90 21 -134 17 -63 19 -81 9 -87 -10 -6 -8 -14
8 -36 21 -30 102 -112 102 -104 0 20 -62 164 -74 173 -18 14 -46 119 -46 173
0 22 -5 46 -10 54 -7 11 -10 -1 -10 -39z"/>
<path d="M1526 1848 c-8 -13 -17 -33 -21 -45 -6 -23 -7 -23 -226 -23 l-219 0
0 -44 0 -44 -127 -12 c-71 -6 -199 -10 -286 -8 l-157 3 0 -42 0 -43 100 0 101
0 -7 -37 c-18 -105 -64 -223 -116 -301 -16 -23 -28 -48 -25 -55 5 -14 70 85
103 157 20 45 43 125 59 209 l5 27 123 0 c67 0 145 3 174 6 l52 7 3 -39 3 -39
124 -3 123 -3 -6 -47 c-15 -101 -63 -227 -118 -305 -11 -15 -18 -33 -15 -40 4
-14 41 42 84 128 30 61 56 145 68 223 l7 42 114 0 c122 0 129 -4 98 -48 -8
-12 -14 -28 -11 -35 7 -22 47 57 47 94 0 20 -13 75 -30 122 -35 102 -37 130
-10 180 21 40 10 52 -14 15z m-335 -115 c-10 -16 -40 -48 -65 -73 l-46 -44 0
72 0 72 66 0 65 0 -20 -27z m164 -5 c-16 -18 -63 -68 -105 -110 -72 -76 -76
-78 -122 -78 -68 0 -64 18 33 128 l80 92 72 0 71 0 -29 -32z m149 16 c6 -17
-13 -43 -111 -146 l-54 -58 -66 0 -65 0 102 110 c99 107 103 110 145 110 30 0
45 -5 49 -16z m31 -105 c17 -50 17 -51 -6 -75 -20 -21 -31 -24 -92 -24 l-69 0
67 75 c37 41 71 75 75 75 5 0 16 -23 25 -51z m-515 6 c0 -25 -23 -35 -35 -15
-10 16 2 40 20 40 9 0 15 -9 15 -25z m40 0 c0 -14 -4 -25 -10 -25 -5 0 -10 11
-10 25 0 14 5 25 10 25 6 0 10 -11 10 -25z m-240 -10 l0 -25 -160 0 c-148 0
-160 1 -160 18 0 10 3 22 7 25 3 4 75 7 160 7 l153 0 0 -25z m42 0 c4 -17 1
-25 -8 -25 -14 0 -19 31 -7 43 9 10 10 9 15 -18z m100 0 c5 -22 2 -25 -23 -25
-24 0 -29 4 -29 25 0 20 5 25 24 25 17 0 25 -7 28 -25z m-75 -7 c-3 -8 -6 -5
-6 6 -1 11 2 17 5 13 3 -3 4 -12 1 -19z m673 -78 c0 -5 -5 -10 -11 -10 -5 0
-7 5 -4 10 3 6 8 10 11 10 2 0 4 -4 4 -10z"/>
<path d="M10600 1676 c0 -14 -69 -16 -680 -16 -447 0 -680 -3 -680 -10 0 -6
98 -10 275 -10 258 0 275 -1 275 -18 0 -38 32 -139 69 -216 43 -91 102 -177
109 -158 2 6 -10 30 -27 51 -40 50 -96 170 -116 246 -27 106 -70 95 380 95
344 0 395 -2 395 -15 0 -18 -5 -18 100 4 90 19 89 22 -10 41 -30 6 -63 13 -72
16 -12 3 -18 0 -18 -10z"/>
<path d="M8304 1480 c3 -14 14 -55 23 -93 13 -53 20 -66 33 -62 11 4 32 -15
66 -57 28 -35 75 -82 105 -105 68 -52 186 -117 192 -106 3 5 -23 23 -57 41
-118 61 -274 210 -262 250 3 11 -17 44 -51 87 -37 46 -53 62 -49 45z"/>
<path d="M336 1161 c-20 -28 -36 -56 -36 -61 0 -6 13 -10 29 -10 21 0 30 -6
35 -22 4 -18 8 -20 18 -10 14 14 13 131 -1 145 -5 5 -25 -15 -45 -42z m24 -26
c0 -18 -5 -25 -20 -25 -20 0 -20 1 -4 25 9 14 18 25 20 25 2 0 4 -11 4 -25z"/>
<path d="M448 1199 c-10 -5 -18 -17 -18 -26 0 -14 2 -14 20 2 10 9 26 15 35
12 26 -11 17 -41 -25 -81 -22 -21 -38 -42 -34 -47 7 -12 94 -12 94 1 0 6 -17
10 -37 10 l-37 0 37 38 c40 41 45 62 21 86 -18 18 -32 20 -56 5z"/>
<path d="M10010 1205 c0 -3 9 -19 21 -34 l21 -29 -26 -38 c-32 -47 -23 -61 12
-16 l25 33 28 -33 c35 -43 49 -30 15 15 -32 41 -32 45 -4 74 12 13 18 26 14
30 -4 5 -18 -5 -31 -21 l-23 -29 -17 27 c-15 23 -35 35 -35 21z"/>
<path d="M983 1052 c-18 -26 -33 -51 -33 -55 0 -4 13 -7 29 -7 21 0 30 -6 35
-22 3 -15 9 -19 15 -13 20 20 18 145 -1 145 -7 0 -28 -21 -45 -48z m27 -17 c0
-19 -5 -25 -20 -25 -20 0 -20 1 -3 25 22 30 23 30 23 0z"/>
<path d="M1103 1055 c-41 -55 -41 -65 -3 -65 23 0 30 -4 30 -20 0 -11 5 -20
10 -20 6 0 10 9 10 19 0 11 6 22 13 25 10 5 10 7 0 12 -8 3 -13 24 -13 50 0
24 -3 44 -7 44 -5 -1 -23 -21 -40 -45z m27 -20 c0 -18 -5 -25 -20 -25 -20 0
-20 1 -4 25 9 14 18 25 20 25 2 0 4 -11 4 -25z"/>
<path d="M8781 1059 c-23 -19 -23 -19 -2 -19 19 0 21 -6 21 -61 0 -37 4 -58
10 -54 12 7 14 141 2 148 -4 3 -18 -3 -31 -14z"/>
<path d="M8898 1035 c-45 -61 -47 -75 -9 -75 21 0 31 -6 36 -22 7 -22 7 -22
12 -3 3 11 10 23 17 28 8 5 8 9 -1 15 -6 4 -13 30 -15 57 l-3 50 -37 -50z m22
-25 c0 -24 -4 -30 -21 -30 -20 0 -20 1 -2 30 9 17 19 30 20 30 2 0 3 -13 3
-30z"/>
<path d="M8188 919 c-20 -11 -24 -44 -7 -54 7 -5 4 -14 -7 -26 -14 -16 -15
-23 -6 -45 10 -20 18 -25 44 -22 40 4 58 30 40 58 -10 16 -10 25 -1 42 10 18
8 24 -11 40 -25 21 -29 21 -52 7z m39 -25 c8 -21 -13 -42 -28 -27 -13 13 -5
43 11 43 6 0 13 -7 17 -16z m11 -80 c4 -27 -20 -37 -44 -19 -16 11 -16 15 -5
29 19 22 45 16 49 -10z"/>
<path d="M8078 906 c-22 -16 -24 -30 -3 -23 11 5 15 -6 17 -49 4 -80 23 -71
26 14 3 76 -4 86 -40 58z"/>
<path d="M5118 766 c-22 -16 -23 -30 -3 -22 12 4 15 -5 15 -54 0 -33 4 -60 10
-60 6 0 10 32 10 75 0 41 -3 75 -7 75 -5 0 -16 -7 -25 -14z"/>
<path d="M5209 759 c-14 -27 -6 -109 12 -120 38 -24 79 -2 79 42 0 34 -23 53
-55 45 -28 -7 -30 -4 -15 25 11 20 40 27 40 9 0 -5 7 -10 16 -10 14 0 14 3 4
15 -19 23 -67 19 -81 -6z m69 -72 c5 -23 -15 -47 -33 -40 -17 6 -29 39 -20 53
11 17 49 7 53 -13z"/>
<path d="M5808 745 c-4 -34 -3 -35 23 -30 21 5 30 2 38 -14 21 -38 -15 -74
-44 -44 -20 19 -33 9 -15 -12 35 -42 105 10 82 60 -9 19 -19 25 -42 25 -47 0
-35 35 15 43 25 3 23 4 -11 6 -41 1 -42 0 -46 -34z"/>
<path d="M5927 773 c-4 -3 -7 -13 -7 -21 0 -12 4 -12 20 3 23 20 50 14 50 -13
0 -10 -18 -35 -40 -57 -21 -21 -37 -42 -34 -47 7 -12 94 -10 94 2 0 6 -17 10
-37 10 l-38 0 38 35 c37 34 43 49 31 79 -6 16 -64 23 -77 9z"/>
<path d="M7080 765 c-7 -9 -9 -19 -5 -23 4 -4 10 -1 12 6 3 6 16 12 29 12 36
0 31 -36 -11 -73 -49 -43 -46 -57 13 -55 36 1 39 2 15 5 -41 5 -41 12 -3 48
31 30 38 63 18 83 -17 17 -53 15 -68 -3z"/>
<path d="M7200 765 c-7 -9 -10 -19 -6 -22 4 -4 11 -1 15 6 11 17 45 10 49 -11
2 -9 -13 -31 -32 -49 -50 -45 -47 -59 12 -57 36 1 39 2 15 5 -41 5 -41 12 -3
48 31 30 38 63 18 83 -17 17 -53 15 -68 -3z"/>
<path d="M3330 655 c-7 -9 -10 -18 -6 -22 3 -4 12 2 20 12 17 24 46 13 46 -17
0 -14 -13 -34 -35 -51 -49 -39 -46 -57 10 -57 25 0 45 5 45 10 0 6 -14 10 -31
10 l-31 0 36 40 c40 45 40 44 26 71 -13 23 -62 26 -80 4z"/>
<path d="M3462 626 c-40 -55 -40 -66 -2 -66 23 0 30 -4 30 -20 0 -11 5 -20 10
-20 6 0 10 9 10 19 0 11 6 22 13 25 10 5 10 7 0 12 -8 3 -13 24 -13 50 0 24
-4 44 -8 44 -5 0 -23 -20 -40 -44z m28 -21 c0 -18 -5 -25 -20 -25 -20 0 -20 1
-4 25 9 14 18 25 20 25 2 0 4 -11 4 -25z"/>
<path d="M2345 646 c-23 -17 -27 -104 -6 -129 20 -25 58 -21 76 7 13 19 14 28
3 51 -10 22 -17 26 -43 23 -27 -3 -31 -1 -27 15 6 25 28 32 47 17 9 -7 19 -10
23 -6 8 8 -25 36 -43 36 -6 0 -20 -6 -30 -14z m50 -96 c0 -32 -30 -39 -45 -10
-14 26 -4 42 23 38 16 -2 22 -10 22 -28z"/>
<path d="M2460 645 c-7 -9 -9 -19 -5 -23 4 -4 10 -1 12 6 3 6 13 12 24 12 24
0 26 -35 2 -48 -14 -9 -14 -10 6 -17 30 -9 25 -49 -6 -53 -13 -2 -23 1 -23 7
0 6 -7 11 -15 11 -13 0 -14 -4 -5 -20 12 -23 59 -27 78 -8 15 15 16 54 2 63
-7 4 -6 13 1 26 21 40 -42 79 -71 44z"/>
<path d="M3833 630 c-13 -5 -23 -17 -23 -26 0 -16 2 -16 20 1 10 9 26 15 35
12 25 -10 17 -41 -20 -77 -48 -46 -45 -60 10 -60 25 0 45 5 45 10 0 6 -13 10
-30 10 -16 0 -30 4 -30 9 0 5 14 19 30 31 36 26 42 73 11 90 -22 11 -19 11
-48 0z"/>
<path d="M3946 621 c-43 -47 -24 -136 29 -136 38 0 58 35 50 90 -9 60 -46 82
-79 46z m55 -25 c7 -14 9 -40 5 -61 -6 -30 -11 -36 -29 -33 -19 3 -22 10 -25
52 -2 32 1 52 10 57 21 13 28 11 39 -15z"/>
<path d="M4620 511 c0 -38 1 -39 33 -37 28 1 32 -2 32 -23 0 -13 -8 -29 -18
-35 -15 -9 -21 -7 -32 8 -8 11 -18 16 -22 12 -4 -3 3 -16 15 -28 18 -19 25
-20 47 -10 49 23 46 88 -5 99 -40 7 -40 33 0 33 17 0 30 5 30 10 0 6 -18 10
-40 10 -40 0 -40 0 -40 -39z"/>
<path d="M4755 498 l-35 -53 35 -3 c27 -2 35 -8 35 -23 0 -10 5 -19 10 -19 6
0 10 9 10 19 0 11 6 22 13 24 10 4 10 6 0 6 -9 1 -13 18 -13 51 0 28 -4 50
-10 50 -5 0 -25 -24 -45 -52z m35 -18 c0 -23 -4 -30 -20 -30 -24 0 -25 8 -4
38 20 29 24 28 24 -8z"/>
<path d="M6190 486 c-10 -13 -10 -16 4 -16 9 0 16 5 16 10 0 17 30 11 37 -6 4
-10 -1 -22 -10 -29 -21 -15 -22 -25 -2 -25 21 0 30 -27 15 -45 -16 -19 -25
-19 -45 1 -20 20 -33 11 -15 -11 16 -19 64 -19 80 0 8 10 9 24 4 42 -4 16 -8
42 -8 58 -1 26 -5 30 -32 33 -19 2 -36 -3 -44 -12z"/>
<path d="M6307 493 c-11 -10 -8 -53 3 -53 5 0 2 -13 -8 -29 -21 -37 -4 -61 44
-61 28 0 35 5 40 25 3 14 1 32 -6 39 -8 11 -9 20 0 36 9 16 8 25 -1 36 -12 14
-60 19 -72 7z m50 -19 c8 -21 -13 -42 -28 -27 -13 13 -5 43 11 43 6 0 13 -7
17 -16z m11 -80 c4 -27 -23 -38 -43 -18 -12 13 -13 19 -4 30 17 20 43 13 47
-12z"/>
<path d="M5040 466 c0 -13 -3 -32 -7 -41 -5 -15 -1 -16 25 -10 25 5 33 2 41
-14 6 -11 8 -27 5 -35 -7 -19 -50 -21 -57 -3 -2 6 -8 9 -12 5 -13 -12 15 -38
41 -38 23 0 54 33 54 57 0 24 -40 54 -61 48 -17 -6 -20 -3 -17 12 2 12 14 19
36 21 46 5 40 22 -8 22 -36 0 -40 -3 -40 -24z"/>
<path d="M5165 476 c-23 -16 -27 -105 -6 -130 17 -21 55 -20 72 1 22 26 18
112 -5 129 -25 18 -37 18 -61 0z m59 -44 c11 -41 -6 -85 -32 -80 -12 2 -18 15
-20 47 -2 24 -1 50 2 58 10 25 40 10 50 -25z"/>
</g>
</svg>
