<?xml version="1.0" standalone="no"?>
<!DOCTYPE svg PUBLIC "-//W3C//DTD SVG 20010904//EN"
 "http://www.w3.org/TR/2001/REC-SVG-20010904/DTD/svg10.dtd">
<svg version="1.0" xmlns="http://www.w3.org/2000/svg"
 width="218.000000pt" height="300.000000pt" viewBox="0 0 218.000000 300.000000"
 preserveAspectRatio="xMidYMid meet">
<metadata>
Created by potrace 1.10, written by Peter Selinger 2001-2011
</metadata>
<g transform="translate(0.000000,300.000000) scale(0.100000,-0.100000)"
fill="#000000" stroke="none">
<path d="M3 2477 c2 -7 181 -115 398 -240 217 -125 400 -231 407 -236 8 -4 12
-17 10 -29 -3 -19 -10 -17 -103 37 -194 112 -441 255 -570 329 -72 41 -133 76
-137 79 -5 2 -8 1 -8 -4 0 -4 24 -21 53 -37 28 -16 149 -85 267 -154 118 -68
262 -151 320 -185 155 -89 193 -114 183 -120 -5 -3 -191 100 -413 228 -222
129 -406 232 -409 229 -6 -6 -27 7 279 -169 562 -324 525 -301 528 -329 3 -24
-8 -19 -180 80 -101 59 -284 164 -406 235 -123 71 -222 124 -220 117 2 -6 156
-99 341 -206 l337 -194 0 -159 0 -158 -62 38 c-150 92 -610 353 -614 349 -7
-8 10 -19 251 -158 441 -253 425 -243 425 -268 0 -13 -3 -21 -7 -19 -5 2 -116
66 -248 142 -132 76 -267 154 -300 172 -33 19 -75 44 -92 55 -18 11 -33 16
-33 11 0 -4 40 -31 88 -59 190 -111 603 -350 629 -364 74 -40 104 -61 98 -70
-3 -5 -38 10 -78 34 -68 41 -556 322 -680 392 -31 18 -57 30 -57 26 0 -8 12
-16 85 -57 28 -15 90 -51 140 -80 50 -29 194 -112 320 -185 127 -72 234 -135
239 -140 5 -5 -1 -14 -15 -20 -21 -10 -33 -6 -82 24 -53 31 -64 34 -116 30
-60 -4 -101 12 -87 34 11 18 41 14 81 -9 20 -12 38 -19 41 -16 3 3 -46 34
-108 69 -62 36 -161 92 -219 126 -59 34 -114 60 -122 57 -8 -4 -19 -16 -25
-29 -8 -19 -6 -24 19 -38 19 -11 40 -15 64 -11 34 6 36 5 30 -19 -5 -19 -1
-27 20 -36 33 -15 70 -15 97 -1 20 11 20 10 4 -12 -22 -31 -21 -36 12 -53 28
-14 77 -11 100 7 16 13 15 1 -3 -27 -15 -22 -14 -24 11 -41 19 -12 38 -16 65
-12 36 5 39 4 33 -17 -8 -31 30 -55 76 -48 19 2 40 9 47 14 6 5 14 5 16 1 7
-11 -80 -70 -115 -79 -27 -6 -39 8 -18 21 17 10 12 20 -21 39 -22 13 -40 16
-65 11 -33 -6 -34 -5 -28 19 8 33 -24 50 -82 43 -41 -4 -43 -3 -32 16 9 17 6
23 -13 39 -19 14 -34 17 -67 13 -42 -6 -43 -6 -32 15 13 24 14 23 -20 41 -34
18 -81 12 -102 -13 -24 -27 -23 -30 10 -48 19 -11 38 -14 62 -9 42 9 45 7 31
-20 -10 -18 -7 -22 20 -37 21 -10 43 -14 66 -9 32 6 33 5 27 -19 -5 -20 -1
-27 24 -40 16 -8 31 -14 33 -12 2 2 19 6 37 9 31 6 32 5 21 -15 -10 -18 -8
-24 12 -40 18 -14 34 -18 67 -13 29 3 42 1 40 -6 -4 -13 -108 -72 -108 -61 0
4 -6 -1 -13 -10 -17 -22 -107 -69 -118 -62 -5 3 -7 15 -3 28 4 17 -1 25 -23
36 -15 7 -30 13 -33 13 -3 -1 -20 -4 -38 -8 -32 -7 -33 -6 -23 13 15 28 15 27
-15 47 -36 23 -97 12 -112 -21 -10 -21 -8 -25 19 -40 21 -10 43 -14 66 -9 31
6 33 4 28 -17 -9 -34 38 -60 88 -48 20 4 37 4 37 0 0 -15 -60 -52 -96 -60 -32
-7 -46 1 -24 15 33 20 -35 60 -86 50 -35 -6 -40 -1 -25 25 13 20 -37 50 -72
43 -33 -6 -36 -25 -4 -22 28 3 67 -9 67 -22 0 -13 -51 -31 -72 -26 -10 3 -18
0 -18 -5 0 -7 17 -9 45 -6 40 5 43 4 35 -13 -14 -25 -13 -27 19 -43 18 -10 42
-13 66 -9 28 4 37 3 34 -6 -5 -14 -109 -74 -109 -63 0 4 -6 0 -13 -9 -7 -9
-27 -23 -44 -33 -18 -9 -33 -21 -33 -27 0 -6 3 -8 8 -6 4 3 115 67 247 142
132 76 337 194 455 263 118 69 268 155 333 191 237 134 241 150 57 258 -47 27
-107 62 -133 77 -38 22 -48 32 -44 47 3 11 -1 26 -10 34 -13 13 -13 15 1 15 9
0 16 -6 16 -13 0 -8 72 -55 160 -107 88 -51 169 -104 180 -118 44 -55 18 -99
-103 -168 -190 -110 -402 -233 -552 -319 -88 -50 -218 -126 -290 -167 -72 -42
-148 -86 -170 -98 -104 -60 -156 -93 -152 -96 4 -5 29 9 292 161 94 54 298
172 455 262 157 91 326 189 377 219 88 52 113 62 113 47 0 -5 -195 -120 -433
-257 -237 -137 -472 -273 -522 -302 -50 -28 -134 -78 -188 -109 -54 -31 -96
-59 -94 -62 4 -4 172 92 977 558 212 122 256 144 262 131 6 -14 7 -14 7 3 1
11 17 32 35 48 l35 27 -10 -29 c-19 -53 22 -29 -1064 -651 -131 -76 -241 -143
-243 -150 -3 -9 1 -9 18 0 12 6 24 9 27 6 8 -8 -7 -27 -31 -36 l-21 -9 22 0
c24 -1 54 34 47 54 -6 15 23 28 31 15 3 -5 11 -7 18 -5 7 2 25 6 40 9 26 6 27
5 16 -15 -10 -19 -8 -25 12 -41 18 -14 34 -18 67 -14 40 5 42 4 32 -13 -14
-27 -14 -27 20 -41 17 -7 46 -10 67 -7 37 6 36 6 -20 -28 -32 -19 -60 -35 -63
-35 -2 0 -2 11 2 23 4 20 0 26 -25 37 -18 7 -45 10 -66 6 -35 -7 -36 -6 -25
15 12 22 10 26 -30 48 -28 16 -87 1 -99 -25 -9 -21 -7 -26 14 -40 18 -11 38
-15 65 -11 37 5 40 4 34 -17 -8 -32 33 -58 78 -50 30 5 29 3 -22 -29 -30 -19
-56 -33 -58 -31 -2 1 1 12 7 23 10 18 7 22 -19 36 -21 11 -42 14 -66 9 -83
-15 -53 -91 31 -78 47 7 46 6 -23 -35 -63 -37 -66 -37 -51 -9 10 18 8 24 -7
35 -23 17 -29 10 -12 -16 11 -18 11 -23 -2 -31 -13 -9 -13 -10 0 -10 13 0 13
-1 0 -10 -8 -5 -12 -11 -9 -15 3 -3 71 32 150 78 79 46 221 127 314 181 94 54
184 106 200 116 24 15 34 16 52 7 20 -11 14 -16 -85 -73 -149 -86 -483 -278
-565 -326 -38 -22 -66 -42 -64 -45 3 -2 97 48 209 113 111 65 289 166 393 226
105 59 195 111 200 115 36 28 427 245 432 239 3 -3 4 -8 2 -10 -6 -6 -220
-131 -604 -351 -171 -98 -346 -199 -390 -225 -44 -26 -117 -68 -163 -95 -46
-26 -81 -49 -78 -52 4 -5 21 4 381 212 132 76 308 178 390 225 303 175 421
243 443 258 20 13 22 13 22 -2 0 -10 4 -15 10 -11 5 3 7 11 4 18 -2 7 12 25
31 40 l35 28 -11 -28 c-22 -58 34 -23 -764 -482 -297 -171 -542 -316 -544
-322 -4 -14 -31 -29 492 273 247 142 452 258 457 258 5 0 25 -9 45 -20 20 -11
44 -20 55 -20 21 0 327 173 344 194 6 8 55 39 109 70 53 31 139 80 190 109 50
30 169 98 262 152 94 53 176 104 183 113 6 9 12 43 12 77 0 68 -6 79 -69 119
-32 20 -40 31 -32 39 15 15 14 60 -1 75 -16 16 -70 16 -86 0 -15 -15 -16 -64
-2 -73 6 -4 8 -11 5 -16 -4 -5 5 -20 19 -34 25 -25 35 -55 19 -55 -17 0 -34
18 -32 31 1 8 -1 22 -6 32 -6 16 -10 16 -24 4 -9 -8 -135 -83 -281 -167 -146
-84 -274 -158 -286 -165 -20 -13 -22 -9 -64 106 l-43 120 29 30 c26 27 29 37
29 99 0 83 -17 111 -93 155 l-51 30 -1 208 c0 239 0 240 -82 194 -64 -36 -76
-29 -80 45 -4 82 -20 92 -82 49 l-46 -32 0 -139 c0 -82 4 -141 10 -145 6 -4
10 38 10 119 0 69 2 126 4 126 2 0 24 -12 50 -26 l46 -26 0 -134 c0 -74 -3
-134 -6 -134 -3 0 -15 5 -26 11 -20 11 -21 12 -4 24 14 11 15 17 6 34 -13 25
-20 26 -57 5 -28 -16 -30 -16 -73 11 -131 83 -851 492 -847 482z m1005 -220
c2 -26 0 -47 -3 -47 -14 0 -85 41 -85 49 0 12 62 50 75 47 6 -1 11 -24 13 -49z
m162 -237 c0 -110 -3 -200 -7 -200 -5 0 -23 9 -40 20 l-33 20 0 159 0 159 33
20 c17 11 35 21 40 21 4 1 7 -89 7 -199z m-90 0 c0 -82 -2 -150 -5 -150 -3 0
-17 7 -30 16 -25 16 -25 19 -25 150 l0 134 30 0 30 0 0 -150z m-220 -57 c0 4
9 -2 19 -12 17 -17 20 -37 23 -150 2 -72 2 -131 0 -131 -2 0 -12 5 -23 11 -19
10 -19 11 -4 23 14 10 15 17 6 34 -15 29 -15 149 2 155 20 7 -7 42 -32 41 -13
0 -21 6 -21 16 0 23 12 33 22 18 4 -7 8 -10 8 -5z m4 -66 c-3 -9 -15 -17 -25
-17 -13 0 -17 5 -12 18 4 9 11 20 17 24 15 10 28 -6 20 -25z m-144 -203 c0
-128 -3 -193 -10 -189 -6 4 -10 82 -10 201 0 128 3 193 10 189 6 -4 10 -82 10
-201z m30 -15 c0 -119 -4 -189 -10 -189 -6 0 -10 72 -10 196 0 127 3 193 10
189 6 -4 10 -80 10 -196z m110 120 c0 -45 -4 -69 -12 -72 -7 -3 -4 -6 7 -6 15
-1 17 -3 6 -13 -23 -23 -41 19 -41 93 0 62 2 68 20 66 18 -1 20 -8 20 -68z
m187 4 c140 -79 129 -71 117 -82 -10 -9 -236 120 -242 139 -6 17 2 13 125 -57z
m-265 -123 c0 -103 -4 -166 -11 -173 -8 -8 -11 41 -11 173 0 132 3 181 11 173
7 -7 11 -70 11 -173z m70 5 l38 -20 0 -77 c0 -56 4 -78 13 -78 8 0 8 -3 -2 -9
-10 -6 -22 -5 -35 5 -11 8 -31 14 -43 14 l-23 0 2 163 c1 114 3 141 7 92 6
-69 7 -70 43 -90z m192 79 c99 -56 116 -70 116 -91 l0 -25 -32 20 c-18 11 -71
42 -117 69 -64 36 -85 54 -86 71 -1 12 0 22 1 22 1 0 55 -30 118 -66z m-111
-17 c-4 -6 0 -8 11 -4 9 4 28 0 42 -9 23 -15 24 -22 24 -109 0 -72 -3 -95 -16
-106 -13 -10 -17 -10 -24 2 -8 11 -13 12 -30 2 -11 -7 -22 -13 -25 -13 -9 0
-5 149 4 154 10 6 8 77 -3 94 -5 8 -2 10 8 6 9 -3 13 -11 9 -17z m272 -47 c14
-16 16 -24 7 -42 -11 -23 -11 -23 -11 -2 -1 12 -8 27 -16 34 -16 14 -20 30 -7
30 5 0 17 -9 27 -20z m-125 -74 c0 -46 -4 -56 -25 -70 -13 -9 -27 -16 -30 -16
-3 0 -5 38 -5 85 l0 86 30 -16 c28 -14 30 -20 30 -69z m230 30 c0 -34 -6 -48
-29 -70 -39 -37 -46 -13 -8 26 23 23 28 35 25 63 -2 18 0 31 4 29 4 -3 8 -24
8 -48z m715 44 c-3 -5 -1 -10 4 -10 6 0 11 -4 11 -9 0 -15 -73 -7 -78 9 -3 9
1 11 12 7 9 -4 16 -2 16 3 0 6 9 10 21 10 11 0 17 -4 14 -10z m-1815 -25 c17
-9 30 -20 30 -25 0 -13 -51 -17 -77 -6 -28 11 -29 22 -5 35 22 13 18 14 52 -4z
m980 -21 c0 -14 -4 -22 -10 -19 -5 3 -10 17 -10 31 0 14 4 22 10 19 6 -3 10
-17 10 -31z m-20 -28 c0 -4 -69 -46 -76 -46 -2 0 -4 20 -4 45 l0 45 40 -20
c22 -11 40 -22 40 -24z m848 31 c25 6 31 -14 7 -23 -23 -9 -65 5 -65 22 0 11
4 12 18 5 10 -6 28 -7 40 -4z m-1695 -49 l42 -21 -30 -9 c-19 -5 -40 -4 -57 3
-23 9 -26 14 -17 30 12 24 11 24 62 -3z m1723 -35 c-1 -14 -6 -28 -12 -30 -16
-5 -24 33 -11 46 17 17 24 13 23 -16z m54 -14 c0 -6 -25 -19 -36 -19 -2 0 -4
11 -4 25 0 23 2 24 20 13 11 -7 20 -16 20 -19z m-147 1 c-8 -28 37 -48 73 -31
15 6 28 10 31 8 2 -3 -45 -31 -104 -65 -59 -33 -207 -117 -328 -187 -121 -69
-224 -127 -229 -128 -7 -2 -40 73 -34 79 2 1 91 53 198 115 107 62 240 138
295 170 55 32 101 59 102 59 0 0 -1 -9 -4 -20z m-1514 -17 c17 -10 31 -21 31
-25 0 -9 -62 -11 -84 -2 -28 11 -17 39 16 43 3 1 20 -7 37 -16z m-210 -2 c23
-15 -5 -41 -44 -41 -34 0 -61 22 -50 40 8 12 75 13 94 1z m1901 -4 c0 -8 -12
-20 -27 -28 -15 -8 -91 -51 -168 -95 -489 -283 -528 -305 -536 -292 -4 7 -7
13 -6 14 2 2 191 111 437 252 91 53 190 110 220 128 61 36 80 41 80 21z
m-1314 -53 c-6 -16 19 -38 34 -29 5 3 10 2 10 -4 0 -15 -23 -26 -28 -13 -2 7
-8 12 -13 12 -5 0 -21 7 -35 16 -22 15 -23 17 -7 29 20 15 46 8 39 -11z m1314
-28 l0 -54 -82 -48 c-46 -26 -123 -71 -173 -100 -49 -29 -162 -94 -250 -144
-88 -51 -175 -101 -193 -112 l-33 -20 3 57 3 57 95 55 c52 30 185 107 295 171
110 63 229 132 265 153 36 21 66 38 68 38 1 1 2 -23 2 -53z m-1262 28 c22 -15
24 -15 37 2 7 11 17 15 22 11 12 -13 -27 -32 -64 -32 -25 0 -33 4 -33 18 0 21
9 22 38 1z m-528 -9 c16 -19 5 -32 -30 -36 -60 -7 -91 28 -39 42 40 11 56 10
69 -6z m920 1 c0 -2 18 -55 41 -117 88 -246 90 -254 87 -330 l-3 -73 -100 -58
c-55 -32 -121 -70 -147 -83 l-48 -25 0 49 c0 40 4 52 20 61 19 10 20 9 14 -14
-5 -21 -1 -28 21 -38 25 -11 29 -10 46 11 24 30 24 48 -1 56 -30 9 -25 20 20
40 55 25 108 81 116 122 9 49 -1 112 -24 142 -10 14 -62 51 -115 81 -58 33
-96 61 -97 71 0 10 31 35 78 62 72 43 92 52 92 43z m-795 -76 c7 -11 -27 -30
-55 -30 -32 0 -60 18 -54 35 10 26 92 23 109 -5z m201 9 c19 -11 34 -23 34
-25 0 -8 -85 -4 -99 5 -12 8 -12 12 -2 25 17 21 27 20 67 -5z m-101 -62 c10
-8 15 -19 12 -24 -9 -15 -69 -22 -89 -11 -25 12 -22 36 5 41 42 8 53 7 72 -6z
m598 -51 c134 -79 155 -116 100 -175 -22 -24 -432 -271 -449 -271 -2 0 -4 9
-4 19 0 24 15 35 227 156 164 93 172 100 166 124 -3 14 -13 34 -21 44 -21 24
-6 34 19 12 14 -14 18 -26 14 -43 -4 -15 -2 -21 5 -17 17 10 11 42 -12 69 -13
13 -61 46 -108 72 -47 27 -87 50 -90 52 -9 6 25 22 41 19 8 -2 59 -30 112 -61z
m-83 -14 c74 -42 93 -59 74 -64 -9 -2 -174 96 -174 105 0 14 18 7 100 -41z
m-19 -29 c90 -51 99 -59 99 -86 l0 -29 -32 20 c-131 78 -208 121 -209 114 -1
-4 -1 -10 0 -14 0 -5 -9 -8 -21 -8 -13 0 -30 -5 -38 -11 -11 -7 -6 -8 20 -3
19 3 40 10 46 15 20 16 23 -3 3 -24 -20 -21 -20 -21 3 -39 23 -19 73 -20 112
-3 18 8 18 7 0 -20 -17 -27 -17 -27 7 -46 26 -20 41 -22 79 -8 23 8 22 8 -7 5
-30 -2 -33 0 -33 26 l0 28 28 -17 c15 -10 30 -22 34 -27 8 -11 15 4 21 44 l3
25 8 -28 c9 -31 2 -39 -84 -88 -25 -14 -74 -43 -110 -64 -111 -65 -165 -95
-172 -95 -5 0 -8 9 -8 20 0 12 6 20 13 19 33 -4 59 3 77 21 11 11 20 24 20 28
0 15 -52 37 -81 34 -27 -3 -29 -1 -29 32 0 36 8 44 26 27 15 -16 79 3 78 22
-1 9 2 15 6 12 5 -3 11 -1 14 4 11 16 -44 43 -82 39 -35 -3 -37 -1 -37 25 -1
22 6 32 30 43 16 7 48 25 70 39 22 13 41 24 43 25 2 0 48 -26 103 -57z m-863
13 c19 -10 21 -15 10 -23 -24 -21 -66 -26 -87 -11 -22 16 -16 33 14 41 32 8
39 7 63 -7z m796 -42 c9 -3 16 -15 16 -25 0 -21 -29 -26 -61 -9 -31 17 -23 31
23 39 3 0 13 -2 22 -5z m-204 -398 c-7 -7 -10 52 -10 185 0 108 3 199 8 203 4
4 8 -79 10 -185 1 -121 -1 -196 -8 -203z m-479 373 c28 -15 7 -39 -35 -39 -40
0 -61 14 -53 34 7 19 58 22 88 5z m999 -43 c0 -33 -6 -48 -28 -69 -40 -38 -48
-22 -11 21 24 27 30 42 27 68 -2 18 0 30 4 28 4 -3 8 -24 8 -48z m-547 -148
c-2 -121 -6 -194 -13 -196 -7 -3 -10 60 -10 186 0 174 3 202 19 202 3 0 5 -87
4 -192z m-33 -9 c0 -117 -3 -178 -10 -174 -6 4 -10 73 -10 174 0 147 3 181 17
181 2 0 3 -81 3 -181z m350 146 c0 -26 -14 -33 -25 -15 -9 14 1 40 15 40 5 0
10 -11 10 -25z m-396 -9 c-8 -14 -29 -28 -45 -31 -44 -10 -45 -1 -2 21 21 10
40 22 41 27 2 4 8 7 13 7 5 0 2 -11 -7 -24z m206 -1 c0 -21 -5 -25 -29 -25
-31 0 -57 22 -46 40 3 5 22 10 41 10 30 0 34 -3 34 -25z m-704 -9 c23 -17 12
-31 -31 -39 -19 -3 -38 0 -50 9 -20 15 -20 15 -1 30 25 18 57 18 82 0z m495
-37 c-17 -27 -18 -34 -6 -43 18 -15 24 -78 7 -84 -9 -3 -11 3 -7 20 5 19 1 29
-19 41 -42 28 -116 3 -116 -39 0 -19 56 -37 95 -30 35 7 36 6 25 -15 -10 -17
-9 -23 1 -30 8 -5 17 -9 22 -9 4 0 7 -13 7 -30 0 -19 -7 -33 -21 -40 -19 -11
-20 -10 -9 11 11 19 9 25 -11 41 -19 14 -34 17 -67 13 -42 -6 -43 -6 -32 15
13 24 14 23 -20 41 -34 18 -81 12 -102 -13 -24 -27 -23 -30 10 -48 19 -11 38
-14 62 -9 41 9 45 7 31 -18 -8 -16 -5 -22 20 -37 20 -12 39 -15 59 -11 44 10
37 0 -25 -33 -54 -29 -55 -30 -49 -8 4 17 -1 27 -21 40 -44 29 -115 3 -115
-42 0 -17 58 -34 92 -27 25 5 30 4 18 -5 -68 -50 -169 -72 -206 -46 -24 18 -9
36 31 36 45 0 65 -9 65 -29 0 -14 2 -14 10 -1 5 8 10 18 10 21 0 14 -62 31
-95 26 -33 -5 -34 -5 -29 22 5 24 2 30 -24 40 -17 7 -44 10 -60 6 -27 -6 -29
-4 -28 24 1 17 3 31 6 32 21 4 110 3 110 -1 0 -3 -4 -12 -9 -20 -15 -22 40
-51 81 -44 33 7 58 28 58 50 0 19 -56 37 -95 30 -34 -7 -36 -6 -26 13 6 11 10
26 9 33 -2 8 13 13 45 15 56 2 79 17 75 47 -3 18 3 21 46 23 55 2 90 26 80 55
-6 19 -1 21 58 18 26 -1 42 4 54 19 26 30 28 19 5 -20z m19 -24 c0 -8 -4 -15
-10 -15 -5 0 -10 7 -10 15 0 8 5 15 10 15 6 0 10 -7 10 -15z m-152 -12 c-2
-10 -16 -20 -35 -24 -44 -9 -49 0 -10 22 41 23 49 23 45 2z m346 -48 c7 -20
-19 -37 -51 -33 -20 2 -29 9 -31 25 -3 17 3 22 25 25 35 5 50 0 57 -17z m-247
2 c12 -7 19 -17 15 -23 -11 -17 -65 -24 -89 -11 -26 14 -18 33 17 40 14 2 27
5 30 5 3 1 15 -4 27 -11z m-223 -31 c-5 -12 -63 -29 -73 -20 -2 1 12 12 30 23
34 21 52 20 43 -3z m116 -58 c0 -18 -50 -32 -78 -22 -36 13 -35 37 3 44 31 6
75 -7 75 -22z m160 25 c0 -5 -4 -15 -10 -23 -11 -18 -25 -7 -17 15 6 15 27 21
27 8z m-400 -33 c0 -13 -48 -32 -69 -27 -11 2 -7 8 14 20 35 19 55 21 55 7z
m870 0 c0 -6 -6 -13 -14 -16 -8 -3 -12 -12 -9 -20 3 -8 0 -14 -6 -14 -14 0
-14 16 -1 41 11 20 30 26 30 9z m20 -13 c0 -7 -6 -21 -13 -31 -13 -18 -14 -18
-14 0 0 10 5 24 11 31 14 16 16 16 16 0z m-550 -32 c17 -21 4 -35 -35 -35 -62
0 -86 22 -42 40 33 13 63 12 77 -5z m436 -82 c-4 -8 -16 -13 -28 -11 -18 2
-24 10 -26 38 -2 29 2 38 25 52 l28 17 3 -41 c2 -22 1 -47 -2 -55z m-682 81
c23 -9 20 -31 -5 -39 -24 -8 -89 2 -89 13 0 26 55 41 94 26z m-224 -28 c0 -14
-56 -33 -67 -23 -5 5 45 36 60 37 4 0 7 -6 7 -14z m837 -43 c-3 -2 -15 1 -28
7 l-22 13 24 13 c22 11 24 11 27 -8 2 -11 1 -22 -1 -25z m-493 2 c23 -17 15
-31 -24 -38 -36 -8 -81 10 -73 29 4 11 21 17 68 22 6 1 18 -5 29 -13z m-244
-5 c27 -14 15 -37 -23 -43 -55 -8 -98 36 -44 46 39 8 48 7 67 -3z m-125 -73
c23 -17 13 -34 -25 -42 -32 -7 -73 10 -67 28 3 10 15 15 68 26 3 0 13 -5 24
-12z m114 -66 c8 -5 15 -18 16 -28 1 -15 -5 -17 -44 -14 -25 2 -52 8 -59 14
-30 24 52 50 87 28z m-124 -74 c24 -18 13 -33 -27 -40 -37 -5 -68 7 -68 28 0
24 66 33 95 12z"/>
<path d="M940 1701 c0 -25 27 -48 41 -34 8 8 7 17 0 32 -14 26 -41 28 -41 2z
m35 -10 c3 -5 2 -12 -3 -15 -5 -3 -9 1 -9 9 0 17 3 19 12 6z"/>
<path d="M944 1616 c-9 -24 3 -46 26 -46 26 0 26 22 0 45 -18 16 -20 16 -26 1z
m31 -16 c3 -5 1 -10 -4 -10 -6 0 -11 5 -11 10 0 6 2 10 4 10 3 0 8 -4 11 -10z"/>
<path d="M1895 1517 c-24 -18 -11 -37 25 -37 36 0 49 19 25 37 -11 7 -22 13
-25 13 -3 0 -14 -6 -25 -13z m38 -24 c-7 -2 -19 -2 -25 0 -7 3 -2 5 12 5 14 0
19 -2 13 -5z"/>
<path d="M1804 1465 c-16 -13 -17 -16 -4 -25 36 -24 84 -4 60 25 -16 19 -31
19 -56 0z m39 -22 c-7 -2 -19 -2 -25 0 -7 3 -2 5 12 5 14 0 19 -2 13 -5z"/>
<path d="M1721 1421 c-21 -14 -5 -41 24 -41 29 0 45 27 24 41 -8 5 -18 9 -24
9 -5 0 -16 -4 -24 -9z m42 -28 c-7 -2 -19 -2 -25 0 -7 3 -2 5 12 5 14 0 19 -2
13 -5z"/>
<path d="M1312 1018 c-19 -19 -14 -56 10 -69 18 -10 24 -8 40 11 23 29 23 47
-1 60 -25 13 -34 13 -49 -2z m13 -34 c-8 -16 -15 -23 -15 -16 0 17 20 55 26
49 2 -2 -2 -17 -11 -33z m45 6 c0 -5 -5 -10 -11 -10 -5 0 -8 -4 -4 -9 3 -5 1
-12 -4 -15 -5 -3 -12 2 -15 11 -4 9 -1 20 6 25 18 11 28 10 28 -2z"/>
<path d="M949 1113 c-15 -2 -31 -14 -37 -28 -9 -20 -7 -26 14 -40 18 -12 36
-15 64 -10 32 5 37 10 34 28 -2 12 -2 16 2 9 6 -13 24 -7 24 8 0 10 -54 41
-67 39 -4 -1 -20 -4 -34 -6z m59 -38 c5 -22 -18 -37 -34 -24 -7 6 -21 9 -31 7
-31 -5 -20 26 12 33 40 9 49 6 53 -16z"/>
<path d="M975 1211 c-3 -6 -12 -8 -18 -5 -8 5 -8 3 1 -7 9 -10 15 -10 24 -1 6
6 9 14 6 17 -3 4 -9 1 -13 -4z"/>
<path d="M940 2171 c0 -25 27 -48 41 -34 8 8 7 17 0 32 -14 26 -41 28 -41 2z
m35 -10 c3 -5 2 -12 -3 -15 -5 -3 -9 1 -9 9 0 17 3 19 12 6z"/>
<path d="M944 2086 c-9 -24 3 -46 26 -46 26 0 26 22 0 45 -18 16 -20 16 -26 1z
m31 -16 c3 -5 1 -10 -4 -10 -6 0 -11 5 -11 10 0 6 2 10 4 10 3 0 8 -4 11 -10z"/>
<path d="M0 1800 c0 -5 6 -11 13 -13 9 -4 8 -8 -3 -16 -8 -6 -10 -11 -5 -11 6
0 16 5 23 12 17 17 15 2 -4 -26 -14 -23 -14 -25 8 -40 27 -19 62 -20 102 -3
l30 13 -82 46 c-45 26 -82 43 -82 38z m109 -69 l24 -18 -33 -6 c-31 -7 -70 6
-70 22 0 26 45 28 79 2z"/>
<path d="M4 1659 c1 -16 5 -29 9 -29 4 0 3 -9 -3 -19 -14 -27 -13 -28 14 -46
17 -12 35 -14 60 -9 84 15 57 93 -26 79 -37 -7 -39 -6 -33 18 4 16 2 26 -8 30
-10 4 -14 -3 -13 -24z m109 -51 c22 -17 10 -33 -28 -41 -34 -6 -78 13 -67 29
16 24 69 31 95 12z"/>
<path d="M0 1525 c1 -26 2 -28 11 -12 8 14 8 22 0 30 -8 8 -11 3 -11 -18z"/>
<path d="M18 1493 c-10 -2 -18 -12 -18 -21 0 -12 3 -13 12 -4 14 14 67 16 87
3 8 -5 11 -16 7 -26 -5 -15 -15 -17 -58 -12 -46 6 -49 5 -32 -8 13 -9 32 -12
57 -8 37 5 38 5 32 -19 -5 -21 -2 -27 24 -38 18 -7 45 -10 66 -6 35 7 36 6 25
-15 -13 -23 -11 -25 33 -50 9 -5 33 -7 53 -3 34 6 36 6 25 -14 -9 -17 -7 -23
11 -36 31 -22 84 -20 108 4 26 26 25 33 -7 51 -20 11 -38 14 -63 8 -42 -9 -45
-7 -31 20 10 18 7 22 -20 37 -21 10 -43 14 -66 9 -32 -6 -33 -5 -28 18 10 36
-32 60 -85 48 -36 -8 -39 -7 -30 9 15 28 12 36 -15 48 -26 12 -55 14 -87 5z
m187 -85 c32 -15 27 -30 -14 -42 -22 -6 -39 -5 -55 4 -30 15 -23 37 12 43 15
2 28 5 29 6 1 0 14 -4 28 -11z m120 -72 c26 -19 10 -36 -33 -36 -44 0 -67 13
-60 31 7 19 70 22 93 5z m106 -56 c30 -17 23 -37 -16 -44 -61 -12 -102 29 -44
45 35 10 38 10 60 -1z"/>
<path d="M4 1349 c-4 -7 4 -10 22 -8 34 3 74 -8 74 -21 0 -17 -42 -32 -72 -26
-26 5 -29 4 -18 -9 16 -19 69 -9 93 17 23 27 22 33 -8 46 -33 15 -82 15 -91 1z"/>
<path d="M13 1083 c-21 -8 -15 -22 7 -16 23 6 50 -12 50 -33 0 -8 -10 -14 -22
-14 -13 0 -30 -5 -38 -11 -11 -8 -6 -9 20 -5 32 6 60 28 60 48 0 7 -54 39 -62
37 -2 0 -9 -3 -15 -6z"/>
<path d="M0 662 c0 -4 10 -13 22 -21 l21 -13 -24 -19 c-20 -15 -21 -19 -6 -19
9 0 23 11 29 25 10 21 8 28 -8 40 -21 16 -34 19 -34 7z"/>
</g>
</svg>
