<?xml version="1.0" standalone="no"?>
<!DOCTYPE svg PUBLIC "-//W3C//DTD SVG 20010904//EN"
 "http://www.w3.org/TR/2001/REC-SVG-20010904/DTD/svg10.dtd">
<svg version="1.0" xmlns="http://www.w3.org/2000/svg"
 width="192.000000pt" height="300.000000pt" viewBox="0 0 192.000000 300.000000"
 preserveAspectRatio="xMidYMid meet">
<metadata>
Created by potrace 1.10, written by Peter Selinger 2001-2011
</metadata>
<g transform="translate(0.000000,300.000000) scale(0.100000,-0.100000)"
fill="#000000" stroke="none">
<path d="M1634 2718 c-22 -11 -102 -57 -179 -103 -77 -45 -189 -111 -250 -145
-230 -132 -228 -129 -235 -325 l-5 -141 -200 117 c-622 362 -758 439 -763 434
-3 -3 -3 -7 -1 -9 2 -2 173 -102 379 -221 206 -120 411 -238 455 -264 44 -25
97 -55 118 -66 20 -11 37 -23 37 -28 0 -5 -13 1 -29 13 -27 18 -31 19 -39 4
-8 -14 -31 -3 -163 74 -767 446 -759 441 -759 429 0 -5 88 -56 622 -367 164
-94 298 -177 298 -182 0 -14 -13 -8 -152 73 -67 40 -206 120 -308 179 -102 59
-245 142 -318 185 -73 42 -135 75 -138 72 -6 -6 8 -15 251 -155 686 -395 665
-382 665 -409 l0 -25 -32 20 c-53 32 -305 179 -563 327 -132 76 -257 149 -278
162 -22 14 -41 22 -45 19 -3 -3 -3 -8 -1 -11 5 -4 359 -210 749 -436 l135 -78
3 -160 2 -160 -82 48 c-46 27 -213 124 -373 216 -159 92 -323 187 -362 211
-40 24 -73 39 -73 34 0 -14 13 -22 475 -288 328 -190 411 -242 413 -260 2 -12
1 -22 -2 -22 -3 0 -77 41 -163 91 -87 51 -275 159 -418 242 -143 82 -270 157
-282 165 -13 8 -23 10 -23 5 0 -5 91 -62 203 -126 347 -200 674 -391 699 -408
12 -9 20 -20 17 -23 -3 -3 -116 58 -250 136 -532 309 -669 386 -669 378 0 -4
26 -23 58 -40 73 -41 594 -343 735 -426 59 -35 112 -64 117 -64 6 0 10 -13 10
-30 0 -16 -2 -30 -4 -30 -2 0 -25 12 -51 27 l-48 26 -19 -22 c-24 -30 -23 -37
8 -57 21 -14 33 -15 69 -7 35 8 42 7 38 -4 -7 -17 -84 -63 -107 -63 -9 0 -19
-7 -22 -15 -7 -17 -103 -67 -115 -59 -5 3 -7 15 -3 28 4 17 -1 25 -23 36 -15
7 -30 13 -33 13 -3 -1 -20 -4 -38 -8 -32 -7 -33 -6 -23 13 15 29 15 30 -19 47
-41 21 -94 11 -109 -21 -9 -21 -7 -26 14 -40 18 -11 38 -15 65 -11 37 5 40 4
34 -17 -9 -36 37 -61 87 -48 21 5 39 6 39 2 0 -22 -112 -81 -126 -67 -3 3 -1
15 5 26 10 18 7 22 -19 36 -39 20 -96 11 -112 -18 -9 -17 -7 -24 13 -40 19
-15 33 -18 67 -13 57 8 52 -9 -14 -44 -55 -31 -80 -30 -63 2 12 22 13 21 -21
39 -34 18 -81 12 -102 -13 -10 -11 -18 -24 -18 -28 0 -15 61 -32 95 -27 58 9
42 -18 -29 -52 -35 -17 -69 -37 -75 -45 -15 -17 -99 -51 -107 -43 -3 3 -1 14
5 24 14 27 -30 52 -82 46 -52 -7 -69 -39 -36 -66 19 -15 33 -18 66 -13 24 3
43 2 43 -4 0 -14 -83 -60 -109 -60 -19 0 -20 3 -10 21 9 17 8 23 -2 30 -19 12
-29 11 -29 -1 0 -5 5 -10 10 -10 6 0 10 -7 10 -15 0 -8 -4 -15 -10 -15 -5 0
-10 -5 -10 -11 0 -5 4 -7 10 -4 14 9 12 -19 -2 -33 -32 -32 -25 -28 410 225
53 31 126 73 162 93 36 20 119 69 185 107 221 129 319 186 480 278 88 51 169
104 180 119 39 53 12 75 -347 278 -32 18 -57 38 -57 43 3 25 -2 36 -12 29 -7
-4 -10 -1 -7 6 8 24 28 23 37 -2 6 -12 10 -20 10 -15 1 4 18 -4 39 -17 20 -13
109 -65 197 -116 168 -95 215 -134 215 -175 0 -43 -49 -81 -280 -213 -284
-163 -1154 -667 -1210 -701 -8 -5 -13 -12 -10 -14 3 -3 59 27 125 66 66 38
203 118 305 177 102 59 369 213 593 343 224 131 412 237 417 237 25 0 5 -19
-57 -54 -67 -38 -289 -166 -753 -436 -129 -75 -324 -187 -432 -250 -109 -63
-198 -119 -198 -123 0 -5 15 0 33 11 31 19 249 146 822 477 314 182 511 296
563 327 l32 20 0 -25 c0 -19 -10 -31 -42 -49 -275 -156 -1387 -804 -1398 -814
-12 -12 -12 -14 2 -14 12 0 16 -7 14 -27 -2 -15 -8 -29 -15 -31 -14 -5 -15
-23 0 -20 6 2 13 -7 14 -20 1 -17 -2 -21 -13 -17 -11 4 -12 2 -5 -7 18 -22 22
-69 7 -75 -14 -5 -20 -25 -7 -21 10 4 13 -5 13 -33 0 -13 -4 -18 -12 -13 -10
6 -10 4 0 -7 14 -16 16 -49 2 -49 -5 0 -10 -4 -10 -10 0 -5 7 -7 15 -4 8 4 22
0 31 -7 13 -11 11 -15 -16 -32 -17 -11 -29 -22 -26 -24 4 -5 35 13 301 167
389 226 612 355 640 370 17 9 84 48 150 86 310 183 345 202 351 193 7 -12 10
-9 -46 -41 -25 -13 -61 -34 -80 -45 -278 -162 -515 -299 -695 -403 -476 -274
-625 -362 -625 -371 0 -5 24 5 52 22 117 69 496 290 703 409 535 309 661 382
670 391 15 15 25 10 25 -14 0 -18 -19 -34 -97 -79 -115 -66 -345 -199 -563
-325 -85 -50 -297 -172 -470 -273 -344 -199 -326 -188 -318 -195 4 -5 1164
662 1408 809 110 66 131 97 127 182 -4 80 -23 102 -159 182 -54 31 -98 59 -98
63 0 3 43 29 95 59 52 30 109 69 127 87 31 32 33 38 33 110 l0 76 -40 35 c-22
19 -96 67 -165 106 l-125 72 -3 147 c-2 112 1 153 12 174 10 20 59 53 163 112
81 47 171 99 200 117 46 29 56 32 85 23 45 -13 120 6 153 39 22 21 26 33 22
59 -3 18 -3 35 1 37 4 2 7 19 6 38 -1 30 -7 37 -70 74 -94 55 -97 55 -140 32z
m57 -7 c-13 -3 -32 -21 -42 -40 -12 -23 -41 -47 -91 -75 -142 -82 -161 -96
-148 -112 7 -8 18 -14 25 -14 7 0 66 31 132 70 65 38 126 70 136 70 31 0 57
20 56 43 0 22 0 22 -9 1 -7 -17 -16 -21 -52 -20 -31 1 -43 5 -43 16 0 8 7 14
15 12 28 -6 81 9 73 21 -4 6 13 0 37 -15 24 -14 45 -30 47 -34 1 -5 -66 -47
-149 -94 -83 -47 -203 -116 -267 -154 -184 -109 -165 -104 -246 -57 -38 22
-74 43 -80 46 -7 3 -6 7 1 10 22 11 431 249 499 291 42 26 82 42 100 42 27 0
28 -1 6 -7z m26 -27 c2 -5 -6 -10 -17 -11 -20 -2 -26 8 -13 21 9 8 26 3 30
-10z m-60 -62 c7 -4 -34 -33 -106 -75 -64 -37 -120 -67 -124 -67 -21 0 -2 27
31 43 20 10 69 38 107 61 79 50 76 48 92 38z m166 -32 c-3 -11 -47 -43 -112
-81 -431 -249 -499 -291 -510 -315 -6 -15 -11 -82 -11 -170 0 -80 -3 -144 -7
-142 -5 2 -32 16 -61 31 -45 24 -52 30 -41 43 10 12 9 18 -5 32 -14 14 -20 15
-37 4 -11 -7 -29 -10 -40 -7 -17 6 -19 16 -19 116 0 60 3 109 6 109 4 0 40
-19 80 -42 l74 -42 0 -108 c0 -59 4 -108 9 -108 5 0 11 63 13 139 3 138 3 140
33 176 21 26 90 72 215 145 102 59 235 137 295 173 61 36 113 65 117 66 3 1 4
-8 1 -19z m-1 -66 c-6 -34 -40 -50 -141 -68 -42 -8 -43 -8 49 48 77 48 97 52
92 20z m-115 -80 c-3 -3 -12 -4 -19 -1 -8 3 -5 6 6 6 11 1 17 -2 13 -5z m-565
-116 c40 -23 75 -43 77 -45 3 -2 -5 -13 -16 -26 -26 -27 -53 -81 -53 -102 0
-20 6 -22 -93 34 -55 30 -77 48 -73 58 3 8 6 20 6 27 0 17 57 96 69 96 5 0 42
-19 83 -42z m-137 -526 c0 -73 -2 -132 -5 -132 -3 0 -15 7 -26 15 -14 11 -15
14 -4 15 13 0 15 19 14 116 -1 85 -5 119 -15 125 -14 8 -29 3 -29 -11 0 -5 7
-7 15 -4 22 9 20 -32 -2 -45 -17 -10 -17 -10 0 -11 14 0 17 -10 17 -70 0 -63
-2 -70 -20 -70 -19 0 -20 6 -19 125 l1 124 35 -22 36 -23 2 -132z m219 -29
c177 -103 217 -137 197 -169 -10 -18 -10 -18 -11 2 0 12 -7 27 -15 34 -8 7
-15 19 -15 27 0 8 -5 11 -10 8 -6 -4 -75 31 -153 76 -78 45 -154 89 -169 96
-16 8 -28 21 -28 29 0 11 4 12 18 5 9 -6 93 -55 186 -108z m-304 -83 c0 -108
4 -160 11 -160 7 0 9 28 7 80 -2 50 1 79 7 77 6 -2 11 -43 13 -91 3 -84 2 -87
-18 -81 -18 6 -20 2 -20 -30 0 -22 -4 -34 -10 -30 -6 4 -10 82 -10 201 0 123
4 194 10 194 6 0 10 -60 10 -160z m312 37 c104 -59 128 -76 128 -94 0 -13 -2
-23 -4 -23 -2 0 -78 42 -168 94 -141 81 -163 98 -166 121 l-4 27 44 -26 c24
-14 100 -59 170 -99z m-185 36 c2 -6 -3 -13 -12 -16 -10 -5 -15 0 -15 14 0 21
21 22 27 2z m87 -45 l56 -33 -2 -114 c-2 -81 -7 -116 -15 -119 -10 -3 -13 25
-13 117 0 73 -4 122 -11 126 -7 5 -10 -35 -8 -123 0 -72 -2 -135 -6 -141 -11
-18 -39 -13 -85 17 l-44 28 -1 87 c0 54 4 88 11 91 6 2 9 18 6 37 -3 24 0 36
14 46 26 19 36 17 98 -19z m-171 -5 c-7 -2 -19 -2 -25 0 -7 3 -2 5 12 5 14 0
19 -2 13 -5z m415 -138 c2 -2 -21 -16 -50 -33 -29 -16 -70 -40 -90 -52 l-38
-22 0 105 0 106 88 -51 c48 -28 88 -52 90 -53z m-388 4 c0 -57 -4 -88 -10 -84
-5 3 -10 44 -10 91 0 49 4 84 10 84 6 0 10 -37 10 -91z m529 -1 c-1 -62 -4
-74 -30 -102 l-28 -31 -1 26 c0 18 9 32 25 43 14 9 25 22 25 28 0 6 -11 1 -24
-11 -36 -34 -41 -8 -5 28 25 26 30 38 27 66 -2 18 0 31 4 29 4 -3 7 -37 7 -76z
m-125 46 c3 -9 6 -23 6 -32 0 -24 -23 2 -25 28 -2 24 10 27 19 4z m-400 -147
c7 7 8 -1 10 -70 1 -31 -3 -52 -13 -60 -12 -10 -13 -4 -8 44 5 57 -3 79 -30
79 -20 0 -15 -17 7 -23 24 -6 17 -37 -9 -37 -13 0 -17 10 -19 45 l-2 45 29
-14 c16 -9 31 -12 35 -9z m66 -52 c17 -9 30 -18 30 -20 0 -8 -62 -37 -68 -31
-3 3 1 6 8 6 11 0 11 3 2 12 -12 12 -17 48 -7 48 4 0 19 -7 35 -15z m-90 -60
c0 -19 -7 -35 -20 -43 -19 -11 -20 -10 -20 31 0 36 3 43 20 43 16 0 20 -7 20
-31z m-87 -10 c23 -10 22 -25 -2 -25 -11 0 -25 -2 -33 -5 -19 -7 -52 21 -45
39 6 15 27 12 80 -9z m485 -110 c110 -65 140 -100 128 -149 -8 -32 -35 -52
-231 -165 -82 -47 -171 -99 -197 -114 l-48 -28 0 24 c0 21 26 39 188 133 103
59 197 118 210 131 47 47 22 82 -112 157 -72 40 -85 51 -75 63 16 19 19 17
137 -52z m-842 41 c23 -18 12 -31 -31 -40 -19 -4 -37 0 -49 9 -23 17 -14 31
24 38 14 2 28 5 31 6 3 0 14 -5 25 -13z m781 -68 c104 -62 138 -97 116 -119
-7 -7 -12 -3 -17 15 -3 14 -11 26 -16 26 -6 0 -10 7 -10 16 0 8 -4 13 -9 10
-12 -8 -193 98 -184 107 9 10 5 12 120 -55z m-9 -36 c53 -31 62 -40 62 -64 l0
-28 -52 30 c-29 17 -83 47 -120 68 -38 20 -68 40 -68 43 0 3 10 11 23 16 17 9
29 7 57 -9 19 -11 63 -37 98 -56z m-658 38 c11 -6 17 -17 14 -25 -7 -18 -66
-20 -96 -4 -21 11 -21 12 -3 25 22 17 59 18 85 4z m484 -9 c3 -5 -3 -11 -14
-14 -13 -3 -20 0 -20 9 0 15 26 19 34 5z m-44 -11 c0 -5 -5 -10 -11 -10 -5 0
-7 5 -4 10 3 6 8 10 11 10 2 0 4 -4 4 -10z m60 -20 c-27 -27 -25 -32 11 -54
22 -13 40 -16 66 -11 32 6 34 5 28 -15 -12 -39 62 -67 105 -40 10 6 4 8 -21 4
-43 -7 -81 10 -73 31 8 21 43 19 79 -5 40 -26 43 -25 41 10 -2 35 9 40 19 9
10 -29 0 -37 -150 -123 -119 -68 -158 -85 -127 -54 7 7 12 15 12 20 0 15 -62
40 -86 34 -22 -6 -24 -3 -24 28 0 34 0 34 39 29 31 -4 43 -1 60 16 11 11 21
25 21 31 0 17 -44 34 -82 31 -35 -2 -37 0 -36 29 1 31 5 33 48 31 14 -1 37 2
50 8 38 15 42 13 20 -9z m50 -8 c0 -5 -11 -14 -25 -20 -26 -12 -33 -4 -13 16
14 14 38 16 38 4z m-675 -25 c23 -18 14 -33 -26 -41 -34 -7 -69 8 -69 29 0 24
66 33 95 12z m487 -179 c-2 -106 -7 -197 -12 -202 -7 -7 -10 61 -10 185 0 180
3 209 19 209 3 0 5 -87 3 -192z m228 182 c18 -11 13 -16 -27 -23 -37 -7 -42
-1 -15 19 21 16 23 16 42 4z m288 -84 c-1 -61 -4 -73 -29 -100 l-28 -31 -1 27
c0 15 8 33 18 40 10 7 22 20 27 28 5 10 1 9 -13 -3 -11 -11 -26 -16 -33 -12
-8 6 -7 10 5 17 27 15 49 68 42 102 -4 22 -3 27 4 16 5 -8 9 -46 8 -84z m-548
-121 c0 -118 -4 -195 -10 -195 -9 0 -20 377 -11 386 17 17 21 -20 21 -191z
m295 185 c3 -5 1 -10 -4 -10 -6 0 -11 5 -11 10 0 6 2 10 4 10 3 0 8 -4 11 -10z
m-331 -201 l-2 -190 -208 -121 c-115 -66 -279 -161 -364 -210 -85 -50 -170
-99 -187 -110 l-33 -20 0 25 c0 21 36 44 283 187 155 90 326 190 380 222 61
36 104 55 114 51 11 -4 14 -2 9 5 -8 13 -15 340 -7 347 14 14 16 -12 15 -186z
m167 171 c28 -16 23 -37 -11 -45 -40 -9 -70 2 -70 25 0 17 8 21 53 29 5 0 17
-4 28 -9z m-201 -46 c0 -8 -4 -14 -10 -14 -5 0 -7 8 -4 18 4 10 3 13 -3 6 -8
-11 -83 -29 -83 -20 0 3 17 14 38 25 38 20 62 14 62 -15z m-510 16 c13 -9 12
-12 -4 -25 -11 -8 -29 -15 -41 -15 -28 0 -60 24 -51 38 9 15 75 15 96 2z m484
-57 c-4 -14 -2 -23 6 -23 6 0 9 4 5 9 -3 5 -1 12 4 15 4 3 9 -19 10 -49 0 -29
-4 -57 -10 -60 -17 -11 -22 1 -10 24 10 18 7 22 -20 37 -21 10 -43 14 -65 10
-31 -6 -33 -5 -31 21 3 36 6 38 66 39 48 0 50 -1 45 -23z m-114 -13 c0 -13
-48 -32 -69 -27 -11 2 -7 8 14 20 35 19 55 21 55 7z m-11 -52 c-13 -24 -12
-26 20 -42 18 -10 42 -13 65 -9 36 6 46 -3 25 -24 -8 -8 -4 -16 15 -28 47 -31
35 -55 -56 -107 -83 -46 -102 -52 -78 -23 7 9 11 17 9 19 -37 29 -56 35 -91
29 -38 -5 -39 -5 -33 19 5 20 1 27 -22 38 -15 7 -30 13 -33 13 -3 -1 -20 -4
-38 -8 -32 -7 -33 -6 -23 14 6 11 10 26 9 33 -2 8 13 13 47 15 51 3 93 32 79
55 -10 16 10 23 64 23 44 0 49 -2 41 -17z m347 8 c25 -19 11 -33 -36 -38 -30
-2 -35 0 -38 19 -2 14 3 23 15 26 32 8 39 7 59 -7z m-241 -9 c10 -8 15 -19 11
-25 -8 -13 -64 -16 -90 -6 -24 9 -19 32 7 37 42 8 53 7 72 -6z m-721 -22 c10
-7 15 -18 12 -24 -10 -16 -63 -23 -85 -11 -28 14 -27 38 2 43 40 8 52 7 71 -8z
m496 1 c0 -17 -22 -26 -58 -26 -26 1 -26 1 8 20 42 23 50 24 50 6z m470 -22
c0 -3 -70 -44 -76 -44 -2 0 -4 10 -4 23 0 19 5 22 40 22 22 1 40 0 40 -1z
m-200 -34 c0 -19 -11 -26 -23 -14 -8 8 3 34 14 34 5 0 9 -9 9 -20z m-402 -22
c-5 -13 -67 -33 -75 -24 -6 6 47 35 65 36 8 0 12 -5 10 -12z m-4 -55 c-8 -31
39 -55 89 -43 39 8 46 3 25 -19 -11 -10 -8 -16 12 -33 19 -16 33 -19 65 -13
46 7 41 0 -28 -39 l-48 -27 6 23 c8 33 -40 59 -89 48 -39 -9 -41 -8 -26 20 9
16 5 22 -20 35 -20 10 -42 14 -65 9 -33 -6 -34 -5 -32 22 3 37 6 39 66 39 47
0 50 -2 45 -22z m115 -19 c-14 -18 -69 -18 -93 -1 -15 11 -15 15 -4 24 22 18
52 20 81 6 23 -12 26 -17 16 -29z m-229 6 c0 -14 -38 -32 -63 -28 -21 3 -20 5
8 20 34 19 55 23 55 8z m-11 -52 c-10 -18 -8 -24 12 -40 19 -14 34 -17 67 -13
42 6 43 6 32 -15 -6 -12 -10 -23 -8 -24 41 -27 58 -33 88 -29 l35 4 -45 -26
c-25 -15 -51 -31 -57 -37 -10 -8 -12 -4 -7 19 5 26 2 31 -25 43 -18 7 -45 10
-66 6 -35 -7 -36 -6 -25 15 13 22 11 25 -32 49 -24 14 -76 1 -94 -24 -13 -19
-13 -23 8 -40 17 -13 34 -17 65 -13 40 4 42 3 37 -18 -8 -32 35 -58 84 -50 28
5 -2 -16 -127 -89 -90 -53 -166 -94 -169 -92 -11 12 9 36 30 36 28 0 68 26 68
44 0 16 -42 36 -75 36 -21 0 -25 5 -25 28 0 25 3 27 42 28 40 1 68 21 68 49 0
17 -50 39 -82 36 -25 -2 -28 1 -28 27 0 28 2 29 47 29 36 0 50 5 64 22 10 12
16 28 13 36 -4 10 6 13 41 13 26 0 49 3 53 6 14 14 22 4 11 -16z m346 9 c23
-18 14 -33 -26 -41 -58 -11 -93 30 -38 45 37 11 44 10 64 -4z m-239 -11 c23
-17 12 -31 -31 -39 -30 -6 -65 11 -65 31 0 22 68 28 96 8z m-226 -13 c-1 -18
-17 -30 -47 -36 -18 -4 -33 -3 -33 1 0 5 15 16 33 25 37 18 47 20 47 10z m94
-58 c10 -7 15 -18 12 -24 -10 -16 -63 -23 -86 -11 -36 19 -18 37 50 48 3 1 13
-5 24 -13z m245 6 c23 -15 5 -41 -29 -41 -41 0 -71 16 -64 35 7 17 70 21 93 6z
m-459 -201 c0 -127 -4 -200 -10 -200 -6 0 -10 71 -10 193 0 170 3 207 17 207
2 0 3 -90 3 -200z m-35 -15 c0 -149 -3 -195 -12 -195 -19 0 -19 376 0 383 6 3
12 6 12 6 0 1 0 -87 0 -194z m-35 -5 c0 -113 -4 -180 -10 -180 -6 0 -10 64
-10 173 0 153 3 187 17 187 2 0 3 -81 3 -180z m400 150 c27 -14 15 -37 -23
-43 -36 -5 -67 7 -67 28 0 24 56 33 90 15z m-241 -9 c25 -16 4 -41 -33 -41
-37 0 -51 12 -42 35 6 16 53 20 75 6z m-15 -137 c37 -14 10 -44 -40 -44 -19 0
-24 5 -24 25 0 20 5 25 24 25 13 0 31 -3 40 -6z"/>
<path d="M1660 2650 c0 -5 5 -10 11 -10 5 0 7 5 4 10 -3 6 -8 10 -11 10 -2 0
-4 -4 -4 -10z"/>
<path d="M1040 2082 c0 -28 27 -49 43 -33 8 8 9 16 1 29 -16 25 -44 28 -44 4z
m34 -24 c-4 -6 -10 -5 -15 3 -14 22 -10 33 6 19 8 -7 12 -17 9 -22z"/>
<path d="M1044 1705 c-7 -18 12 -45 32 -45 17 0 18 14 4 41 -13 23 -28 25 -36
4z m32 -32 c-4 -4 -11 -1 -16 7 -16 25 -11 35 7 17 9 -9 13 -20 9 -24z"/>
<path d="M1046 1623 c-11 -12 -6 -41 9 -53 21 -17 39 1 31 28 -7 21 -30 35
-40 25z m28 -29 c4 -10 1 -14 -6 -12 -15 5 -23 28 -10 28 5 0 13 -7 16 -16z"/>
<path d="M1035 1513 c-14 -11 -16 -17 -7 -20 6 -3 12 -11 12 -19 0 -17 11 -18
34 -1 10 7 15 19 11 29 -9 24 -28 28 -50 11z"/>
<path d="M1130 1040 c-27 -27 -25 -37 9 -54 35 -19 95 -5 111 24 9 16 6 22
-19 35 -41 21 -77 19 -101 -5z m91 -11 c16 -8 18 -13 8 -25 -13 -16 -66 -19
-88 -5 -40 25 36 54 80 30z"/>
<path d="M661 901 c-13 -3 -30 -16 -38 -27 -12 -19 -11 -23 14 -40 36 -23 83
-20 106 7 23 29 22 36 -13 54 -31 16 -33 16 -69 6z m60 -21 c30 -17 22 -37
-17 -43 -63 -10 -100 28 -43 44 35 10 38 10 60 -1z"/>
<path d="M771 831 c-13 -3 -29 -14 -35 -24 -17 -28 28 -58 74 -51 59 10 79 52
35 72 -28 13 -38 13 -74 3z m72 -23 c21 -17 10 -33 -28 -41 -36 -7 -70 15 -62
38 8 18 66 20 90 3z"/>
<path d="M275 543 c-30 -4 -55 -26 -55 -49 0 -18 56 -37 92 -30 27 5 68 42 56
50 -35 23 -58 36 -60 35 -2 -1 -16 -4 -33 -6z m59 -28 c10 -7 15 -18 12 -24
-10 -16 -63 -23 -86 -11 -26 14 -21 32 11 41 36 10 42 10 63 -6z"/>
<path d="M0 1870 c0 -5 5 -10 11 -10 5 0 7 5 4 10 -3 6 -8 10 -11 10 -2 0 -4
-4 -4 -10z"/>
<path d="M13 1853 c-7 -2 -13 -12 -12 -21 0 -11 2 -12 6 -4 2 6 9 12 15 12 16
0 78 -32 78 -40 0 -12 -57 -17 -75 -7 -9 5 -19 7 -22 4 -14 -14 39 -27 76 -18
37 8 40 7 31 -9 -15 -28 -13 -34 18 -52 30 -17 85 -14 102 7 8 10 3 18 -22 32
-18 11 -65 38 -104 61 -38 23 -72 42 -75 41 -2 0 -10 -3 -16 -6z m177 -101
c16 -10 27 -22 23 -25 -10 -11 -62 -8 -84 4 -16 8 -18 13 -8 25 15 19 32 18
69 -4z"/>
<path d="M226 1708 c-22 -31 -21 -35 15 -54 25 -12 40 -14 70 -6 35 9 46 7 91
-18 42 -23 49 -30 35 -36 -18 -6 -85 1 -95 10 -3 3 1 12 8 21 7 9 10 19 6 22
-8 8 -26 -15 -26 -33 0 -23 49 -45 86 -38 33 6 35 5 29 -18 -11 -41 57 -61
119 -35 l30 13 -115 64 c-63 36 -138 79 -168 97 -30 18 -58 33 -62 33 -4 0
-15 -10 -23 -22z m103 -33 c7 -8 -1 -12 -34 -19 -39 -8 -74 16 -55 38 11 14
16 14 48 0 20 -8 38 -17 41 -19z m204 -122 c32 -16 32 -16 9 -26 -29 -13 -76
2 -80 26 -4 22 28 23 71 0z"/>
<path d="M18 1713 c-30 -8 -20 -23 11 -17 32 7 74 -11 68 -29 -5 -16 -69 -28
-84 -15 -9 7 -13 7 -13 0 0 -16 25 -21 66 -15 35 6 36 5 25 -15 -10 -18 -8
-24 15 -39 32 -20 81 -19 106 4 25 22 23 36 -10 55 -21 13 -37 15 -65 8 -40
-9 -42 -8 -27 20 8 14 5 21 -15 34 -24 16 -43 18 -77 9z m192 -107 c0 -18 -64
-30 -89 -16 -28 15 -16 38 22 42 38 4 67 -7 67 -26z"/>
<path d="M220 1570 c-26 -26 -25 -36 5 -56 18 -12 36 -15 66 -10 38 6 39 6 28
-15 -11 -22 -10 -25 32 -49 9 -5 31 -5 52 0 40 9 42 8 27 -20 -15 -28 31 -54
86 -47 39 4 42 3 34 -14 -14 -25 -13 -27 20 -44 37 -19 87 -9 107 22 14 20 12
23 -17 38 -22 11 -44 15 -67 10 -32 -6 -33 -5 -28 18 9 35 -33 61 -87 52 -38
-7 -39 -6 -29 13 6 12 11 23 11 25 0 13 -65 29 -95 24 -36 -6 -41 -2 -26 23
24 37 -84 65 -119 30z m90 -10 c26 -14 15 -36 -21 -44 -35 -7 -79 11 -72 30 8
22 63 30 93 14z m114 -66 c37 -14 11 -44 -38 -44 -29 0 -61 24 -52 38 8 13 64
16 90 6z m107 -64 c30 -17 23 -37 -16 -44 -59 -11 -96 33 -40 47 32 8 35 8 56
-3z m124 -73 c26 -20 10 -37 -33 -37 -45 0 -67 13 -59 34 8 20 66 22 92 3z"/>
<path d="M0 1566 c0 -9 8 -12 24 -9 31 6 67 -13 60 -32 -4 -10 -20 -15 -45
-15 -21 0 -39 -4 -39 -10 0 -26 83 -2 100 29 9 17 6 22 -19 36 -37 19 -81 20
-81 1z"/>
<path d="M570 1510 c-27 -27 -25 -37 10 -55 21 -11 42 -14 66 -9 33 6 35 5 29
-17 -8 -33 36 -59 83 -48 62 13 58 24 -30 75 -95 55 -129 74 -134 74 -2 0 -13
-9 -24 -20z m73 -19 c15 -8 27 -18 27 -23 0 -11 -72 -10 -90 2 -13 9 -12 12 5
25 10 9 22 14 25 12 3 -1 17 -9 33 -16z m117 -69 c34 -21 30 -32 -12 -32 -39
0 -69 17 -62 35 8 20 37 19 74 -3z"/>
<path d="M127 1513 c-23 -4 -68 -48 -56 -56 38 -27 57 -33 89 -26 41 9 45 7
31 -18 -14 -28 37 -57 85 -48 32 6 34 5 29 -17 -13 -51 97 -72 130 -25 8 12
15 24 15 28 0 14 -62 31 -96 26 -34 -6 -35 -5 -29 21 5 23 1 29 -25 41 -19 8
-44 11 -66 6 -34 -6 -35 -5 -24 15 6 12 10 23 8 24 -29 19 -58 36 -60 35 -2
-1 -15 -4 -31 -6z m57 -28 c10 -7 15 -18 12 -24 -10 -16 -63 -23 -86 -11 -26
14 -21 32 11 41 36 10 42 10 63 -6z m116 -70 c16 -19 5 -32 -30 -36 -60 -7
-91 28 -39 42 40 11 56 10 69 -6z m119 -68 c15 -19 -6 -37 -43 -37 -40 0 -61
14 -53 34 8 20 80 22 96 3z"/>
<path d="M0 1430 c0 -5 10 -10 23 -10 31 0 51 -15 44 -34 -4 -10 -18 -16 -37
-16 -16 0 -30 -4 -30 -8 0 -4 16 -6 35 -4 34 4 36 3 30 -19 -5 -19 0 -28 23
-41 16 -10 31 -16 33 -14 2 2 19 6 37 9 30 6 32 5 22 -13 -14 -26 -14 -28 20
-45 21 -11 42 -14 66 -9 84 16 53 90 -34 80 -40 -5 -42 -5 -36 18 9 35 -33 59
-86 47 -36 -8 -39 -7 -30 9 15 28 12 36 -15 48 -32 15 -65 15 -65 2z m165 -82
c32 -15 27 -30 -14 -42 -22 -6 -39 -5 -55 4 -30 15 -23 37 12 43 15 2 28 5 29
6 1 0 14 -4 28 -11z m125 -73 c16 -19 4 -33 -30 -35 -33 -3 -42 -1 -59 9 -12
8 -12 12 -2 25 17 20 75 21 91 1z"/>
<path d="M701 1321 c-13 -3 -30 -16 -38 -28 -13 -19 -12 -23 14 -41 37 -25 88
-19 110 15 9 13 14 25 12 27 -46 35 -57 39 -98 27z m62 -25 c9 -7 17 -18 17
-23 0 -16 -67 -25 -90 -13 -36 19 -18 37 50 48 3 1 13 -5 23 -12z"/>
<path d="M0 1290 c0 -5 3 -9 8 -8 4 1 17 -2 30 -6 32 -11 25 -40 -11 -44 -15
-2 -27 -7 -27 -12 0 -5 13 -5 30 0 33 9 35 8 20 -20 -15 -28 31 -54 86 -47 41
4 43 3 32 -16 -9 -17 -6 -23 13 -38 38 -29 98 -19 119 20 9 18 6 23 -21 37
-20 10 -44 14 -66 11 -30 -5 -33 -4 -27 17 8 34 -31 56 -86 49 -41 -6 -42 -5
-30 16 13 25 13 24 -17 40 -27 14 -53 14 -53 1z m151 -80 c10 -6 19 -17 19
-24 0 -17 -67 -28 -91 -15 -25 13 -14 37 19 42 15 2 28 5 30 6 2 0 12 -4 23
-9z m125 -74 c23 -17 12 -31 -31 -39 -30 -6 -65 11 -65 31 0 24 66 29 96 8z"/>
<path d="M342 1242 c-24 -2 -36 -10 -45 -29 -10 -22 -8 -27 13 -44 40 -30 120
-7 120 36 0 18 -53 41 -88 37z m60 -33 c21 -11 21 -12 3 -25 -23 -17 -59 -18
-86 -3 -16 8 -18 13 -8 25 14 17 62 18 91 3z"/>
<path d="M0 1156 c0 -9 6 -16 14 -16 19 0 36 -23 28 -37 -4 -6 -16 -13 -27
-16 -12 -4 -9 -5 8 -3 21 3 27 0 23 -10 -3 -8 -8 -20 -12 -28 -8 -20 48 -40
91 -32 37 7 40 5 26 -23 -8 -14 -4 -21 20 -35 50 -30 119 -5 119 42 0 17 -59
35 -95 29 -32 -5 -34 -4 -25 13 14 26 13 28 -17 43 -16 8 -44 12 -66 9 -37 -4
-38 -3 -28 16 9 16 7 22 -12 34 -44 29 -47 29 -47 14z m145 -89 c23 -17 13
-34 -25 -42 -32 -7 -73 10 -67 28 3 10 15 15 68 26 3 0 13 -5 24 -12z m114
-66 c8 -5 11 -16 8 -25 -7 -18 -72 -22 -97 -6 -35 24 53 54 89 31z"/>
<path d="M0 1010 c0 -6 7 -13 15 -16 8 -4 15 -12 15 -20 0 -8 -7 -14 -15 -14
-8 0 -15 -4 -15 -10 0 -20 31 -9 42 15 10 21 8 28 -8 40 -23 17 -34 19 -34 5z"/>
<path d="M1 564 c0 -11 3 -14 6 -6 3 7 2 16 -1 19 -3 4 -6 -2 -5 -13z"/>
</g>
</svg>
